<svg width="0" height="0" class="hidden">
  <symbol fill="none" xmlns="http://www.w3.org/2000/svg" viewBox="0 0 16 12" id="mail16x12">
    <path d="M8 8C7.7 8 7.5 7.9 7 7.7L0 4V11C0 11.5 0.5 12 1 12H15C15.5 12 16 11.5 16 11V4L9 7.7C8.5 7.9 8.3 8 8 8ZM15 0H1C0.5 0 0 0.5 0 1V1.8L8 6L16 1.8V1C16 0.5 15.5 0 15 0Z" fill="black"></path>
  </symbol>
  <symbol fill="none" xmlns="http://www.w3.org/2000/svg" viewBox="0 0 18 18" id="phone18x18">
    <path d="M3.6 7.8C5 10.6 7.4 12.9 10.2 14.4L12.4 12.2C12.7 11.9 13.1 11.8 13.4 12C14.5 12.4 15.7 12.6 17 12.6C17.6 12.6 18 13 18 13.6V17C18 17.6 17.6 18 17 18C7.6 18 0 10.4 0 1C0 0.4 0.4 0 1 0H4.5C5.1 0 5.5 0.4 5.5 1C5.5 2.2 5.7 3.4 6.1 4.6C6.2 4.9 6.1 5.3 5.9 5.6L3.6 7.8Z" fill="#010101"></path>
  </symbol>
  <symbol fill="none" xmlns="http://www.w3.org/2000/svg" viewBox="0 0 181 214" id="hero-text180x214">
    <path d="M56.385 42.8044L56.2623 42.9267C55.4031 43.844 54.4211 44.272 53.5006 44.272L55.219 41.2757C56.3236 39.3801 55.2803 37.5456 53.5619 37.5456C52.1504 37.5456 51.0457 38.096 50.0024 39.9304L49.0819 41.5203L48.3454 42.8044L48.2227 42.9267C46.8725 44.4555 45.5837 45.6785 44.7859 45.6785C44.3563 45.6785 44.1722 45.3727 44.6018 44.7001L48.5295 37.8514H50.0024L50.5548 36.9953H49.0205L50.7389 33.999H48.8977L47.1793 36.9953H45.5223L44.97 37.8514H46.627L42.9447 44.2109C42.1469 45.5562 42.6993 46.8403 44.1722 46.8403C45.2155 46.8403 46.4429 46.0454 47.5476 44.9447C47.5476 47.2683 50.8002 47.7575 52.7641 45.2504H53.1937C54.2984 45.2504 56.0168 44.5778 56.9374 43.4771C56.9374 43.1713 56.6305 42.9267 56.385 42.8044ZM52.4573 42.9267H52.3959C51.7822 42.9267 51.2912 43.4159 51.2912 44.0274C51.2912 44.272 51.3526 44.4555 51.4753 44.6389V44.7001C50.6161 46.1677 48.5295 45.9231 49.5728 43.9663L50.9844 41.5815L51.8436 40.1139C53.1323 37.9125 54.9121 38.7686 53.8074 40.6642L52.4573 42.9267Z" fill="#766458"></path>
    <path d="M81.854 42.8042L81.7312 42.9265C80.3811 44.4552 78.7241 45.6782 77.4353 45.6782C76.3306 45.6782 75.6555 44.9444 76.4533 43.4768L76.6374 43.1711C77.8035 43.6603 80.0742 43.4157 81.4244 41.0309L81.6699 40.6028C82.6518 38.8907 81.7312 37.6677 80.197 37.6677C78.7241 37.6677 77.558 38.4626 76.7602 39.8079L74.9804 42.8654L74.8577 42.9877C73.5075 44.5164 72.2187 45.7394 71.4209 45.7394C70.9913 45.7394 70.8072 45.4336 71.2368 44.761L73.8757 40.1136C74.6736 38.7072 73.9371 37.7288 72.8938 37.7288C72.096 37.7288 71.2368 38.1569 70.3162 39.1353L73.262 34.0599H71.4209L66.3271 42.8042L66.2044 42.9265C64.8542 44.4552 63.5654 45.6782 62.7676 45.6782C62.338 45.6782 62.1539 45.3725 62.5835 44.6998L66.5112 37.8511H67.9841L68.5365 36.995H67.0022L68.7206 33.9987H66.8794L65.1611 36.995H63.504L62.9517 37.8511H64.6087L60.9265 44.2106C60.1286 45.5559 60.681 46.8401 62.1539 46.8401C62.8903 46.8401 63.6882 46.4732 64.486 45.8617L63.995 46.6566H65.8361L68.5978 41.8258C71.4209 38.2792 72.6483 38.7684 71.9119 40.1136L69.5184 44.2718C68.7206 45.6171 69.2729 46.9012 70.7458 46.9012C71.8505 46.9012 73.0779 46.0451 74.1826 44.9444C74.244 46.1063 75.2259 46.9012 76.6988 46.9012C78.7854 46.9012 80.872 45.3113 82.3449 43.538C82.4063 43.1711 82.0995 42.9265 81.854 42.8042ZM78.3558 40.2359C79.3991 38.4015 81.3016 38.7072 80.197 40.6028L79.9515 41.0309C79.0923 42.4985 77.8649 42.4985 77.1898 42.2539L78.3558 40.2359Z" fill="#766458"></path>
    <path d="M148.81 42.8044L148.687 42.9267C148.012 43.7217 147.214 44.3943 146.478 44.9446C147.091 43.1713 146.907 40.5419 148.073 38.1571L146.723 37.4233C145.987 38.4628 144.33 40.8476 142.611 42.8044L142.488 42.9267C141.138 44.4554 139.849 45.6784 139.052 45.6784C138.622 45.6784 138.438 45.3727 138.868 44.7L142.795 37.8513H140.954L137.701 43.5382C136.29 44.8223 135.247 45.495 134.878 45.3727C134.449 45.1892 134.878 44.5166 135.124 44.0886L138.683 37.8513H136.842L133.958 42.8044L133.835 42.9267C132.976 43.844 131.994 44.272 131.073 44.272L132.792 41.2757C133.896 39.3801 132.853 37.5456 131.135 37.5456C129.723 37.5456 128.619 38.0959 127.575 39.9304L126.655 41.5203L125.918 42.8044L125.796 42.9267C124.445 44.4554 122.788 45.6784 121.5 45.6784C120.395 45.6784 119.72 44.9446 120.518 43.4771L120.702 43.1713C121.868 43.6605 124.138 43.4159 125.489 41.0311L125.734 40.6031C126.716 38.8909 125.796 37.6679 124.261 37.6679C122.788 37.6679 121.622 38.4628 120.824 39.8081L119.045 42.8656L118.922 42.9879C117.388 44.7612 116.099 45.8619 114.626 46.4734L118.738 39.4412H117.633C117.633 38.7074 116.835 37.6679 115.731 37.6679C114.749 37.6679 113.337 38.4628 112.601 39.8081L110.821 42.8656L110.698 42.9879C109.348 44.5166 108.059 45.7396 107.261 45.7396C106.832 45.7396 106.648 45.4338 107.077 44.7612L108.918 41.5814C109.532 40.4808 109.225 39.8081 108.673 39.0743L107.63 37.8513C107.384 37.5456 107.384 37.1175 107.752 36.8118L106.77 35.7723C105.727 36.6895 105.666 37.729 106.28 38.5851L106.464 38.7686C105.666 39.9304 104.561 41.4591 103.334 42.8656L103.211 42.9879C102.352 43.9051 101.37 44.3332 100.449 44.3332L102.168 41.3368C103.272 39.4412 102.229 37.6067 100.511 37.6067C99.0991 37.6067 97.9944 38.1571 96.9511 39.9916L96.0306 41.5814L95.2941 42.8656L95.1714 42.9879C93.6371 44.7612 92.3483 45.8619 90.8754 46.4734L94.9872 39.4412H93.8826C93.8826 38.7074 93.0847 37.6679 91.9801 37.6679C90.9981 37.6679 89.5866 38.4628 88.8501 39.8081L86.2726 44.272C85.4747 45.6173 86.0271 46.9014 87.5 46.9014C87.9909 46.9014 88.6047 46.6568 89.2797 46.2899L88.7888 47.146C86.3339 47.8798 84.7383 48.9193 84.7383 50.2646C84.7383 52.038 87.4386 52.4048 88.7888 50.1423L90.2003 47.7575C91.6732 47.3295 93.0847 46.4122 94.619 45.0058C94.619 47.3295 97.8717 47.8187 99.8356 45.3115H100.265C101.37 45.3115 103.088 44.6389 104.009 43.5382C104.868 42.4987 105.604 41.5814 107.077 39.6247L107.323 39.9304C107.568 40.2362 107.63 40.6031 107.446 40.9699L105.482 44.3332C104.684 45.6784 105.236 46.9626 106.709 46.9626C107.63 46.9626 108.673 46.3511 109.655 45.495C109.655 46.3511 110.207 46.9626 111.251 46.9626C111.742 46.9626 112.355 46.718 113.03 46.3511L112.601 47.0849C110.146 47.8187 108.55 48.8582 108.55 50.2035C108.55 51.9768 111.251 52.3437 112.601 50.0812L114.012 47.6964C115.485 47.2072 116.958 46.3511 118.492 44.8835C118.554 46.0453 119.474 46.8403 121.009 46.8403C122.481 46.8403 124.016 45.9842 125.243 44.8835C125.182 47.2683 128.496 47.7575 130.46 45.2504H130.889C131.442 45.2504 132.239 45.0669 132.915 44.7C132.424 45.9842 132.853 46.8403 133.896 46.8403C134.878 46.8403 136.044 45.923 136.904 45.0669C136.72 46.0453 137.333 46.8403 138.499 46.8403C140.034 46.8403 141.752 45.2504 143.286 43.4771C144.33 42.2541 145.25 40.9699 145.925 40.1139C145.189 42.0095 145.618 45.4338 143.839 45.4338C143.225 45.4338 142.979 44.7612 142.979 44.7612L141.813 45.3727C141.813 45.3727 142.12 46.8403 143.839 46.8403C144.023 46.8403 144.145 46.8403 144.33 46.7791H144.391C146.293 46.5345 148.135 45.0669 149.485 43.4771C149.423 43.1713 149.117 42.8656 148.81 42.8044ZM122.481 40.2362C123.525 38.4017 125.427 38.7074 124.323 40.6031L124.077 41.0311C123.218 42.4987 121.991 42.4987 121.315 42.2541L122.481 40.2362ZM87.3772 49.7754C87.009 50.4481 86.3953 50.3869 86.3953 49.8366C86.3953 49.3474 86.8249 48.797 88.2364 48.2467L87.3772 49.7754ZM88.2364 45.6784C87.8068 45.6784 87.6227 45.3727 88.0523 44.7L90.6299 40.2362C91.6118 38.524 93.5757 38.952 92.6551 40.6031L91.2436 43.049C90.1389 44.8223 88.9729 45.6784 88.2364 45.6784ZM99.5287 42.9267H99.4673C98.8536 42.9267 98.3627 43.4159 98.3627 44.0274C98.3627 44.272 98.424 44.4555 98.5468 44.6389V44.7C97.6876 46.1676 95.601 45.923 96.6443 43.9663L98.0558 41.5814L98.915 40.1139C100.204 37.9125 101.984 38.7686 100.879 40.6642L99.5287 42.9267ZM111.066 49.7754C110.698 50.4481 110.085 50.3869 110.085 49.8366C110.085 49.3474 110.514 48.797 111.926 48.2467L111.066 49.7754ZM111.926 45.6784C111.496 45.6784 111.312 45.3727 111.742 44.7L114.319 40.2362C115.301 38.524 117.265 38.952 116.344 40.6031L114.933 43.049C113.828 44.8223 112.662 45.6784 111.926 45.6784ZM130.03 42.9267H129.969C129.355 42.9267 128.864 43.4159 128.864 44.0274C128.864 44.272 128.925 44.4555 129.048 44.6389V44.7C128.189 46.1676 126.102 45.923 127.146 43.9663L128.557 41.5814L129.416 40.1139C130.705 37.9125 132.485 38.7686 131.38 40.6642L130.03 42.9267Z" fill="#766458"></path>
    <path d="M34.8437 40.8469H17.1074V42.0699H34.8437V40.8469Z" fill="#766458"></path>
    <path d="M174.156 40.8469H156.42V42.0699H174.156V40.8469Z" fill="#766458"></path>
    <path d="M55.0349 0H59.7605L59.024 27.456H50.1252L48.8978 16.1434L47.6704 27.456H38.7102L38.0351 0H42.6993L43.0675 22.7475H43.5585L46.5657 0H51.2299L54.2371 22.7475H54.728L55.0349 0Z" fill="#81B3D3"></path>
    <path d="M74.5508 22.7475V27.5171H61.7243V0H74.5508V4.70849H66.3885V11.3126H72.8938V16.0211H66.3885V22.6864H74.5508V22.7475Z" fill="#81B3D3"></path>
    <path d="M87.6842 22.7475V27.5171H76.4533V0H81.1175V22.7475H87.6842Z" fill="#81B3D3"></path>
    <path d="M97.6263 17.3664L102.352 16.2657V24.582C102.352 26.1719 101.002 27.456 99.4675 27.456H92.4098C90.8141 27.456 89.5253 26.1107 89.5253 24.582V2.87401C89.5253 1.28413 90.8141 0 92.4098 0H99.4675C101.002 0 102.352 1.28413 102.352 2.87401V8.43859L97.6263 9.53928V4.64734H94.2509V22.6864H97.6263V17.3664Z" fill="#81B3D3"></path>
    <path d="M115.117 0C116.651 0 118.001 1.28413 118.001 2.87401V24.5208C118.001 26.1107 116.651 27.3948 115.117 27.3948H108.059C106.464 27.3948 105.175 26.0496 105.175 24.5208V2.87401C105.175 1.28413 106.464 0 108.059 0H115.117ZM113.276 4.70849H109.901V22.7475H113.276V4.70849Z" fill="#81B3D3"></path>
    <path d="M133.344 0H138.009V27.456H133.344V13.942L131.442 20.913H126.839L124.998 13.942V27.456H120.334V0H124.998L129.171 13.2694L133.344 0Z" fill="#81B3D3"></path>
    <path d="M153.167 22.7475V27.5171H140.341V0H153.167V4.70849H145.005V11.3126H151.51V16.0211H145.005V22.6864H153.167V22.7475Z" fill="#81B3D3"></path>
    <path d="M21.2196 175.926C25.9451 174.336 26.252 168.466 21.6492 168.466C20.3604 168.466 18.8261 169.383 17.7828 171.156L11.5229 181.98C11.2161 182.469 10.9706 182.897 10.6024 183.325C9.00672 181.124 9.43632 177.821 11.707 176.354L10.7865 175.192C5.8768 178.311 7.3497 187.238 15.5121 187.238C22.447 187.238 25.6996 178.922 21.2196 175.926ZM15.4507 185.465C14.0391 185.465 12.9958 185.159 12.0753 184.67C12.5049 184.181 12.8731 183.631 13.2413 183.019L17.1691 176.232L17.7828 176.293C23.2448 177.455 21.0968 185.465 15.4507 185.465ZM17.9669 174.886L19.8694 171.645C21.5878 168.71 23.7358 170.422 22.5697 172.624C21.6492 174.336 20.3604 174.825 17.9669 174.886Z" fill="white"></path>
    <path d="M40.9196 183.448C40.5514 184.794 41.2878 185.955 42.8221 185.955C43.7427 185.955 44.9087 185.344 46.0748 184.427C46.1975 185.344 46.9339 185.955 48.1 185.955C49.3274 185.955 50.6776 185.099 52.0278 183.876C51.7823 185.099 52.3346 185.955 53.5007 185.955C54.7894 185.955 56.201 184.794 57.3057 183.754C57.0602 184.977 57.7966 185.955 59.2695 185.955C61.172 185.955 63.3814 183.876 65.3453 181.675C65.3453 181.614 65.2839 181.614 65.2839 181.553C66.5727 180.085 67.6774 178.495 68.5366 177.394C67.616 179.779 68.107 184.121 65.8976 184.121C65.0998 184.121 64.7929 183.265 64.7929 183.265L63.32 183.999C63.32 183.999 63.7496 185.894 65.8976 185.894C66.1431 185.894 66.3272 185.894 66.5727 185.833H66.6341C68.3525 185.588 70.0095 184.549 71.4824 183.265C71.5437 184.794 72.7098 185.894 74.6123 185.894C77.2513 185.894 79.8902 183.815 81.7927 181.614C81.6086 181.308 81.2404 180.941 80.9335 180.819L80.7494 181.002C79.0924 182.959 76.9444 184.488 75.2874 184.488C73.8758 184.488 73.0166 183.571 74.06 181.736L74.3054 181.308C75.7784 181.919 78.6014 181.614 80.3812 178.617L80.688 178.067C81.9155 175.927 80.7494 174.337 78.8469 174.337C76.9444 174.337 75.4715 175.315 74.4896 177.028L72.2188 180.88H72.1575L71.9733 181.063C71.1142 182.042 70.0708 182.959 69.1503 183.571C69.8867 181.369 69.7026 177.945 71.1755 175.01L69.4571 174.092C68.4752 175.438 66.3886 178.434 64.302 180.88L64.3633 180.941L64.302 181.063C62.6449 183.02 60.9879 184.549 59.9446 184.549C59.4536 184.549 59.1468 184.182 59.6991 183.265L64.6702 174.582H62.3381L58.2262 181.797C56.4465 183.387 55.0963 184.304 54.6667 184.121C54.1144 183.876 54.6667 183.02 54.9736 182.531L59.515 174.643H57.1829L53.5007 181.002C53.4393 180.941 53.3779 180.941 53.3165 180.88L53.1324 181.063C51.4754 183.02 49.8184 184.549 48.7751 184.549C48.2841 184.549 47.9773 184.182 48.5296 183.265L52.2732 176.722H50.9231C50.9844 175.743 50.0025 174.398 48.4682 174.398C47.2408 174.398 45.461 175.377 44.4791 177.089L42.147 181.125C42.0243 181.002 41.9015 180.941 41.7788 180.88L41.5947 181.063C39.9377 183.02 37.7897 184.549 36.1326 184.549C34.7211 184.549 33.8619 183.632 34.9052 181.797L37.2987 177.639C38.6489 175.315 41.0423 175.743 39.6308 178.128L39.3239 178.679H41.2264L41.5333 178.128C42.7607 175.988 41.5947 174.398 39.6922 174.398C37.7897 174.398 36.3168 175.377 35.3348 177.089L33.0027 181.063C32.9414 181.002 32.88 181.002 32.8186 180.941L32.6345 181.125C30.9775 183.081 28.8295 184.61 27.1725 184.61C25.7609 184.61 24.9017 183.693 25.9451 181.858L26.1905 181.43C27.6634 182.042 30.4865 181.736 32.2663 178.74L32.5731 178.189C33.8005 176.049 32.6345 174.459 30.732 174.459C28.8295 174.459 27.3566 175.438 26.3746 177.15L23.9198 181.308C22.4469 183.754 23.7357 186.078 26.4974 186.078C28.5226 186.078 30.6092 184.855 32.2663 183.265C32.2049 184.855 33.4323 186.078 35.3962 186.078C37.3601 185.955 39.2626 184.855 40.9196 183.448ZM76.5148 177.578C77.865 175.254 80.2584 175.682 78.8469 178.067L78.54 178.617C77.4354 180.513 75.9011 180.452 75.0419 180.146L76.5148 177.578ZM43.2517 183.265L46.5044 177.639C47.7318 175.499 50.248 176.049 49.0819 178.128L47.2408 181.308C45.8293 183.509 44.4177 184.549 43.4972 184.549C43.0062 184.488 42.6993 184.182 43.2517 183.265ZM28.3999 177.578C29.7501 175.254 32.1435 175.682 30.732 178.067L30.4251 178.617C29.3205 180.513 27.7862 180.452 26.927 180.146L28.3999 177.578Z" fill="white"></path>
    <path d="M107.323 185.954C109.962 185.954 112.601 183.875 114.503 181.674C114.319 181.368 113.951 181.001 113.644 180.879L113.46 181.062C111.803 183.019 109.655 184.548 107.998 184.548C106.587 184.548 105.727 183.63 106.771 181.796L107.016 181.368C108.489 181.979 111.312 181.674 113.092 178.677L113.399 178.127C114.626 175.987 113.46 174.397 111.558 174.397C109.655 174.397 108.182 175.375 107.2 177.087L104.93 180.94C104.93 180.94 104.868 180.94 104.868 180.879L104.684 181.062C103.027 183.019 101.37 184.548 100.327 184.548C99.8358 184.548 99.5289 184.181 100.081 183.263L103.457 177.393C104.439 175.62 103.518 174.336 102.229 174.336C101.247 174.336 100.143 174.886 98.9766 176.109L102.72 169.688H100.327L93.76 181.001C93.6987 180.94 93.5759 180.879 93.5145 180.817L93.3304 181.001C91.6734 182.958 90.0164 184.486 88.9731 184.486C88.4821 184.486 88.1753 184.12 88.7276 183.202L93.6986 174.519H95.6012L96.2762 173.418H94.3737L96.5831 169.627H94.251L92.0416 173.418H89.955L89.2799 174.519H91.4279L86.7637 182.591C85.7818 184.303 86.4569 185.893 88.3594 185.893C89.5254 185.893 90.7528 185.159 92.0416 184.058L91.1211 185.648H93.4532L97.0127 179.533C100.572 175.069 102.168 175.62 101.186 177.332L98.1787 182.591C97.1968 184.303 97.8719 185.893 99.7744 185.893C101.186 185.893 102.782 184.792 104.254 183.325C104.254 184.853 105.421 185.954 107.323 185.954ZM109.226 177.577C110.576 175.253 112.969 175.681 111.558 178.066L111.251 178.616C110.146 180.512 108.612 180.451 107.753 180.145L109.226 177.577Z" fill="white"></path>
    <path d="M177.9 180.879L177.716 181.063C176.059 183.019 174.402 184.548 173.358 184.548C172.867 184.548 172.561 184.181 173.113 183.264L180.968 169.689H178.636L175.199 175.559C174.77 174.886 174.033 174.336 173.051 174.336C171.824 174.336 170.044 175.315 169.062 177.027L166.792 180.94C166.73 180.94 166.669 180.879 166.669 180.879L166.485 181.063C164.828 183.019 163.171 184.548 162.127 184.548C161.636 184.548 161.33 184.181 161.882 183.264L165.257 177.394C166.239 175.62 165.319 174.336 164.03 174.336C163.048 174.336 161.943 174.886 160.777 176.048L161.636 174.52H159.304L155.561 180.94C155.499 180.879 155.438 180.818 155.315 180.818L155.131 181.001C153.474 182.958 151.817 184.487 150.774 184.487C150.283 184.487 149.976 184.12 150.528 183.203L154.272 176.66H153.106C153.167 175.681 152.185 174.336 150.651 174.336C149.424 174.336 147.644 175.315 146.662 177.027L144.391 180.879L144.268 181.001C142.611 182.958 140.954 184.487 139.911 184.487C139.42 184.487 139.113 184.12 139.666 183.203L141.998 179.167C142.796 177.76 142.427 176.966 141.691 176.048L140.402 174.458C140.095 174.03 140.095 173.541 140.525 173.113L139.297 171.768C137.947 172.93 137.886 174.275 138.684 175.315L138.868 175.559C137.824 177.027 136.474 178.983 134.94 180.757C135.001 180.818 135.063 180.879 135.124 180.94C133.222 183.142 131.565 184.548 129.724 185.343L132.669 180.329H130.399L130.153 180.757C128.926 182.897 127.514 184.487 125.673 184.487C124.077 184.487 123.771 182.897 125.182 180.512L125.857 179.35C126.287 179.412 126.716 179.473 127.207 179.473C135.492 179.473 139.482 168.405 132.178 168.405C130.89 168.405 129.355 169.322 128.312 171.095L124.691 177.332C123.341 176.599 122.604 175.315 122.604 174.03C122.604 172.93 123.095 171.89 124.077 171.095L123.341 169.75C121.684 170.912 120.947 172.502 120.947 174.092C120.947 175.926 121.991 177.699 123.893 178.678L123.218 179.901C121.561 182.714 121.868 185.832 125.182 185.832C126.164 185.832 127.023 185.526 127.698 185.098L127.085 186.138C123.955 187.116 121.991 188.339 121.991 190.113C121.991 192.314 125.428 192.803 127.085 189.929L128.864 186.872C131.258 186.138 133.651 184.487 136.229 181.491C136.167 181.429 136.167 181.368 136.106 181.246C137.149 180.023 138.009 178.861 139.788 176.476L140.095 176.843C140.402 177.21 140.525 177.699 140.218 178.189L137.763 182.469C136.781 184.181 137.456 185.771 139.359 185.771C140.525 185.771 141.814 185.037 143.041 183.937C143.041 184.976 143.716 185.771 145.066 185.771C145.987 185.771 147.153 185.16 148.319 184.242C148.442 185.16 149.178 185.771 150.344 185.771C151.449 185.771 152.676 185.098 153.842 184.059L152.983 185.526H155.315L158.875 179.35C162.434 174.886 164.03 175.498 162.987 177.21L159.979 182.469C158.998 184.181 159.673 185.771 161.575 185.771C162.802 185.771 164.153 184.915 165.503 183.753C165.38 184.915 166.117 185.771 167.528 185.771C168.449 185.771 169.615 185.16 170.781 184.242C170.903 185.16 171.64 185.771 172.806 185.771C174.708 185.771 176.918 183.692 178.882 181.491C178.636 181.368 178.207 181.001 177.9 180.879ZM130.092 172.196C130.767 171.034 131.565 170.484 132.178 170.484C135.861 170.484 133.283 178.005 127.207 178.005H126.716L130.092 172.196ZM125.121 189.685C124.63 190.541 123.832 190.418 123.832 189.807C123.832 189.195 124.384 188.523 126.164 187.85L125.121 189.685ZM149.485 181.246C148.073 183.447 146.662 184.487 145.741 184.487C145.25 184.487 144.944 184.12 145.496 183.203L148.749 177.577C149.976 175.437 152.492 175.987 151.326 178.066L149.485 181.246ZM172.008 181.124C170.597 183.447 169.185 184.487 168.203 184.487C167.712 184.487 167.405 184.12 167.958 183.203L171.21 177.577C172.438 175.437 174.954 175.987 173.788 178.066L172.008 181.124Z" fill="white"></path>
    <path d="M100.143 202.893L99.9586 203.076C98.3016 205.033 96.6446 206.561 95.6013 206.561C95.1103 206.561 94.8034 206.195 95.3558 205.277L98.7312 199.407C99.7131 197.634 98.7925 196.35 97.5038 196.35C96.5218 196.35 95.4171 196.9 94.2511 198.062L95.1103 196.533H92.7782L89.0346 203.015C88.9118 202.954 88.8504 202.893 88.7277 202.831L88.5436 203.015C87.5003 204.177 86.2115 204.727 85.0454 204.727L87.2548 200.936C88.6663 198.49 87.3775 196.227 85.1682 196.227C83.3884 196.227 81.9769 196.961 80.6267 199.285L79.4607 201.242L78.4787 202.954C78.4174 202.893 78.356 202.893 78.2946 202.831L78.1105 203.015C76.208 205.216 74.551 206.623 72.7098 207.418L79.0924 196.533H76.7603L72.6485 203.687C70.8687 205.339 69.4572 206.256 69.0276 206.072C68.4752 205.828 69.0276 204.972 69.3344 204.482L73.8759 196.594H71.5438L67.8002 203.015C67.7388 202.954 67.6774 202.954 67.6161 202.893L67.4319 203.076C65.7749 205.033 64.1179 206.561 63.0746 206.561C62.5836 206.561 62.2768 206.195 62.8291 205.277L66.2045 199.407C67.1865 197.634 66.2659 196.35 64.9771 196.35C63.9952 196.35 62.8905 196.9 61.7244 198.062L62.5836 196.533H60.2515L56.5079 202.954C56.4465 202.893 56.3851 202.831 56.2624 202.831L56.0783 203.015C54.4213 204.972 52.7643 206.5 51.721 206.5C51.23 206.5 50.9231 206.133 51.4755 205.216L55.2191 198.673H53.8689C53.9303 197.695 52.9484 196.35 51.4141 196.35C50.1867 196.35 48.4069 197.328 47.425 199.04L45.0315 203.198C44.8474 203.076 44.6633 202.954 44.5405 202.893L44.3564 203.076C42.6994 205.033 40.6128 206.561 38.3421 206.561C36.7464 206.561 35.7645 204.972 37.176 202.587L37.8511 201.425C38.2807 201.486 38.7103 201.547 39.2013 201.547C41.6561 201.547 44.4792 200.263 46.3203 197.083C46.9954 195.922 47.2409 194.882 47.2409 193.965C47.2409 191.886 45.8907 190.479 44.1723 190.479C42.8835 190.479 41.3492 191.396 40.3059 193.17L36.685 199.407C35.3349 198.673 34.5984 197.389 34.5984 196.105C34.5984 195.004 35.0894 193.965 36.0713 193.17L35.3349 191.825C33.6779 192.986 32.9414 194.576 32.9414 196.166C32.9414 198.001 33.9847 199.774 35.8872 200.752L35.2121 201.975C33.5551 204.788 34.5371 207.907 37.8511 207.907C40.4287 207.907 42.3925 206.745 43.9882 205.216C43.4972 206.684 44.2337 207.907 45.8907 207.907C46.8113 207.907 47.9773 207.295 49.1434 206.378C49.2661 207.295 50.0026 207.907 51.1686 207.907C52.2733 207.907 53.5007 207.234 54.6668 206.195L53.8076 207.662H56.1397L59.6992 201.486C63.2587 197.022 64.8544 197.634 63.811 199.346L60.8039 204.605C59.8219 206.317 60.497 207.907 62.3995 207.907C63.6269 207.907 65.0385 207.051 66.3886 205.828C66.0818 207.112 66.6955 207.907 67.8615 207.907C68.9662 207.907 70.255 206.99 71.2983 206.011L70.0095 208.213C66.8796 209.13 64.8544 210.414 64.8544 212.187C64.8544 214.389 68.2911 214.878 69.9482 212.004L71.7279 208.946C73.6918 208.335 75.5943 207.112 77.6195 205.155C77.3127 208.396 81.6087 209.13 84.2476 205.828H84.7386C85.5978 205.828 86.7638 205.522 87.8071 204.91L86.2729 207.601H88.6049L92.1645 201.425C95.724 196.961 97.3196 197.573 96.2763 199.285L93.2692 204.544C92.2872 206.256 92.9623 207.846 94.8648 207.846C96.7673 207.846 98.9767 205.767 100.941 203.565C100.879 203.382 100.45 203.015 100.143 202.893ZM42.2084 194.209C42.8835 193.048 43.6813 192.497 44.2951 192.497C45.1542 192.497 45.5838 193.048 45.5838 193.904C45.5838 196.044 42.9449 199.957 39.324 199.957H38.833L42.2084 194.209ZM50.4322 203.259C49.0206 205.461 47.6091 206.5 46.6885 206.5C46.1976 206.5 45.8907 206.133 46.443 205.216L49.6957 199.59C50.9231 197.45 53.4393 198.001 52.2733 200.08L50.4322 203.259ZM68.107 211.698C67.6161 212.554 66.8182 212.432 66.8182 211.82C66.8182 211.209 67.3706 210.536 69.1503 209.864L68.107 211.698ZM83.818 203.015H83.6953C82.9588 203.015 82.3451 203.626 82.3451 204.421C82.3451 204.727 82.4065 204.972 82.5906 205.216V205.277C81.4859 207.173 78.847 206.806 80.1971 204.36L81.9769 201.303L83.0816 199.407C84.7386 196.655 86.9479 197.756 85.5364 200.141L83.818 203.015Z" fill="white"></path>
    <path d="M154.088 203.688C153.965 203.322 153.536 202.955 153.229 202.893L153.045 203.077C152.185 204.055 151.142 204.973 150.221 205.584C150.958 203.383 150.774 199.958 152.247 197.023L150.528 196.106C149.546 197.451 147.46 200.448 145.373 202.893L145.189 203.077C143.532 205.034 141.875 206.562 140.832 206.562C140.341 206.562 139.85 206.073 139.85 204.973V203.994C141.507 204.178 143.225 203.138 144.33 201.242L144.944 200.142C147.092 196.412 143.593 195.189 141.2 197.39L144.514 191.642H142.182L135.554 203.138C135.431 203.016 135.247 202.893 135.124 202.832L134.94 203.016C133.283 204.973 131.135 206.501 129.478 206.501C128.067 206.501 127.207 205.584 128.251 203.75L130.644 199.591C131.994 197.268 134.388 197.696 132.976 200.081L132.669 200.631H134.572L134.879 200.081C136.106 197.94 134.94 196.351 133.038 196.351C131.135 196.351 129.662 197.329 128.68 199.041L126.409 202.955C126.348 202.955 126.287 202.893 126.287 202.893L126.103 203.077C124.446 205.034 122.789 206.562 121.745 206.562C121.254 206.562 120.947 206.196 121.5 205.278L126.471 196.595H124.139L120.027 203.811C118.247 205.401 116.897 206.318 116.467 206.134C115.915 205.89 116.467 205.034 116.774 204.545L121.316 196.656H118.984L114.442 204.422C113.951 204.85 113.399 205.278 112.969 205.645C113.706 203.444 113.522 200.019 114.994 197.084L113.276 196.167C112.294 197.512 106.955 204.606 104.807 207.052C104.991 207.357 105.359 207.602 105.666 207.847C107.016 206.318 111.435 200.631 112.233 199.53C111.312 201.915 111.803 206.257 109.594 206.257C108.796 206.257 108.489 205.401 108.489 205.401L107.016 206.134C107.016 206.134 107.446 208.03 109.594 208.03C109.839 208.03 110.023 208.03 110.269 207.969H110.33C111.496 207.785 112.662 207.296 113.767 206.501C113.767 207.419 114.319 208.03 115.301 208.03C116.59 208.03 118.002 206.868 119.106 205.829C118.861 207.052 119.597 208.03 121.07 208.03C122.543 208.03 124.139 206.868 125.673 205.339C125.673 206.868 126.9 208.03 128.803 208.03C130.705 208.03 132.547 206.99 134.204 205.584L132.915 207.847H135.247L137.886 203.26V205.095C137.886 207.052 138.254 208.091 140.157 208.091C142.059 208.091 144.268 206.012 146.232 203.811C147.583 202.282 148.687 200.692 149.546 199.591C148.626 201.976 149.117 206.318 146.907 206.318C146.11 206.318 145.803 205.462 145.803 205.462L144.33 206.196C144.33 206.196 144.759 208.091 146.907 208.091C147.153 208.091 147.337 208.091 147.583 208.03H147.644C149.976 207.602 152.369 205.706 154.088 203.688ZM138.622 201.854L139.297 200.692C141.998 196.962 143.839 198.002 142.98 199.408L141.875 201.304C141.2 202.527 139.175 203.383 138.622 201.854Z" fill="white"></path>
    <path d="M154.026 205.278C153.29 205.278 152.676 205.89 152.676 206.623C152.676 207.357 153.229 207.969 154.026 207.969C154.763 207.969 155.377 207.418 155.377 206.623C155.377 205.89 154.763 205.278 154.026 205.278Z" fill="white"></path>
    <path d="M154.149 204.36H156.481L163.785 191.702H161.452L154.149 204.36Z" fill="white"></path>
    <path d="M4.21956 169.751C4.21956 169.934 4.15818 170.117 4.09681 170.301C4.03544 170.484 3.9127 170.668 3.78996 170.79C3.66722 170.912 3.4831 171.035 3.29899 171.157C3.11488 171.218 2.8694 171.279 2.62391 171.279C2.31706 171.279 2.07157 171.218 1.82609 171.096C1.5806 170.974 1.33512 170.851 1.151 170.668C0.966891 170.484 0.905521 170.301 0.782779 170.056C0.721408 169.812 0.660034 169.567 0.660034 169.261C0.660034 168.711 0.782776 168.283 0.966889 167.794C1.151 167.366 1.39649 166.938 1.76472 166.632C1.88746 166.51 2.07157 166.326 2.25568 166.204C2.43979 166.082 2.62391 165.959 2.80802 165.898C2.99213 165.837 3.11488 165.715 3.23762 165.654C3.36036 165.592 3.42173 165.592 3.4831 165.531L4.3423 166.754C4.21956 166.815 4.03545 166.877 3.85133 166.999C3.66722 167.06 3.4831 167.182 3.29899 167.305C3.11488 167.427 2.99213 167.61 2.86939 167.794C2.74665 167.977 2.68528 168.161 2.68528 168.405C3.11488 168.405 3.42173 168.528 3.72859 168.772C4.09681 168.956 4.21956 169.323 4.21956 169.751ZM9.06787 169.751C9.06787 169.934 9.0065 170.117 8.94513 170.301C8.88376 170.484 8.76101 170.668 8.63827 170.79C8.51553 170.912 8.33142 171.035 8.14731 171.157C7.96319 171.218 7.7177 171.279 7.47222 171.279C7.16537 171.279 6.91988 171.218 6.6744 171.096C6.42892 170.974 6.18343 170.851 5.99932 170.668C5.87658 170.484 5.75383 170.301 5.63109 170.056C5.56972 169.812 5.50835 169.567 5.50835 169.261C5.50835 168.711 5.63109 168.283 5.8152 167.794C5.99932 167.366 6.2448 166.938 6.61303 166.632C6.73577 166.51 6.91988 166.326 7.104 166.204C7.28811 166.082 7.47222 165.959 7.65634 165.898C7.84045 165.837 7.96319 165.715 8.08593 165.654C8.20867 165.592 8.27005 165.592 8.33142 165.531L9.19061 166.754C9.06787 166.815 8.88376 166.877 8.69964 166.999C8.51553 167.06 8.33142 167.182 8.14731 167.305C7.96319 167.427 7.84045 167.61 7.71771 167.794C7.59496 167.977 7.5336 168.161 7.5336 168.405C7.96319 168.405 8.27005 168.528 8.5769 168.772C8.88376 168.956 9.06787 169.323 9.06787 169.751Z" fill="white"></path>
    <path d="M171.763 205.767C171.763 205.584 171.824 205.4 171.885 205.217C171.947 205.033 172.069 204.85 172.192 204.728C172.315 204.605 172.499 204.483 172.683 204.361C172.867 204.3 173.113 204.239 173.358 204.239C173.665 204.239 173.911 204.3 174.156 204.422C174.402 204.544 174.647 204.667 174.831 204.85C175.015 205.033 175.077 205.217 175.199 205.462C175.261 205.706 175.322 205.951 175.322 206.256C175.322 206.807 175.199 207.235 175.015 207.724C174.831 208.152 174.586 208.58 174.217 208.886C174.095 209.008 173.911 209.192 173.726 209.314C173.542 209.436 173.358 209.558 173.174 209.62C172.99 209.681 172.867 209.803 172.745 209.864C172.622 209.925 172.56 209.925 172.499 209.987L171.64 208.764C171.763 208.702 171.947 208.641 172.131 208.519C172.315 208.458 172.499 208.336 172.683 208.213C172.867 208.091 172.99 207.907 173.113 207.724C173.236 207.541 173.297 207.357 173.297 207.113C172.867 207.113 172.56 206.99 172.254 206.746C171.947 206.562 171.763 206.195 171.763 205.767ZM166.976 205.767C166.976 205.584 167.037 205.4 167.098 205.217C167.16 205.033 167.282 204.85 167.405 204.728C167.528 204.605 167.712 204.483 167.896 204.361C168.08 204.3 168.326 204.239 168.571 204.239C168.878 204.239 169.124 204.3 169.369 204.422C169.615 204.544 169.86 204.667 170.044 204.85C170.167 205.033 170.29 205.217 170.412 205.462C170.474 205.706 170.535 205.951 170.535 206.256C170.535 206.807 170.412 207.235 170.228 207.724C170.044 208.152 169.799 208.58 169.43 208.886C169.308 209.008 169.124 209.192 168.94 209.314C168.755 209.436 168.571 209.558 168.387 209.62C168.203 209.681 168.08 209.803 167.958 209.864C167.835 209.925 167.773 209.925 167.712 209.987L166.853 208.764C167.037 208.702 167.16 208.641 167.344 208.519C167.528 208.458 167.712 208.336 167.896 208.213C168.08 208.091 168.203 207.907 168.326 207.724C168.449 207.541 168.51 207.357 168.51 207.113C168.08 207.113 167.773 206.99 167.467 206.746C167.098 206.562 166.976 206.195 166.976 205.767Z" fill="white"></path>
  </symbol>
  <symbol fill="none" xmlns="http://www.w3.org/2000/svg" viewBox="0 0 40 35" id="icon-burger40x35">
    <path d="M37.7428 23.3004H2.25722C0.997375 23.3004 0 24.3135 0 25.4785V27.2514C0 28.4164 0.997375 29.3788 2.25722 29.3788H2.78215V29.8853C2.78215 32.6712 5.14436 34.9 7.979 34.9H32.021C34.9081 34.9 37.2179 32.6206 37.2179 29.8853V29.3788H37.7428C38.9501 29.3788 40 28.4164 40 27.2007V25.4278C40 24.3135 39.0026 23.3004 37.7428 23.3004ZM35.6955 29.8853C35.6955 31.8101 34.0682 33.3804 32.0735 33.3804H7.92651C5.93176 33.3804 4.30446 31.8101 4.30446 29.8853V29.3788H35.6955V29.8853ZM38.4252 27.2007C38.4252 27.5553 38.1102 27.8592 37.7428 27.8592H2.25722C1.88976 27.8592 1.5748 27.5553 1.5748 27.2007V25.4278C1.5748 25.1239 1.88976 24.82 2.25722 24.82H37.7953C38.1627 24.82 38.4777 25.1239 38.4777 25.4785V27.2007H38.4252Z" fill="#81B3D2"></path>
    <path d="M8.50396 19.1973L11.3386 21.2234L14.2257 19.1973L17.1129 21.2234L20 19.1973L22.8347 21.2234L25.7218 19.1973L28.6089 21.2234L31.4961 19.1973L34.3832 21.2234L37.6903 18.8427L36.7979 17.627L34.3832 19.2986L31.4961 17.2725L28.6089 19.2986L25.7218 17.2725L22.8347 19.2986L20 17.2725L17.1129 19.2986L14.2257 17.2725L11.3386 19.2986L8.50396 17.2725L5.61681 19.2986L3.20212 17.627L2.25723 18.8427L5.61681 21.2234L8.50396 19.1973Z" fill="#81B3D2"></path>
    <path d="M37.2179 15.7531C37.2179 15.4492 37.2704 14.4361 37.2179 14.2335C36.8504 6.33164 29.2913 0 20 0C10.7087 0 3.09712 6.33164 2.72967 14.2335C2.72967 14.4361 2.72967 15.4492 2.72967 15.7531H37.2179ZM20 1.51959C28.399 1.51959 35.3281 7.19274 35.6431 14.2335H4.30447C4.67193 7.19274 11.6011 1.51959 20 1.51959Z" fill="#81B3D2"></path>
    <path d="M20 8.61109C20.5798 8.61109 21.0499 8.15752 21.0499 7.59802C21.0499 7.03852 20.5798 6.58496 20 6.58496C19.4202 6.58496 18.9501 7.03852 18.9501 7.59802C18.9501 8.15752 19.4202 8.61109 20 8.61109Z" fill="#81B3D2"></path>
    <path d="M15.8005 6.12866C16.3803 6.12866 16.8504 5.6751 16.8504 5.1156C16.8504 4.5561 16.3803 4.10254 15.8005 4.10254C15.2207 4.10254 14.7507 4.5561 14.7507 5.1156C14.7507 5.6751 15.2207 6.12866 15.8005 6.12866Z" fill="#81B3D2"></path>
    <path d="M24.1995 6.12866C24.7793 6.12866 25.2493 5.6751 25.2493 5.1156C25.2493 4.5561 24.7793 4.10254 24.1995 4.10254C23.6196 4.10254 23.1496 4.5561 23.1496 5.1156C23.1496 5.6751 23.6196 6.12866 24.1995 6.12866Z" fill="#81B3D2"></path>
  </symbol>
  <symbol fill="none" xmlns="http://www.w3.org/2000/svg" viewBox="0 0 32 38" id="icon-gift32x38">
    <path d="M30.5778 11.2058H30.527H18.1841C25.0921 7.76156 25.6508 5.58358 25.3968 4.36796C24.8381 2.39259 22.5524 0.873068 20.419 1.68348C17.6254 2.74714 16.8635 6.9005 16.1016 9.88889C15.1365 6.84985 14.2222 3.0004 12.0381 1.02502C11.4286 0.467863 10.5143 -0.0892942 9.14286 0.0120071C7.11111 0.21461 4.21587 2.69649 5.43492 5.48228C6.55238 8.16676 10.2603 9.88888 12.7492 11.2565H1.42222C0.609524 11.2565 0 11.9149 0 12.6747V18.3475C0 19.158 0.660317 19.7658 1.42222 19.7658H1.5746V38H30.527V19.7658H30.5778C31.3905 19.7658 32 19.1073 32 18.3475V12.6747C32 11.8643 31.3397 11.2058 30.5778 11.2058ZM21.2317 2.94975C22.2984 2.79779 23.7206 3.6082 23.873 4.57057C24.0762 5.93813 22.1968 7.2044 21.3333 7.76156C20.0635 8.62262 18.8444 9.07847 17.6762 9.78758C18.0825 7.91351 18.946 3.25365 21.2317 2.94975ZM9.75238 7.91351C8.63492 7.15375 6.50159 5.68488 6.55238 4.01341C6.60317 2.18999 9.44762 0.721116 10.9714 2.08868C12.9016 3.76016 13.8159 7.66026 14.527 10.3954C12.9016 9.58498 11.3778 8.97717 9.75238 7.91351ZM12.7492 36.4805H3.04762V19.7658H12.7492V36.4805ZM12.7492 18.2462H1.52381V12.7253H12.7492V18.2462ZM17.8286 36.4805H14.2222V12.7253H17.8286V36.4805ZM29.0032 36.4805H19.3524V19.7658H29.054V36.4805H29.0032ZM30.4762 18.2462H19.3524V12.7253H30.4762V18.2462Z" fill="#81B3D2"></path>
  </symbol>
  <symbol fill="none" xmlns="http://www.w3.org/2000/svg" viewBox="0 0 34 37" id="icon-house39x37">
    <path d="M10.4015 33.2194H18.7549V21.0613H10.4015V33.2194ZM17.2408 31.7441H11.9155V22.5365H17.1886V31.7441H17.2408Z" fill="#81B3D2"></path>
    <path d="M32.9036 20.0431L34 18.9748L28.8313 13.9386V0.203483H21.6265V6.91843L14.4739 0L-5 19.0257L-3.90361 20.094L0.168674 16.126V35.3552H-1.86747V36.8305H31.494V35.3552H28.8313V16.0752L32.9036 20.0431ZM23.1406 1.72961H27.2651V12.4633L23.1406 8.44455V1.72961ZM27.3173 35.3043H1.73494V14.5999L14.4739 2.13657L27.2651 14.5999V35.3043H27.3173Z" fill="#81B3D2"></path>
    <path d="M10.5582 13.8369C10.5582 16.0243 12.3855 17.8048 14.5783 17.8048C16.8233 17.8048 18.6506 16.0243 18.6506 13.8369C18.6506 11.6494 16.8233 9.9198 14.5783 9.9198C12.3333 9.9198 10.5582 11.6494 10.5582 13.8369ZM14.5783 11.2933C15.9879 11.2933 17.1888 12.4125 17.1888 13.8369C17.1888 15.2104 16.0402 16.3804 14.5783 16.3804C13.1687 16.3804 11.9679 15.2612 11.9679 13.8369C11.9679 12.4633 13.1687 11.2933 14.5783 11.2933Z" fill="#81B3D2"></path>
    <path d="M5.38951 21.0613H3.82324V23.0452H5.38951V21.0613Z" fill="#81B3D2"></path>
    <path d="M8.46983 21.0613H6.90356V23.0452H8.46983V21.0613Z" fill="#81B3D2"></path>
    <path d="M5.38951 24.1128H3.82324V26.0968H5.38951V24.1128Z" fill="#81B3D2"></path>
    <path d="M8.46983 24.1128H6.90356V26.0968H8.46983V24.1128Z" fill="#81B3D2"></path>
    <path d="M22.0443 21.0613H20.478V23.0452H22.0443V21.0613Z" fill="#81B3D2"></path>
    <path d="M25.1769 21.0613H23.6106V23.0452H25.1769V21.0613Z" fill="#81B3D2"></path>
    <path d="M22.0443 24.1128H20.478V26.0968H22.0443V24.1128Z" fill="#81B3D2"></path>
    <path d="M25.1769 24.1128H23.6106V26.0968H25.1769V24.1128Z" fill="#81B3D2"></path>
  </symbol>
  <symbol fill="none" xmlns="http://www.w3.org/2000/svg" viewBox="0 0 185 96" id="logo185x96">
    <path d="M185 0H0L79.8097 90.1011C86.8489 97.9663 98.2503 97.9663 105.289 90.1011L185 0Z" fill="#81B3D3"></path>
    <path d="M42.8296 0.696915L92.0043 58.8395L140.882 1.09515L42.8296 0.696915Z" fill="#23A9E1"></path>
    <path d="M120.954 17.2237C115.898 17.2237 110.941 17.3233 105.884 17.3233C111.833 10.4537 114.51 11.1506 120.954 17.2237Z" fill="white"></path>
    <path d="M80.1072 22.5999C88.9309 22.5999 97.7546 22.5999 106.578 22.5999C104.595 21.4052 99.9357 15.5312 97.358 17.7215C97.1597 17.9207 89.9223 8.86077 85.1635 13.2414C80.9995 17.0246 79.1158 12.7436 74.3569 15.7304C69.1024 19.3145 77.5295 21.4052 80.1072 22.5999Z" fill="white"></path>
    <path d="M92.3017 0H41.8382V22.4008L92.0043 83.6298L92.3017 83.2315L142.567 23.0977V0H92.3017ZM54.4293 1.79207H59.8821V18.9163L54.4293 12.4449V1.79207ZM53.6361 11.5489L48.679 5.67488V1.79207H53.6361V11.5489ZM72.7706 8.86077L67.1195 1.79207H72.7706V8.86077ZM66.2272 12.644L60.6752 1.79207H66.2272V12.644ZM60.5761 3.38501L66.0289 14.0379C63.2529 16.1286 61.3692 18.0202 60.5761 18.9163V3.38501V3.38501ZM67.0204 2.88722L72.5723 9.75681C71.4818 10.3542 70.3912 11.0511 69.4989 11.6484C68.6066 12.2458 67.8135 12.8431 67.0204 13.4405V2.88722ZM73.5638 2.6881L78.3226 6.86959C76.6372 7.5665 75.0509 8.36298 73.5638 9.15945V2.6881ZM79.1158 6.57091L73.7621 1.79207H79.7106V6.37179C79.4132 6.37179 79.314 6.47135 79.1158 6.57091ZM98.052 1.79207H103.009L98.052 4.18149V1.79207ZM92.3017 1.79207H96.664L92.3017 3.88281V1.79207ZM91.4094 3.78325L87.2454 1.79207H91.4094V3.78325ZM85.9566 4.28105L80.9003 1.79207H85.9566V4.28105ZM80.4046 2.38942L85.0643 4.67928C83.478 5.07752 81.8917 5.47576 80.4046 5.97355V2.38942ZM86.7497 2.38942L90.1206 3.98237C88.9309 4.08193 87.8403 4.18149 86.6506 4.38061V2.38942H86.7497ZM97.0606 2.48898V4.38061C95.97 4.18149 94.8794 4.08193 93.6897 3.98237L97.0606 2.48898ZM103.505 2.38942V6.07311C102.018 5.57532 100.431 5.07752 98.746 4.67928L103.505 2.38942ZM104.199 1.79207H110.048L104.695 6.57091C104.496 6.47135 104.397 6.47135 104.199 6.37179V1.79207ZM117.682 1.79207H123.234L117.682 12.644V1.79207ZM111.139 1.79207H116.79L111.139 8.76121V1.79207ZM110.346 2.6881V9.15945C108.859 8.36298 107.272 7.5665 105.587 6.86959L110.346 2.6881ZM116.889 2.88722V13.3409C116.195 12.8431 115.402 12.3453 114.609 11.748C113.617 11.0511 112.428 10.3542 111.238 9.65725L116.889 2.88722ZM123.234 3.38501V18.518C122.144 17.5224 120.359 15.8299 117.781 13.9383L123.234 3.38501ZM124.027 19.3145V1.79207H129.48V13.1418L124.027 19.3145C124.027 19.4141 124.126 19.4141 124.027 19.3145ZM130.273 1.79207H135.23V6.47135L130.273 12.2458V1.79207ZM47.985 1.79207V4.67928L45.5064 1.79207H47.985V1.79207ZM60.6752 19.9118L60.7744 20.0114C60.7744 20.0114 64.3435 16.1286 69.8955 12.4449C75.1501 8.96033 83.0815 4.8784 92.0043 4.97796C100.828 4.97796 108.958 9.15945 114.113 12.644C119.665 16.3277 123.333 20.111 123.432 20.2105L119.566 24.6907C112.725 25.5867 107.768 30.7638 101.125 29.6687C97.7545 29.0713 97.6554 27.1797 96.664 25.1885C95.97 23.6951 94.7803 23.8942 93.194 23.2969C91.806 22.6995 90.9137 21.6044 88.0386 22.2017C85.56 22.7991 85.2626 26.6819 82.09 26.4828C80.4046 26.3832 80.3055 23.9938 77.926 21.007C71.6801 13.4405 65.8307 14.5356 61.865 21.5048L91.9051 57.2466L60.6752 19.9118ZM135.924 5.47576V1.79207H139.097L135.924 5.47576Z" fill="#491213"></path>
    <path d="M87.9394 70.5875L92.0043 64.1161L95.97 70.5875L92.0043 77.0589L87.9394 70.5875Z" fill="#23A9E1"></path>
    <path d="M64.9384 32.1576C65.4341 32.755 65.8307 33.4519 65.7315 34.2484C65.6324 34.8457 64.8392 35.8413 65.4341 36.0404C66.1281 35.1444 66.9212 34.1488 67.6152 33.2528C67.0204 33.0537 62.2615 27.4783 62.2615 26.7814C61.171 27.3788 60.1795 27.9761 59.089 28.4739C59.2873 29.1709 60.3778 28.4739 60.9727 28.4739C61.7658 28.5735 62.3607 29.0713 62.9555 29.6687C61.2701 31.0625 57.1061 34.6466 56.6104 34.7462C56.4121 34.7462 55.5198 34.1488 55.5198 34.6466C55.5198 34.9453 56.4121 35.6422 56.5113 35.8413C57.2053 36.7374 57.9984 37.6334 58.6924 38.5294C59.2873 38.2307 58.5933 37.8325 58.8907 37.3347C59.1881 36.9365 63.7487 33.0537 64.9384 32.1576Z" fill="white"></path>
    <path d="M59.6838 25.1885C60.0804 25.0889 60.2787 25.5867 60.6752 25.0889C59.8821 24.0933 59.089 23.1973 58.2958 22.2017C57.8992 21.8035 57.5027 21.3057 57.6018 22.2017C57.701 22.7991 51.5541 27.8766 51.1576 27.9761C50.6618 28.1753 50.3644 27.5779 50.067 28.0757C50.761 28.9717 51.5541 29.7682 52.2481 30.6642C52.4464 30.9629 52.7438 31.2616 52.9421 31.5603C53.2395 31.859 53.1404 30.8634 53.1404 30.9629C53.0413 30.4651 53.6361 30.0669 54.0327 29.7682C55.5198 28.4739 59.2872 25.1885 59.6838 25.1885Z" fill="white"></path>
    <path d="M50.9593 24.2925C49.1747 24.7903 47.291 24.0933 46.7953 22.3013C46.2996 20.5092 47.3901 18.518 48.8773 17.5224C50.2653 16.5268 52.4464 16.5268 53.2396 18.3189C53.537 19.1154 53.4378 20.0114 53.1404 20.8079C52.9421 21.3057 52.5456 21.8035 53.2396 22.1022C54.1318 21.007 54.925 19.9118 55.8173 18.8167C54.7267 18.2193 54.3301 17.1242 53.537 16.2282C52.6447 15.133 51.455 14.1374 50.067 13.9383C47.1919 13.5401 44.515 16.5268 44.3167 19.1154C44.2176 20.6088 44.7133 21.903 45.5064 23.0977C46.2996 24.0933 47.3901 24.6907 47.8859 25.8854C48.1833 25.985 50.5627 24.8898 51.1576 24.5911C51.0584 24.4916 51.0584 24.392 50.9593 24.2925C50.9593 24.2925 50.2653 24.4916 50.9593 24.2925Z" fill="white"></path>
    <path d="M89.9223 60.532C88.7326 59.7355 85.9566 55.8527 85.3617 55.2554C85.2626 55.1558 85.1635 54.9567 85.0643 54.8571C85.0643 54.8571 84.7669 55.0563 84.866 55.0563C84.6677 55.1558 84.9652 55.6536 84.7669 55.9523C83.9737 57.147 79.0166 60.9303 78.8183 61.1294C78.2235 61.5276 77.6286 60.9303 77.3312 61.4281C78.0252 62.3241 80.1072 64.9126 80.3055 65.0122C80.8012 65.1117 80.4046 64.2157 80.5037 64.0166C80.6029 63.6184 83.0815 61.6272 83.9737 60.8307C84.2712 60.532 84.6677 61.2289 84.866 61.5276C85.1634 62.0254 85.3617 62.5232 85.1635 63.1206C85.0643 63.5188 84.4695 64.0166 84.866 64.3153C85.4609 63.6184 87.2454 61.5276 87.4437 61.3285C87.7412 61.0298 86.8489 61.3285 86.948 61.2289C86.5514 61.4281 86.254 61.4281 85.8574 61.2289C85.7583 61.1294 84.7669 60.1338 84.866 60.0342C85.2626 59.636 85.8574 59.0386 86.3532 58.9391C87.2454 58.74 87.9394 60.4325 88.0386 61.0298C88.1377 61.6272 88.1377 62.2245 87.9394 62.8219C87.8403 63.2201 87.4437 63.5188 87.9394 63.7179C88.6334 62.7223 89.3274 61.8263 90.0214 60.8307C90.2197 60.6316 90.0214 60.532 89.9223 60.532C90.1206 60.532 89.8231 60.4325 89.9223 60.532Z" fill="white"></path>
    <path d="M79.8098 56.3505C81.9909 54.4589 82.2883 51.273 80.6029 49.0827C78.7192 46.5937 75.2492 45.9964 72.8698 47.9876C70.6886 49.8792 70.3912 52.9655 72.0766 55.2554C74.0595 57.9435 77.2321 58.2422 79.8098 56.3505C79.7106 56.4501 80.9995 55.4545 79.8098 56.3505ZM79.314 51.6712C78.7192 53.1646 77.1329 54.7576 75.6458 55.3549C73.8612 56.0519 72.5724 54.5585 73.2664 52.7664C73.9603 51.273 75.4475 49.6801 76.9346 49.0827C78.8183 48.3858 80.008 49.9787 79.314 51.6712C79.4132 51.4721 78.9175 52.5673 79.314 51.6712Z" fill="white"></path>
    <path d="M73.4646 41.8149C73.9603 41.9144 74.3569 42.3127 74.7535 41.8149C74.0595 40.9188 73.2663 40.0228 72.5723 39.2263C71.9775 39.525 72.5724 39.7241 72.3741 40.2219C72.1758 40.6202 69.7964 41.0184 69.2015 41.118C69.3998 40.5206 70.0938 38.5294 70.3912 38.3303C70.8869 37.9321 71.2835 38.7285 71.6801 38.2307C70.7878 37.1356 69.8955 36.0404 69.0032 34.9453C68.7058 34.5471 68.4084 33.9497 68.0118 34.2484C68.0118 34.2484 68.0118 35.7418 67.9127 35.9409C67.8135 36.14 67.0204 39.525 66.0289 40.421C65.5332 40.8193 63.8478 42.3127 63.3521 42.5118C62.8564 42.7109 62.559 41.9144 62.1624 42.5118C62.9555 43.5074 63.8478 44.503 64.6409 45.4986C64.7401 45.5981 65.2358 46.3946 65.4341 46.3946C65.9298 46.4942 65.5332 45.4986 65.5332 45.2995C65.7315 44.9012 68.0118 42.6114 69.0032 42.4122C70.1929 42.2131 71.9775 41.7153 73.4646 41.8149C73.0681 41.8149 73.7621 41.9144 73.4646 41.8149Z" fill="white"></path>
    <path d="M67.2187 22.7991C63.253 22.5999 64.8392 18.8167 67.6152 18.0202C70.1929 17.2237 75.6458 19.7127 77.3312 21.4052C74.5552 22.3013 70.9861 22.1022 68.0118 22.3013C67.8135 19.1154 67.0204 20.2105 67.2187 22.7991Z" fill="#DC6243"></path>
    <path d="M76.6372 35.244C68.1109 35.1444 73.8612 22.0026 76.7363 22.7991C80.1072 23.8942 79.7106 35.3435 76.6372 35.244Z" fill="#DC6243"></path>
    <path d="M82.6849 30.9629C81.8918 33.4519 80.3055 33.9497 80.5038 30.8634C80.702 27.3788 82.9823 28.1753 85.3617 26.881C87.3446 25.7858 88.4352 21.7039 91.9052 24.0933C93.4914 25.1885 95.276 24.2925 95.7717 25.8854C95.7717 25.7858 91.3103 36.14 93.7889 36.14C88.8317 36.14 91.0129 30.266 92.8966 26.2836C91.112 27.1797 88.1377 32.9541 90.5172 33.8501C89.2283 35.5426 85.3617 37.733 83.3789 36.14C81.8917 35.0449 82.6849 32.9541 82.6849 30.9629Z" fill="#DC6243"></path>
    <path d="M86.7497 40.5206C83.2797 41.5162 78.7192 39.3259 84.2712 38.2307C87.7412 37.5338 91.4094 38.9277 86.7497 40.5206C86.6506 40.5206 86.8489 40.5206 86.7497 40.5206Z" fill="#DC6243"></path>
    <path d="M91.112 40.421C90.418 38.7285 91.7068 36.8369 93.7888 38.2307C95.5734 39.4255 92.8966 41.3171 91.112 40.421Z" fill="#DC6243"></path>
    <path d="M88.1377 45.0008C85.7583 44.3039 77.7278 44.4034 82.9823 42.2131C84.6677 41.6158 93.0949 42.4122 88.1377 45.0008Z" fill="#DC6243"></path>
    <path d="M98.5477 48.2862C97.1597 47.0915 95.6725 46.992 94.3837 48.2862C92.5991 45.0008 86.1549 46.0959 83.0815 45.5981C84.6677 49.6801 97.7545 50.4765 98.5477 48.2862Z" fill="#DC6243"></path>
    <path d="M96.664 50.7752C93.4914 50.6757 90.0214 50.1779 87.1463 50.8748C89.03 51.3726 93.4914 52.6668 89.3274 53.762C90.8146 55.9523 93.2931 55.7532 94.8794 53.8615C94.1854 53.5629 93.888 53.1646 93.2931 52.7664C94.8794 52.4677 96.4657 51.5717 96.664 50.7752Z" fill="#DC6243"></path>
    <path d="M100.233 46.8924C94.9786 43.8061 96.2674 41.5162 100.63 39.3259C102.91 38.2307 107.867 34.1488 109.949 35.4431C106.677 39.3259 103.406 43.1092 100.233 46.8924Z" fill="#DC6243"></path>
    <path d="M96.4657 39.6246C92.0043 35.0449 103.108 35.4431 104.893 33.8501C106.182 34.2484 115.6 25.5867 117.88 26.1841C116.195 28.0757 112.725 34.2484 110.147 34.2484C108.165 34.2484 106.182 33.9497 104.695 35.3435C102.513 37.4343 98.8451 38.4299 96.4657 39.6246Z" fill="#F49774"></path>
    <path d="M97.9529 34.0493C95.4743 35.3435 93.194 30.1664 97.4571 30.6642C100.233 30.9629 103.108 30.4651 105.686 30.8634C103.703 33.1532 101.026 34.4475 97.9529 34.0493Z" fill="#F4B1A4"></path>
    <path d="M110.445 52.2686C110.643 52.866 110.742 53.5629 110.643 54.2598C110.544 55.1558 109.652 57.147 108.462 56.5496C107.272 55.9523 106.281 54.8571 105.289 53.9611C106.083 53.0651 106.777 52.2686 108.165 52.6668C108.561 52.7664 108.859 52.6668 108.462 52.3682C108.065 52.169 105.389 50.377 105.19 50.5761C104.893 50.8748 105.686 51.4721 105.389 52.0695C105.19 52.4677 104.794 52.866 104.496 53.2642C103.802 52.6668 102.613 51.9699 103.406 50.9743C103.901 50.2774 104.695 49.7796 105.488 49.6801C106.083 49.5805 107.272 50.0783 107.471 49.4809C106.38 48.9831 105.289 48.4853 104.199 47.888C104.397 48.6845 100.927 52.3682 100.134 53.3638C100.035 53.4633 99.44 53.9611 99.44 54.1602C99.44 54.5585 100.035 54.2598 100.134 54.2598C100.63 54.0607 106.876 59.3373 107.074 59.7355C107.173 60.0342 106.876 60.3329 107.074 60.4325C107.074 60.4325 107.272 60.6316 107.371 60.6316C107.768 60.1338 111.833 54.658 112.725 54.4589C111.932 53.2642 111.139 52.0695 110.346 50.7752C109.751 51.0739 110.346 51.7708 110.445 52.2686Z" fill="white"></path>
    <path d="M104.298 58.9391C102.216 57.6448 98.746 60.2333 98.2503 60.4325C97.2588 60.9303 96.4657 59.9347 96.9614 58.9391C97.4571 58.1426 98.3494 57.7444 99.2417 57.6448C99.5391 57.6448 100.531 57.8439 100.729 57.6448C100.828 57.4457 100.927 57.4457 100.729 57.3461C99.8366 56.7488 99.0434 56.1514 98.1511 55.6536C97.9528 56.7488 96.7631 57.3461 96.0691 58.043C95.276 58.9391 94.582 59.9347 94.582 61.2289C94.582 62.3241 95.276 63.3197 96.2674 63.917C97.358 64.5144 98.5477 64.0166 99.5391 63.4192C100.134 63.021 100.828 62.5232 101.423 62.2245C102.414 61.7267 103.703 62.125 103.406 63.5188C103.108 64.6139 102.018 65.6095 101.026 65.8087C100.431 66.0078 99.7374 65.9082 99.1426 65.7091C98.746 65.6095 98.1511 65.0122 97.9528 65.6095C99.1426 66.406 100.233 67.302 101.423 68.0985C101.522 67.302 101.919 67.0034 102.513 66.5056C103.207 65.9082 103.901 65.2113 104.496 64.4148C105.686 62.7223 106.083 60.3329 104.298 58.9391Z" fill="white"></path>
    <path d="M104.298 58.9391C105.289 59.5364 103.703 58.4413 104.298 58.9391V58.9391Z" fill="white"></path>
    <path d="M140.683 19.5136C139.989 20.2105 132.355 17.2237 131.76 16.726C131.463 16.6264 131.463 15.4317 131.066 15.9295C130.67 16.4273 130.273 16.9251 129.877 17.4229C129.48 17.9207 129.084 18.4185 128.588 18.9163C128.29 19.2149 128.092 19.4141 128.588 19.6132C129.381 19.2149 133.942 26.881 133.545 28.0757C132.851 28.4739 126.704 22.9982 126.506 22.6995C126.407 22.5999 126.803 21.7039 126.308 21.8035C126.109 21.8035 125.614 22.6995 125.415 22.8986C125.118 23.2969 124.82 23.5955 124.523 23.9938C124.82 24.4916 125.019 23.9938 125.514 23.9938C125.911 24.0933 127.299 25.288 127.696 25.6863C127.002 25.6863 125.019 25.7858 124.82 25.7858C123.928 25.8854 124.424 25.0889 123.829 24.8898C123.036 25.7858 122.342 26.6819 121.549 27.6775C121.152 28.1753 120.656 28.7726 120.26 29.2704C120.161 29.37 120.26 29.2704 120.26 29.37C120.557 29.6687 120.359 29.5691 120.855 29.37C121.35 29.1709 127.398 34.2484 127.596 34.5471C127.993 34.9453 127.398 35.5426 127.993 35.7418C128.588 35.0449 129.183 34.2484 129.778 33.5515C129.877 33.4519 129.877 33.4519 129.778 33.3523C129.381 32.9541 129.282 33.5515 128.786 33.5515C128.29 33.4519 124.424 30.1664 122.937 28.9717C124.721 28.8722 130.174 28.6731 131.066 28.6731C131.364 28.6731 132.157 29.5691 132.157 29.8678C132.058 30.266 131.661 30.4651 132.256 30.6642C132.752 30.0669 133.248 29.5691 133.743 28.9717L133.942 28.6731C134.041 28.5735 134.041 28.5735 134.14 28.3744L134.338 28.1753C134.735 27.6775 136.123 26.1841 135.924 26.0845C135.429 25.6863 135.23 26.5823 134.636 25.985C134.338 25.7858 133.446 24.1929 133.248 23.7947C132.95 23.3964 133.842 22.8986 134.239 22.6995C135.032 22.2017 137.412 21.5048 137.709 22.9982C137.709 23.2969 137.412 23.496 137.61 23.6951C137.61 23.6951 137.808 23.8942 137.907 23.8942C138.106 23.6951 140.287 21.1066 141.179 19.9118C140.882 19.7127 140.782 19.6132 140.683 19.5136ZM133.347 21.7039C133.446 21.7039 133.545 21.6044 133.347 21.7039C133.049 21.903 132.653 22.2017 132.355 22.5004C131.86 21.6044 131.364 20.7083 130.769 19.8123C131.959 20.3101 133.148 20.8079 134.239 21.3057C134.041 21.4052 133.743 21.5048 133.347 21.7039Z" fill="white"></path>
    <path d="M123.73 32.8545C121.35 30.8634 118.178 31.4607 116.195 33.651C114.311 35.9409 114.51 39.3259 116.79 41.2175C119.07 43.1092 122.441 42.6114 124.325 40.4211C126.208 38.1312 126.109 34.7462 123.73 32.8545ZM123.432 39.4255C123.432 39.4255 123.432 39.525 123.432 39.4255C122.144 40.7197 120.062 39.525 118.971 38.7285C117.88 37.9321 115.898 36.14 117.087 34.6466C118.178 33.3523 120.161 34.4475 121.251 35.1444C122.441 35.9409 124.622 37.733 123.532 39.3259C123.631 39.2263 123.631 39.2263 123.432 39.4255Z" fill="white"></path>
    <path d="M123.73 32.8546C124.92 33.8501 123.432 32.6554 123.73 32.8546V32.8546Z" fill="white"></path>
    <path d="M123.432 39.5255C123.432 39.4255 123.432 39.4255 123.432 39.5255C123.532 39.4255 123.532 39.4255 123.532 39.4255C123.432 39.4255 123.432 39.5255 123.432 39.5255Z" fill="white"></path>
    <path d="M117.186 41.9144C117.286 42.014 117.484 42.2131 117.186 41.9144C114.311 39.7241 110.941 40.3215 108.759 43.0096C107.768 44.2043 106.777 45.399 105.785 46.5937C106.182 47.0915 106.578 46.4942 107.074 46.7928C107.471 47.0915 113.221 51.8704 113.32 52.169C113.518 52.6668 113.023 52.6668 113.419 53.0651C113.617 53.1646 117.88 47.888 118.277 46.8924C119.169 45.1003 118.574 43.2087 117.186 41.9144ZM115.898 48.6845C115.699 48.9832 115.898 48.784 115.204 49.3814C114.906 49.6801 108.859 44.7021 109.057 44.503C109.85 43.607 111.635 42.91 112.626 43.2087C114.807 43.7065 117.781 46.3946 115.898 48.6845Z" fill="white"></path>
  </symbol>
  <symbol fill="none" xmlns="http://www.w3.org/2000/svg" viewBox="0 0 468 89" id="sedona">
    <g filter="url(#filter0_d_1335_41)">
      <path d="M48.5 22.5999C44.9 19.5999 40.4 17.5999 35.6 17.5999C32 17.5999 27.2999 19.6999 27.2999 23.8999C27.2999 28.2999 32.6 29.9999 35.9 30.9999L40.9 32.4999C51.3 35.5999 59.4 40.7999 59.4 52.8999C59.4 60.2999 57.6 67.9999 51.7 72.9999C45.8 77.9999 38 79.9999 30.5 79.9999C21.1 79.9999 11.8 76.7999 4.19995 71.4999L12.3 55.9999C17.2 60.2999 22.9 63.6999 29.6 63.6999C34.2 63.6999 39 61.3999 39 56.1999C39 50.6999 31.4 48.8999 27.2 47.6999C15 44.0999 6.99995 40.9999 6.99995 26.4999C6.99995 11.2999 17.7999 1.3999 32.7999 1.3999C40.2999 1.3999 49.6 3.79991 56.2 7.59991L48.5 22.5999Z" fill="white"></path>
      <path d="M95.7999 19.7999V32.2999H117.7V48.7999H95.7999V61.6999H119V78.1999H76.3999V3.3999H119V19.8999L95.7999 19.7999Z" fill="white"></path>
      <path d="M133.4 3.3999H161C181.8 3.3999 199 19.7999 199 40.7999C199 61.7999 181.7 78.1999 161 78.1999H133.4V3.3999ZM152.9 61.6999H157.3C168.9 61.6999 178.8 55.2999 178.8 40.7999C178.8 27.3999 170 19.8999 157.5 19.8999H152.9V61.6999Z" fill="white"></path>
      <path d="M290.9 39.3999C290.9 63.5999 273.5 80.6999 249.5 80.6999C225.5 80.6999 208.1 63.5999 208.1 39.3999C208.1 16.7999 228 0.899902 249.5 0.899902C271 0.899902 290.9 16.7999 290.9 39.3999ZM228.3 39.4999C228.3 52.3999 237.8 61.7999 249.4 61.7999C261 61.7999 270.5 52.3999 270.5 39.4999C270.5 29.1999 261 19.6999 249.4 19.6999C237.9 19.6999 228.3 29.1999 228.3 39.4999Z" fill="white"></path>
      <path d="M301.2 3.3999H320.7L356.3 49.1999H356.5V3.3999H376V78.1999H356.5L320.9 32.2999H320.7V78.1999H301.2V3.3999Z" fill="white"></path>
      <path d="M411.3 65.1999L406.1 78.1999H385.5L414.3 3.3999H435.5L463.7 78.1999H443L438.1 65.1999H411.3ZM424.9 26.4999H424.7L416.7 50.2999H432.9L424.9 26.4999Z" fill="white"></path>
    </g>
    <defs>
      <filter id="filter0_d_1335_41" x="0.199951" y="0.899902" width="467.5" height="87.8" filterUnits="userSpaceOnUse" color-interpolation-filters="sRGB">
        <feFlood flood-opacity="0" result="BackgroundImageFix"></feFlood>
        <feColorMatrix in="SourceAlpha" type="matrix" values="0 0 0 0 0 0 0 0 0 0 0 0 0 0 0 0 0 0 127 0" result="hardAlpha"></feColorMatrix>
        <feOffset dy="4"></feOffset>
        <feGaussianBlur stdDeviation="2"></feGaussianBlur>
        <feComposite in2="hardAlpha" operator="out"></feComposite>
        <feColorMatrix type="matrix" values="0 0 0 0 0 0 0 0 0 0 0 0 0 0 0 0 0 0 0.25 0"></feColorMatrix>
        <feBlend mode="normal" in2="BackgroundImageFix" result="effect1_dropShadow_1335_41"></feBlend>
        <feBlend mode="normal" in="SourceGraphic" in2="effect1_dropShadow_1335_41" result="shape"></feBlend>
      </filter>
    </defs>
  </symbol>
  <symbol fill="none" xmlns="http://www.w3.org/2000/svg" viewBox="0 0 22 18" id="tg21x18">
    <path d="M21.4393 1.62225L18.2705 16.566C18.0313 17.6205 17.408 17.883 16.5223 17.3865L11.6938 13.8285L9.36425 16.0695C9.10626 16.3275 8.891 16.5428 8.39375 16.5428L8.741 11.6258L17.6893 3.54C18.0785 3.1935 17.6045 3.00075 17.0848 3.348L6.02225 10.314L1.25976 8.823C0.224006 8.49975 0.205256 7.78725 1.47576 7.29L20.1035 0.113253C20.966 -0.209997 21.7205 0.305253 21.4393 1.623V1.62225Z" fill="white"></path>
  </symbol>
  <symbol fill="none" xmlns="http://www.w3.org/2000/svg" viewBox="0 0 24 14" id="vk24x14">
    <path fill-rule="evenodd" clip-rule="evenodd" d="M23.45 0.948C23.616 0.402 23.45 0 22.655 0H20.03C19.362 0 19.054 0.347 18.887 0.73C18.887 0.73 17.552 3.926 15.661 6.002C15.049 6.604 14.771 6.795 14.437 6.795C14.27 6.795 14.019 6.604 14.019 6.057V0.948C14.019 0.292 13.835 0 13.279 0H9.151C8.734 0 8.483 0.304 8.483 0.593C8.483 1.214 9.429 1.358 9.526 3.106V6.904C9.526 7.737 9.373 7.888 9.039 7.888C8.149 7.888 5.984 4.677 4.699 1.003C4.45 0.288 4.198 0 3.527 0H0.9C0.15 0 0 0.347 0 0.73C0 1.412 0.89 4.8 4.145 9.281C6.315 12.341 9.37 14 12.153 14C13.822 14 14.028 13.632 14.028 12.997V10.684C14.028 9.947 14.186 9.8 14.715 9.8C15.105 9.8 15.772 9.992 17.33 11.467C19.11 13.216 19.403 14 20.405 14H23.03C23.78 14 24.156 13.632 23.94 12.904C23.702 12.18 22.852 11.129 21.725 9.882C21.113 9.172 20.195 8.407 19.916 8.024C19.527 7.533 19.638 7.314 19.916 6.877C19.916 6.877 23.116 2.451 23.449 0.948H23.45Z" fill="white"></path>
  </symbol>
  <symbol fill="none" xmlns="http://www.w3.org/2000/svg" viewBox="0 0 20 14" id="youtube20x14">
    <path d="M17.1813 0H2.81331C1.30618 0 0 1.3 0 2.8V11.1C0 12.7 1.30618 14 2.81331 14H17.1813C18.7889 14 19.9946 12.7 19.9946 11.2V2.8C20.095 1.3 18.7889 0 17.1813 0ZM7.03326 10.4V3.6L13.8656 7L7.03326 10.4Z" fill="white"></path>
  </symbol>
  <symbol fill="none" xmlns="http://www.w3.org/2000/svg" viewBox="0 0 27 35" id="academylogo27x34">
    <path d="M13.6 0H13.5L0 1.4V26.1L13.5 34.1L26.9 26.1V1.4L13.6 0ZM25 12.1L13.5 5.3V5.2H13.4L13.3 5.1V5.2L1.9 12.1V3.1L13.4 1.9L25 3.1V12.1ZM13.4 6.8L24.9 13.5L20.4 16.1L13.3 11.9V13.3L19.2 16.8L18.3 17.3L13.3 14.3V15.7L17.1 18L16.3 18.5L13.3 16.7V18.1L15.2 19.2L13.4 20.3L2 13.6L13.4 6.8ZM1.9 15.1L13.3 21.9V22.9L5.4 18.2V19.6L13.4 24.4V25.5L5.4 20.8V22.2L13.4 27L21.5 22.1V16.9L24.9 14.9V24.9L13.4 31.8L1.9 25V15.1Z" fill="black"></path>
  </symbol>
</svg>
