<svg width="181" height="214" viewBox="0 0 181 214" fill="none" xmlns="http://www.w3.org/2000/svg">
<path d="M56.385 42.8044L56.2623 42.9267C55.4031 43.844 54.4211 44.272 53.5006 44.272L55.219 41.2757C56.3236 39.3801 55.2803 37.5456 53.5619 37.5456C52.1504 37.5456 51.0457 38.096 50.0024 39.9304L49.0819 41.5203L48.3454 42.8044L48.2227 42.9267C46.8725 44.4555 45.5837 45.6785 44.7859 45.6785C44.3563 45.6785 44.1722 45.3727 44.6018 44.7001L48.5295 37.8514H50.0024L50.5548 36.9953H49.0205L50.7389 33.999H48.8977L47.1793 36.9953H45.5223L44.97 37.8514H46.627L42.9447 44.2109C42.1469 45.5562 42.6993 46.8403 44.1722 46.8403C45.2155 46.8403 46.4429 46.0454 47.5476 44.9447C47.5476 47.2683 50.8002 47.7575 52.7641 45.2504H53.1937C54.2984 45.2504 56.0168 44.5778 56.9374 43.4771C56.9374 43.1713 56.6305 42.9267 56.385 42.8044ZM52.4573 42.9267H52.3959C51.7822 42.9267 51.2912 43.4159 51.2912 44.0274C51.2912 44.272 51.3526 44.4555 51.4753 44.6389V44.7001C50.6161 46.1677 48.5295 45.9231 49.5728 43.9663L50.9844 41.5815L51.8436 40.1139C53.1323 37.9125 54.9121 38.7686 53.8074 40.6642L52.4573 42.9267Z" fill="#766458"/>
<path d="M81.854 42.8042L81.7312 42.9265C80.3811 44.4552 78.7241 45.6782 77.4353 45.6782C76.3306 45.6782 75.6555 44.9444 76.4533 43.4768L76.6374 43.1711C77.8035 43.6603 80.0742 43.4157 81.4244 41.0309L81.6699 40.6028C82.6518 38.8907 81.7312 37.6677 80.197 37.6677C78.7241 37.6677 77.558 38.4626 76.7602 39.8079L74.9804 42.8654L74.8577 42.9877C73.5075 44.5164 72.2187 45.7394 71.4209 45.7394C70.9913 45.7394 70.8072 45.4336 71.2368 44.761L73.8757 40.1136C74.6736 38.7072 73.9371 37.7288 72.8938 37.7288C72.096 37.7288 71.2368 38.1569 70.3162 39.1353L73.262 34.0599H71.4209L66.3271 42.8042L66.2044 42.9265C64.8542 44.4552 63.5654 45.6782 62.7676 45.6782C62.338 45.6782 62.1539 45.3725 62.5835 44.6998L66.5112 37.8511H67.9841L68.5365 36.995H67.0022L68.7206 33.9987H66.8794L65.1611 36.995H63.504L62.9517 37.8511H64.6087L60.9265 44.2106C60.1286 45.5559 60.681 46.8401 62.1539 46.8401C62.8903 46.8401 63.6882 46.4732 64.486 45.8617L63.995 46.6566H65.8361L68.5978 41.8258C71.4209 38.2792 72.6483 38.7684 71.9119 40.1136L69.5184 44.2718C68.7206 45.6171 69.2729 46.9012 70.7458 46.9012C71.8505 46.9012 73.0779 46.0451 74.1826 44.9444C74.244 46.1063 75.2259 46.9012 76.6988 46.9012C78.7854 46.9012 80.872 45.3113 82.3449 43.538C82.4063 43.1711 82.0995 42.9265 81.854 42.8042ZM78.3558 40.2359C79.3991 38.4015 81.3016 38.7072 80.197 40.6028L79.9515 41.0309C79.0923 42.4985 77.8649 42.4985 77.1898 42.2539L78.3558 40.2359Z" fill="#766458"/>
<path d="M148.81 42.8044L148.687 42.9267C148.012 43.7217 147.214 44.3943 146.478 44.9446C147.091 43.1713 146.907 40.5419 148.073 38.1571L146.723 37.4233C145.987 38.4628 144.33 40.8476 142.611 42.8044L142.488 42.9267C141.138 44.4554 139.849 45.6784 139.052 45.6784C138.622 45.6784 138.438 45.3727 138.868 44.7L142.795 37.8513H140.954L137.701 43.5382C136.29 44.8223 135.247 45.495 134.878 45.3727C134.449 45.1892 134.878 44.5166 135.124 44.0886L138.683 37.8513H136.842L133.958 42.8044L133.835 42.9267C132.976 43.844 131.994 44.272 131.073 44.272L132.792 41.2757C133.896 39.3801 132.853 37.5456 131.135 37.5456C129.723 37.5456 128.619 38.0959 127.575 39.9304L126.655 41.5203L125.918 42.8044L125.796 42.9267C124.445 44.4554 122.788 45.6784 121.5 45.6784C120.395 45.6784 119.72 44.9446 120.518 43.4771L120.702 43.1713C121.868 43.6605 124.138 43.4159 125.489 41.0311L125.734 40.6031C126.716 38.8909 125.796 37.6679 124.261 37.6679C122.788 37.6679 121.622 38.4628 120.824 39.8081L119.045 42.8656L118.922 42.9879C117.388 44.7612 116.099 45.8619 114.626 46.4734L118.738 39.4412H117.633C117.633 38.7074 116.835 37.6679 115.731 37.6679C114.749 37.6679 113.337 38.4628 112.601 39.8081L110.821 42.8656L110.698 42.9879C109.348 44.5166 108.059 45.7396 107.261 45.7396C106.832 45.7396 106.648 45.4338 107.077 44.7612L108.918 41.5814C109.532 40.4808 109.225 39.8081 108.673 39.0743L107.63 37.8513C107.384 37.5456 107.384 37.1175 107.752 36.8118L106.77 35.7723C105.727 36.6895 105.666 37.729 106.28 38.5851L106.464 38.7686C105.666 39.9304 104.561 41.4591 103.334 42.8656L103.211 42.9879C102.352 43.9051 101.37 44.3332 100.449 44.3332L102.168 41.3368C103.272 39.4412 102.229 37.6067 100.511 37.6067C99.0991 37.6067 97.9944 38.1571 96.9511 39.9916L96.0306 41.5814L95.2941 42.8656L95.1714 42.9879C93.6371 44.7612 92.3483 45.8619 90.8754 46.4734L94.9872 39.4412H93.8826C93.8826 38.7074 93.0847 37.6679 91.9801 37.6679C90.9981 37.6679 89.5866 38.4628 88.8501 39.8081L86.2726 44.272C85.4747 45.6173 86.0271 46.9014 87.5 46.9014C87.9909 46.9014 88.6047 46.6568 89.2797 46.2899L88.7888 47.146C86.3339 47.8798 84.7383 48.9193 84.7383 50.2646C84.7383 52.038 87.4386 52.4048 88.7888 50.1423L90.2003 47.7575C91.6732 47.3295 93.0847 46.4122 94.619 45.0058C94.619 47.3295 97.8717 47.8187 99.8356 45.3115H100.265C101.37 45.3115 103.088 44.6389 104.009 43.5382C104.868 42.4987 105.604 41.5814 107.077 39.6247L107.323 39.9304C107.568 40.2362 107.63 40.6031 107.446 40.9699L105.482 44.3332C104.684 45.6784 105.236 46.9626 106.709 46.9626C107.63 46.9626 108.673 46.3511 109.655 45.495C109.655 46.3511 110.207 46.9626 111.251 46.9626C111.742 46.9626 112.355 46.718 113.03 46.3511L112.601 47.0849C110.146 47.8187 108.55 48.8582 108.55 50.2035C108.55 51.9768 111.251 52.3437 112.601 50.0812L114.012 47.6964C115.485 47.2072 116.958 46.3511 118.492 44.8835C118.554 46.0453 119.474 46.8403 121.009 46.8403C122.481 46.8403 124.016 45.9842 125.243 44.8835C125.182 47.2683 128.496 47.7575 130.46 45.2504H130.889C131.442 45.2504 132.239 45.0669 132.915 44.7C132.424 45.9842 132.853 46.8403 133.896 46.8403C134.878 46.8403 136.044 45.923 136.904 45.0669C136.72 46.0453 137.333 46.8403 138.499 46.8403C140.034 46.8403 141.752 45.2504 143.286 43.4771C144.33 42.2541 145.25 40.9699 145.925 40.1139C145.189 42.0095 145.618 45.4338 143.839 45.4338C143.225 45.4338 142.979 44.7612 142.979 44.7612L141.813 45.3727C141.813 45.3727 142.12 46.8403 143.839 46.8403C144.023 46.8403 144.145 46.8403 144.33 46.7791H144.391C146.293 46.5345 148.135 45.0669 149.485 43.4771C149.423 43.1713 149.117 42.8656 148.81 42.8044ZM122.481 40.2362C123.525 38.4017 125.427 38.7074 124.323 40.6031L124.077 41.0311C123.218 42.4987 121.991 42.4987 121.315 42.2541L122.481 40.2362ZM87.3772 49.7754C87.009 50.4481 86.3953 50.3869 86.3953 49.8366C86.3953 49.3474 86.8249 48.797 88.2364 48.2467L87.3772 49.7754ZM88.2364 45.6784C87.8068 45.6784 87.6227 45.3727 88.0523 44.7L90.6299 40.2362C91.6118 38.524 93.5757 38.952 92.6551 40.6031L91.2436 43.049C90.1389 44.8223 88.9729 45.6784 88.2364 45.6784ZM99.5287 42.9267H99.4673C98.8536 42.9267 98.3627 43.4159 98.3627 44.0274C98.3627 44.272 98.424 44.4555 98.5468 44.6389V44.7C97.6876 46.1676 95.601 45.923 96.6443 43.9663L98.0558 41.5814L98.915 40.1139C100.204 37.9125 101.984 38.7686 100.879 40.6642L99.5287 42.9267ZM111.066 49.7754C110.698 50.4481 110.085 50.3869 110.085 49.8366C110.085 49.3474 110.514 48.797 111.926 48.2467L111.066 49.7754ZM111.926 45.6784C111.496 45.6784 111.312 45.3727 111.742 44.7L114.319 40.2362C115.301 38.524 117.265 38.952 116.344 40.6031L114.933 43.049C113.828 44.8223 112.662 45.6784 111.926 45.6784ZM130.03 42.9267H129.969C129.355 42.9267 128.864 43.4159 128.864 44.0274C128.864 44.272 128.925 44.4555 129.048 44.6389V44.7C128.189 46.1676 126.102 45.923 127.146 43.9663L128.557 41.5814L129.416 40.1139C130.705 37.9125 132.485 38.7686 131.38 40.6642L130.03 42.9267Z" fill="#766458"/>
<path d="M34.8437 40.8469H17.1074V42.0699H34.8437V40.8469Z" fill="#766458"/>
<path d="M174.156 40.8469H156.42V42.0699H174.156V40.8469Z" fill="#766458"/>
<path d="M55.0349 0H59.7605L59.024 27.456H50.1252L48.8978 16.1434L47.6704 27.456H38.7102L38.0351 0H42.6993L43.0675 22.7475H43.5585L46.5657 0H51.2299L54.2371 22.7475H54.728L55.0349 0Z" fill="#81B3D3"/>
<path d="M74.5508 22.7475V27.5171H61.7243V0H74.5508V4.70849H66.3885V11.3126H72.8938V16.0211H66.3885V22.6864H74.5508V22.7475Z" fill="#81B3D3"/>
<path d="M87.6842 22.7475V27.5171H76.4533V0H81.1175V22.7475H87.6842Z" fill="#81B3D3"/>
<path d="M97.6263 17.3664L102.352 16.2657V24.582C102.352 26.1719 101.002 27.456 99.4675 27.456H92.4098C90.8141 27.456 89.5253 26.1107 89.5253 24.582V2.87401C89.5253 1.28413 90.8141 0 92.4098 0H99.4675C101.002 0 102.352 1.28413 102.352 2.87401V8.43859L97.6263 9.53928V4.64734H94.2509V22.6864H97.6263V17.3664Z" fill="#81B3D3"/>
<path d="M115.117 0C116.651 0 118.001 1.28413 118.001 2.87401V24.5208C118.001 26.1107 116.651 27.3948 115.117 27.3948H108.059C106.464 27.3948 105.175 26.0496 105.175 24.5208V2.87401C105.175 1.28413 106.464 0 108.059 0H115.117ZM113.276 4.70849H109.901V22.7475H113.276V4.70849Z" fill="#81B3D3"/>
<path d="M133.344 0H138.009V27.456H133.344V13.942L131.442 20.913H126.839L124.998 13.942V27.456H120.334V0H124.998L129.171 13.2694L133.344 0Z" fill="#81B3D3"/>
<path d="M153.167 22.7475V27.5171H140.341V0H153.167V4.70849H145.005V11.3126H151.51V16.0211H145.005V22.6864H153.167V22.7475Z" fill="#81B3D3"/>
<path d="M21.2196 175.926C25.9451 174.336 26.252 168.466 21.6492 168.466C20.3604 168.466 18.8261 169.383 17.7828 171.156L11.5229 181.98C11.2161 182.469 10.9706 182.897 10.6024 183.325C9.00672 181.124 9.43632 177.821 11.707 176.354L10.7865 175.192C5.8768 178.311 7.3497 187.238 15.5121 187.238C22.447 187.238 25.6996 178.922 21.2196 175.926ZM15.4507 185.465C14.0391 185.465 12.9958 185.159 12.0753 184.67C12.5049 184.181 12.8731 183.631 13.2413 183.019L17.1691 176.232L17.7828 176.293C23.2448 177.455 21.0968 185.465 15.4507 185.465ZM17.9669 174.886L19.8694 171.645C21.5878 168.71 23.7358 170.422 22.5697 172.624C21.6492 174.336 20.3604 174.825 17.9669 174.886Z" fill="white"/>
<path d="M40.9196 183.448C40.5514 184.794 41.2878 185.955 42.8221 185.955C43.7427 185.955 44.9087 185.344 46.0748 184.427C46.1975 185.344 46.9339 185.955 48.1 185.955C49.3274 185.955 50.6776 185.099 52.0278 183.876C51.7823 185.099 52.3346 185.955 53.5007 185.955C54.7894 185.955 56.201 184.794 57.3057 183.754C57.0602 184.977 57.7966 185.955 59.2695 185.955C61.172 185.955 63.3814 183.876 65.3453 181.675C65.3453 181.614 65.2839 181.614 65.2839 181.553C66.5727 180.085 67.6774 178.495 68.5366 177.394C67.616 179.779 68.107 184.121 65.8976 184.121C65.0998 184.121 64.7929 183.265 64.7929 183.265L63.32 183.999C63.32 183.999 63.7496 185.894 65.8976 185.894C66.1431 185.894 66.3272 185.894 66.5727 185.833H66.6341C68.3525 185.588 70.0095 184.549 71.4824 183.265C71.5437 184.794 72.7098 185.894 74.6123 185.894C77.2513 185.894 79.8902 183.815 81.7927 181.614C81.6086 181.308 81.2404 180.941 80.9335 180.819L80.7494 181.002C79.0924 182.959 76.9444 184.488 75.2874 184.488C73.8758 184.488 73.0166 183.571 74.06 181.736L74.3054 181.308C75.7784 181.919 78.6014 181.614 80.3812 178.617L80.688 178.067C81.9155 175.927 80.7494 174.337 78.8469 174.337C76.9444 174.337 75.4715 175.315 74.4896 177.028L72.2188 180.88H72.1575L71.9733 181.063C71.1142 182.042 70.0708 182.959 69.1503 183.571C69.8867 181.369 69.7026 177.945 71.1755 175.01L69.4571 174.092C68.4752 175.438 66.3886 178.434 64.302 180.88L64.3633 180.941L64.302 181.063C62.6449 183.02 60.9879 184.549 59.9446 184.549C59.4536 184.549 59.1468 184.182 59.6991 183.265L64.6702 174.582H62.3381L58.2262 181.797C56.4465 183.387 55.0963 184.304 54.6667 184.121C54.1144 183.876 54.6667 183.02 54.9736 182.531L59.515 174.643H57.1829L53.5007 181.002C53.4393 180.941 53.3779 180.941 53.3165 180.88L53.1324 181.063C51.4754 183.02 49.8184 184.549 48.7751 184.549C48.2841 184.549 47.9773 184.182 48.5296 183.265L52.2732 176.722H50.9231C50.9844 175.743 50.0025 174.398 48.4682 174.398C47.2408 174.398 45.461 175.377 44.4791 177.089L42.147 181.125C42.0243 181.002 41.9015 180.941 41.7788 180.88L41.5947 181.063C39.9377 183.02 37.7897 184.549 36.1326 184.549C34.7211 184.549 33.8619 183.632 34.9052 181.797L37.2987 177.639C38.6489 175.315 41.0423 175.743 39.6308 178.128L39.3239 178.679H41.2264L41.5333 178.128C42.7607 175.988 41.5947 174.398 39.6922 174.398C37.7897 174.398 36.3168 175.377 35.3348 177.089L33.0027 181.063C32.9414 181.002 32.88 181.002 32.8186 180.941L32.6345 181.125C30.9775 183.081 28.8295 184.61 27.1725 184.61C25.7609 184.61 24.9017 183.693 25.9451 181.858L26.1905 181.43C27.6634 182.042 30.4865 181.736 32.2663 178.74L32.5731 178.189C33.8005 176.049 32.6345 174.459 30.732 174.459C28.8295 174.459 27.3566 175.438 26.3746 177.15L23.9198 181.308C22.4469 183.754 23.7357 186.078 26.4974 186.078C28.5226 186.078 30.6092 184.855 32.2663 183.265C32.2049 184.855 33.4323 186.078 35.3962 186.078C37.3601 185.955 39.2626 184.855 40.9196 183.448ZM76.5148 177.578C77.865 175.254 80.2584 175.682 78.8469 178.067L78.54 178.617C77.4354 180.513 75.9011 180.452 75.0419 180.146L76.5148 177.578ZM43.2517 183.265L46.5044 177.639C47.7318 175.499 50.248 176.049 49.0819 178.128L47.2408 181.308C45.8293 183.509 44.4177 184.549 43.4972 184.549C43.0062 184.488 42.6993 184.182 43.2517 183.265ZM28.3999 177.578C29.7501 175.254 32.1435 175.682 30.732 178.067L30.4251 178.617C29.3205 180.513 27.7862 180.452 26.927 180.146L28.3999 177.578Z" fill="white"/>
<path d="M107.323 185.954C109.962 185.954 112.601 183.875 114.503 181.674C114.319 181.368 113.951 181.001 113.644 180.879L113.46 181.062C111.803 183.019 109.655 184.548 107.998 184.548C106.587 184.548 105.727 183.63 106.771 181.796L107.016 181.368C108.489 181.979 111.312 181.674 113.092 178.677L113.399 178.127C114.626 175.987 113.46 174.397 111.558 174.397C109.655 174.397 108.182 175.375 107.2 177.087L104.93 180.94C104.93 180.94 104.868 180.94 104.868 180.879L104.684 181.062C103.027 183.019 101.37 184.548 100.327 184.548C99.8358 184.548 99.5289 184.181 100.081 183.263L103.457 177.393C104.439 175.62 103.518 174.336 102.229 174.336C101.247 174.336 100.143 174.886 98.9766 176.109L102.72 169.688H100.327L93.76 181.001C93.6987 180.94 93.5759 180.879 93.5145 180.817L93.3304 181.001C91.6734 182.958 90.0164 184.486 88.9731 184.486C88.4821 184.486 88.1753 184.12 88.7276 183.202L93.6986 174.519H95.6012L96.2762 173.418H94.3737L96.5831 169.627H94.251L92.0416 173.418H89.955L89.2799 174.519H91.4279L86.7637 182.591C85.7818 184.303 86.4569 185.893 88.3594 185.893C89.5254 185.893 90.7528 185.159 92.0416 184.058L91.1211 185.648H93.4532L97.0127 179.533C100.572 175.069 102.168 175.62 101.186 177.332L98.1787 182.591C97.1968 184.303 97.8719 185.893 99.7744 185.893C101.186 185.893 102.782 184.792 104.254 183.325C104.254 184.853 105.421 185.954 107.323 185.954ZM109.226 177.577C110.576 175.253 112.969 175.681 111.558 178.066L111.251 178.616C110.146 180.512 108.612 180.451 107.753 180.145L109.226 177.577Z" fill="white"/>
<path d="M177.9 180.879L177.716 181.063C176.059 183.019 174.402 184.548 173.358 184.548C172.867 184.548 172.561 184.181 173.113 183.264L180.968 169.689H178.636L175.199 175.559C174.77 174.886 174.033 174.336 173.051 174.336C171.824 174.336 170.044 175.315 169.062 177.027L166.792 180.94C166.73 180.94 166.669 180.879 166.669 180.879L166.485 181.063C164.828 183.019 163.171 184.548 162.127 184.548C161.636 184.548 161.33 184.181 161.882 183.264L165.257 177.394C166.239 175.62 165.319 174.336 164.03 174.336C163.048 174.336 161.943 174.886 160.777 176.048L161.636 174.52H159.304L155.561 180.94C155.499 180.879 155.438 180.818 155.315 180.818L155.131 181.001C153.474 182.958 151.817 184.487 150.774 184.487C150.283 184.487 149.976 184.12 150.528 183.203L154.272 176.66H153.106C153.167 175.681 152.185 174.336 150.651 174.336C149.424 174.336 147.644 175.315 146.662 177.027L144.391 180.879L144.268 181.001C142.611 182.958 140.954 184.487 139.911 184.487C139.42 184.487 139.113 184.12 139.666 183.203L141.998 179.167C142.796 177.76 142.427 176.966 141.691 176.048L140.402 174.458C140.095 174.03 140.095 173.541 140.525 173.113L139.297 171.768C137.947 172.93 137.886 174.275 138.684 175.315L138.868 175.559C137.824 177.027 136.474 178.983 134.94 180.757C135.001 180.818 135.063 180.879 135.124 180.94C133.222 183.142 131.565 184.548 129.724 185.343L132.669 180.329H130.399L130.153 180.757C128.926 182.897 127.514 184.487 125.673 184.487C124.077 184.487 123.771 182.897 125.182 180.512L125.857 179.35C126.287 179.412 126.716 179.473 127.207 179.473C135.492 179.473 139.482 168.405 132.178 168.405C130.89 168.405 129.355 169.322 128.312 171.095L124.691 177.332C123.341 176.599 122.604 175.315 122.604 174.03C122.604 172.93 123.095 171.89 124.077 171.095L123.341 169.75C121.684 170.912 120.947 172.502 120.947 174.092C120.947 175.926 121.991 177.699 123.893 178.678L123.218 179.901C121.561 182.714 121.868 185.832 125.182 185.832C126.164 185.832 127.023 185.526 127.698 185.098L127.085 186.138C123.955 187.116 121.991 188.339 121.991 190.113C121.991 192.314 125.428 192.803 127.085 189.929L128.864 186.872C131.258 186.138 133.651 184.487 136.229 181.491C136.167 181.429 136.167 181.368 136.106 181.246C137.149 180.023 138.009 178.861 139.788 176.476L140.095 176.843C140.402 177.21 140.525 177.699 140.218 178.189L137.763 182.469C136.781 184.181 137.456 185.771 139.359 185.771C140.525 185.771 141.814 185.037 143.041 183.937C143.041 184.976 143.716 185.771 145.066 185.771C145.987 185.771 147.153 185.16 148.319 184.242C148.442 185.16 149.178 185.771 150.344 185.771C151.449 185.771 152.676 185.098 153.842 184.059L152.983 185.526H155.315L158.875 179.35C162.434 174.886 164.03 175.498 162.987 177.21L159.979 182.469C158.998 184.181 159.673 185.771 161.575 185.771C162.802 185.771 164.153 184.915 165.503 183.753C165.38 184.915 166.117 185.771 167.528 185.771C168.449 185.771 169.615 185.16 170.781 184.242C170.903 185.16 171.64 185.771 172.806 185.771C174.708 185.771 176.918 183.692 178.882 181.491C178.636 181.368 178.207 181.001 177.9 180.879ZM130.092 172.196C130.767 171.034 131.565 170.484 132.178 170.484C135.861 170.484 133.283 178.005 127.207 178.005H126.716L130.092 172.196ZM125.121 189.685C124.63 190.541 123.832 190.418 123.832 189.807C123.832 189.195 124.384 188.523 126.164 187.85L125.121 189.685ZM149.485 181.246C148.073 183.447 146.662 184.487 145.741 184.487C145.25 184.487 144.944 184.12 145.496 183.203L148.749 177.577C149.976 175.437 152.492 175.987 151.326 178.066L149.485 181.246ZM172.008 181.124C170.597 183.447 169.185 184.487 168.203 184.487C167.712 184.487 167.405 184.12 167.958 183.203L171.21 177.577C172.438 175.437 174.954 175.987 173.788 178.066L172.008 181.124Z" fill="white"/>
<path d="M100.143 202.893L99.9586 203.076C98.3016 205.033 96.6446 206.561 95.6013 206.561C95.1103 206.561 94.8034 206.195 95.3558 205.277L98.7312 199.407C99.7131 197.634 98.7925 196.35 97.5038 196.35C96.5218 196.35 95.4171 196.9 94.2511 198.062L95.1103 196.533H92.7782L89.0346 203.015C88.9118 202.954 88.8504 202.893 88.7277 202.831L88.5436 203.015C87.5003 204.177 86.2115 204.727 85.0454 204.727L87.2548 200.936C88.6663 198.49 87.3775 196.227 85.1682 196.227C83.3884 196.227 81.9769 196.961 80.6267 199.285L79.4607 201.242L78.4787 202.954C78.4174 202.893 78.356 202.893 78.2946 202.831L78.1105 203.015C76.208 205.216 74.551 206.623 72.7098 207.418L79.0924 196.533H76.7603L72.6485 203.687C70.8687 205.339 69.4572 206.256 69.0276 206.072C68.4752 205.828 69.0276 204.972 69.3344 204.482L73.8759 196.594H71.5438L67.8002 203.015C67.7388 202.954 67.6774 202.954 67.6161 202.893L67.4319 203.076C65.7749 205.033 64.1179 206.561 63.0746 206.561C62.5836 206.561 62.2768 206.195 62.8291 205.277L66.2045 199.407C67.1865 197.634 66.2659 196.35 64.9771 196.35C63.9952 196.35 62.8905 196.9 61.7244 198.062L62.5836 196.533H60.2515L56.5079 202.954C56.4465 202.893 56.3851 202.831 56.2624 202.831L56.0783 203.015C54.4213 204.972 52.7643 206.5 51.721 206.5C51.23 206.5 50.9231 206.133 51.4755 205.216L55.2191 198.673H53.8689C53.9303 197.695 52.9484 196.35 51.4141 196.35C50.1867 196.35 48.4069 197.328 47.425 199.04L45.0315 203.198C44.8474 203.076 44.6633 202.954 44.5405 202.893L44.3564 203.076C42.6994 205.033 40.6128 206.561 38.3421 206.561C36.7464 206.561 35.7645 204.972 37.176 202.587L37.8511 201.425C38.2807 201.486 38.7103 201.547 39.2013 201.547C41.6561 201.547 44.4792 200.263 46.3203 197.083C46.9954 195.922 47.2409 194.882 47.2409 193.965C47.2409 191.886 45.8907 190.479 44.1723 190.479C42.8835 190.479 41.3492 191.396 40.3059 193.17L36.685 199.407C35.3349 198.673 34.5984 197.389 34.5984 196.105C34.5984 195.004 35.0894 193.965 36.0713 193.17L35.3349 191.825C33.6779 192.986 32.9414 194.576 32.9414 196.166C32.9414 198.001 33.9847 199.774 35.8872 200.752L35.2121 201.975C33.5551 204.788 34.5371 207.907 37.8511 207.907C40.4287 207.907 42.3925 206.745 43.9882 205.216C43.4972 206.684 44.2337 207.907 45.8907 207.907C46.8113 207.907 47.9773 207.295 49.1434 206.378C49.2661 207.295 50.0026 207.907 51.1686 207.907C52.2733 207.907 53.5007 207.234 54.6668 206.195L53.8076 207.662H56.1397L59.6992 201.486C63.2587 197.022 64.8544 197.634 63.811 199.346L60.8039 204.605C59.8219 206.317 60.497 207.907 62.3995 207.907C63.6269 207.907 65.0385 207.051 66.3886 205.828C66.0818 207.112 66.6955 207.907 67.8615 207.907C68.9662 207.907 70.255 206.99 71.2983 206.011L70.0095 208.213C66.8796 209.13 64.8544 210.414 64.8544 212.187C64.8544 214.389 68.2911 214.878 69.9482 212.004L71.7279 208.946C73.6918 208.335 75.5943 207.112 77.6195 205.155C77.3127 208.396 81.6087 209.13 84.2476 205.828H84.7386C85.5978 205.828 86.7638 205.522 87.8071 204.91L86.2729 207.601H88.6049L92.1645 201.425C95.724 196.961 97.3196 197.573 96.2763 199.285L93.2692 204.544C92.2872 206.256 92.9623 207.846 94.8648 207.846C96.7673 207.846 98.9767 205.767 100.941 203.565C100.879 203.382 100.45 203.015 100.143 202.893ZM42.2084 194.209C42.8835 193.048 43.6813 192.497 44.2951 192.497C45.1542 192.497 45.5838 193.048 45.5838 193.904C45.5838 196.044 42.9449 199.957 39.324 199.957H38.833L42.2084 194.209ZM50.4322 203.259C49.0206 205.461 47.6091 206.5 46.6885 206.5C46.1976 206.5 45.8907 206.133 46.443 205.216L49.6957 199.59C50.9231 197.45 53.4393 198.001 52.2733 200.08L50.4322 203.259ZM68.107 211.698C67.6161 212.554 66.8182 212.432 66.8182 211.82C66.8182 211.209 67.3706 210.536 69.1503 209.864L68.107 211.698ZM83.818 203.015H83.6953C82.9588 203.015 82.3451 203.626 82.3451 204.421C82.3451 204.727 82.4065 204.972 82.5906 205.216V205.277C81.4859 207.173 78.847 206.806 80.1971 204.36L81.9769 201.303L83.0816 199.407C84.7386 196.655 86.9479 197.756 85.5364 200.141L83.818 203.015Z" fill="white"/>
<path d="M154.088 203.688C153.965 203.322 153.536 202.955 153.229 202.893L153.045 203.077C152.185 204.055 151.142 204.973 150.221 205.584C150.958 203.383 150.774 199.958 152.247 197.023L150.528 196.106C149.546 197.451 147.46 200.448 145.373 202.893L145.189 203.077C143.532 205.034 141.875 206.562 140.832 206.562C140.341 206.562 139.85 206.073 139.85 204.973V203.994C141.507 204.178 143.225 203.138 144.33 201.242L144.944 200.142C147.092 196.412 143.593 195.189 141.2 197.39L144.514 191.642H142.182L135.554 203.138C135.431 203.016 135.247 202.893 135.124 202.832L134.94 203.016C133.283 204.973 131.135 206.501 129.478 206.501C128.067 206.501 127.207 205.584 128.251 203.75L130.644 199.591C131.994 197.268 134.388 197.696 132.976 200.081L132.669 200.631H134.572L134.879 200.081C136.106 197.94 134.94 196.351 133.038 196.351C131.135 196.351 129.662 197.329 128.68 199.041L126.409 202.955C126.348 202.955 126.287 202.893 126.287 202.893L126.103 203.077C124.446 205.034 122.789 206.562 121.745 206.562C121.254 206.562 120.947 206.196 121.5 205.278L126.471 196.595H124.139L120.027 203.811C118.247 205.401 116.897 206.318 116.467 206.134C115.915 205.89 116.467 205.034 116.774 204.545L121.316 196.656H118.984L114.442 204.422C113.951 204.85 113.399 205.278 112.969 205.645C113.706 203.444 113.522 200.019 114.994 197.084L113.276 196.167C112.294 197.512 106.955 204.606 104.807 207.052C104.991 207.357 105.359 207.602 105.666 207.847C107.016 206.318 111.435 200.631 112.233 199.53C111.312 201.915 111.803 206.257 109.594 206.257C108.796 206.257 108.489 205.401 108.489 205.401L107.016 206.134C107.016 206.134 107.446 208.03 109.594 208.03C109.839 208.03 110.023 208.03 110.269 207.969H110.33C111.496 207.785 112.662 207.296 113.767 206.501C113.767 207.419 114.319 208.03 115.301 208.03C116.59 208.03 118.002 206.868 119.106 205.829C118.861 207.052 119.597 208.03 121.07 208.03C122.543 208.03 124.139 206.868 125.673 205.339C125.673 206.868 126.9 208.03 128.803 208.03C130.705 208.03 132.547 206.99 134.204 205.584L132.915 207.847H135.247L137.886 203.26V205.095C137.886 207.052 138.254 208.091 140.157 208.091C142.059 208.091 144.268 206.012 146.232 203.811C147.583 202.282 148.687 200.692 149.546 199.591C148.626 201.976 149.117 206.318 146.907 206.318C146.11 206.318 145.803 205.462 145.803 205.462L144.33 206.196C144.33 206.196 144.759 208.091 146.907 208.091C147.153 208.091 147.337 208.091 147.583 208.03H147.644C149.976 207.602 152.369 205.706 154.088 203.688ZM138.622 201.854L139.297 200.692C141.998 196.962 143.839 198.002 142.98 199.408L141.875 201.304C141.2 202.527 139.175 203.383 138.622 201.854Z" fill="white"/>
<path d="M154.026 205.278C153.29 205.278 152.676 205.89 152.676 206.623C152.676 207.357 153.229 207.969 154.026 207.969C154.763 207.969 155.377 207.418 155.377 206.623C155.377 205.89 154.763 205.278 154.026 205.278Z" fill="white"/>
<path d="M154.149 204.36H156.481L163.785 191.702H161.452L154.149 204.36Z" fill="white"/>
<path d="M4.21956 169.751C4.21956 169.934 4.15818 170.117 4.09681 170.301C4.03544 170.484 3.9127 170.668 3.78996 170.79C3.66722 170.912 3.4831 171.035 3.29899 171.157C3.11488 171.218 2.8694 171.279 2.62391 171.279C2.31706 171.279 2.07157 171.218 1.82609 171.096C1.5806 170.974 1.33512 170.851 1.151 170.668C0.966891 170.484 0.905521 170.301 0.782779 170.056C0.721408 169.812 0.660034 169.567 0.660034 169.261C0.660034 168.711 0.782776 168.283 0.966889 167.794C1.151 167.366 1.39649 166.938 1.76472 166.632C1.88746 166.51 2.07157 166.326 2.25568 166.204C2.43979 166.082 2.62391 165.959 2.80802 165.898C2.99213 165.837 3.11488 165.715 3.23762 165.654C3.36036 165.592 3.42173 165.592 3.4831 165.531L4.3423 166.754C4.21956 166.815 4.03545 166.877 3.85133 166.999C3.66722 167.06 3.4831 167.182 3.29899 167.305C3.11488 167.427 2.99213 167.61 2.86939 167.794C2.74665 167.977 2.68528 168.161 2.68528 168.405C3.11488 168.405 3.42173 168.528 3.72859 168.772C4.09681 168.956 4.21956 169.323 4.21956 169.751ZM9.06787 169.751C9.06787 169.934 9.0065 170.117 8.94513 170.301C8.88376 170.484 8.76101 170.668 8.63827 170.79C8.51553 170.912 8.33142 171.035 8.14731 171.157C7.96319 171.218 7.7177 171.279 7.47222 171.279C7.16537 171.279 6.91988 171.218 6.6744 171.096C6.42892 170.974 6.18343 170.851 5.99932 170.668C5.87658 170.484 5.75383 170.301 5.63109 170.056C5.56972 169.812 5.50835 169.567 5.50835 169.261C5.50835 168.711 5.63109 168.283 5.8152 167.794C5.99932 167.366 6.2448 166.938 6.61303 166.632C6.73577 166.51 6.91988 166.326 7.104 166.204C7.28811 166.082 7.47222 165.959 7.65634 165.898C7.84045 165.837 7.96319 165.715 8.08593 165.654C8.20867 165.592 8.27005 165.592 8.33142 165.531L9.19061 166.754C9.06787 166.815 8.88376 166.877 8.69964 166.999C8.51553 167.06 8.33142 167.182 8.14731 167.305C7.96319 167.427 7.84045 167.61 7.71771 167.794C7.59496 167.977 7.5336 168.161 7.5336 168.405C7.96319 168.405 8.27005 168.528 8.5769 168.772C8.88376 168.956 9.06787 169.323 9.06787 169.751Z" fill="white"/>
<path d="M171.763 205.767C171.763 205.584 171.824 205.4 171.885 205.217C171.947 205.033 172.069 204.85 172.192 204.728C172.315 204.605 172.499 204.483 172.683 204.361C172.867 204.3 173.113 204.239 173.358 204.239C173.665 204.239 173.911 204.3 174.156 204.422C174.402 204.544 174.647 204.667 174.831 204.85C175.015 205.033 175.077 205.217 175.199 205.462C175.261 205.706 175.322 205.951 175.322 206.256C175.322 206.807 175.199 207.235 175.015 207.724C174.831 208.152 174.586 208.58 174.217 208.886C174.095 209.008 173.911 209.192 173.726 209.314C173.542 209.436 173.358 209.558 173.174 209.62C172.99 209.681 172.867 209.803 172.745 209.864C172.622 209.925 172.56 209.925 172.499 209.987L171.64 208.764C171.763 208.702 171.947 208.641 172.131 208.519C172.315 208.458 172.499 208.336 172.683 208.213C172.867 208.091 172.99 207.907 173.113 207.724C173.236 207.541 173.297 207.357 173.297 207.113C172.867 207.113 172.56 206.99 172.254 206.746C171.947 206.562 171.763 206.195 171.763 205.767ZM166.976 205.767C166.976 205.584 167.037 205.4 167.098 205.217C167.16 205.033 167.282 204.85 167.405 204.728C167.528 204.605 167.712 204.483 167.896 204.361C168.08 204.3 168.326 204.239 168.571 204.239C168.878 204.239 169.124 204.3 169.369 204.422C169.615 204.544 169.86 204.667 170.044 204.85C170.167 205.033 170.29 205.217 170.412 205.462C170.474 205.706 170.535 205.951 170.535 206.256C170.535 206.807 170.412 207.235 170.228 207.724C170.044 208.152 169.799 208.58 169.43 208.886C169.308 209.008 169.124 209.192 168.94 209.314C168.755 209.436 168.571 209.558 168.387 209.62C168.203 209.681 168.08 209.803 167.958 209.864C167.835 209.925 167.773 209.925 167.712 209.987L166.853 208.764C167.037 208.702 167.16 208.641 167.344 208.519C167.528 208.458 167.712 208.336 167.896 208.213C168.08 208.091 168.203 207.907 168.326 207.724C168.449 207.541 168.51 207.357 168.51 207.113C168.08 207.113 167.773 206.99 167.467 206.746C167.098 206.562 166.976 206.195 166.976 205.767Z" fill="white"/>
</svg>
