<svg width="0" height="0" class="hidden">
  <symbol fill="none" xmlns="http://www.w3.org/2000/svg" viewBox="0 0 75 72" id="icon-house">
    <path d="M29.6185 64.9389H45.6827V41.1709H29.6185V64.9389ZM42.7711 62.0549H32.5301V44.0549H42.6707V62.0549H42.7711Z" fill="#81B3D2"></path>
    <path d="M72.8916 39.1823L75 37.0939L65.0602 27.2486V0.39779H51.2048V13.5249L37.4498 0L0 37.1934L2.10843 39.2818L9.93976 31.5249V69.116H6.0241V72H70.1807V69.116H65.0602V31.4254L72.8916 39.1823ZM54.1165 3.38122H62.0482V24.3646L54.1165 16.5083V3.38122ZM62.1486 69.0166H12.9518V28.5414L37.4498 4.1768L62.0482 28.5414V69.0166H62.1486Z" fill="#81B3D2"></path>
    <path d="M29.9197 27.0491C29.9197 31.3253 33.4338 34.806 37.6507 34.806C41.9679 34.806 45.482 31.3253 45.482 27.0491C45.482 22.7728 41.9679 19.3916 37.6507 19.3916C33.3334 19.3916 29.9197 22.7728 29.9197 27.0491ZM37.6507 22.0767C40.3615 22.0767 42.6707 24.2645 42.6707 27.0491C42.6707 29.7341 40.4619 32.0214 37.6507 32.0214C34.9398 32.0214 32.6306 29.8336 32.6306 27.0491C32.6306 24.364 34.9398 22.0767 37.6507 22.0767Z" fill="#81B3D2"></path>
    <path d="M19.9799 41.1709H16.9679V45.0493H19.9799V41.1709Z" fill="#81B3D2"></path>
    <path d="M25.9036 41.1709H22.8915V45.0493H25.9036V41.1709Z" fill="#81B3D2"></path>
    <path d="M19.9799 47.1387H16.9679V51.0171H19.9799V47.1387Z" fill="#81B3D2"></path>
    <path d="M25.9036 47.1387H22.8915V51.0171H25.9036V47.1387Z" fill="#81B3D2"></path>
    <path d="M52.008 41.1709H48.996V45.0493H52.008V41.1709Z" fill="#81B3D2"></path>
    <path d="M58.0321 41.1709H55.0201V45.0493H58.0321V41.1709Z" fill="#81B3D2"></path>
    <path d="M52.008 47.1387H48.996V51.0171H52.008V47.1387Z" fill="#81B3D2"></path>
    <path d="M58.0321 47.1387H55.0201V51.0171H58.0321V47.1387Z" fill="#81B3D2"></path>
  </symbol>
  <symbol fill="none" xmlns="http://www.w3.org/2000/svg" viewBox="0 0 23 21" id="like-icon">
    <path opacity="0.3" d="M12.9636 3.78L12.3364 6.825L11.7091 9.45H14.3227H20.8045V11.55C20.8045 11.55 20.8045 11.55 20.8045 11.655L17.7727 18.9H8.36364V8.4L12.9636 3.78ZM2.09091 10.5V18.9V10.5ZM13.8 0L6.9 6.93C6.48182 7.245 6.27273 7.77 6.27273 8.4V18.9C6.27273 20.055 7.21364 21 8.36364 21H17.7727C18.6091 21 19.3409 20.475 19.6545 19.74L22.7909 12.285C22.8955 12.075 22.8955 11.76 22.8955 11.55V9.45H23C23 8.295 22.0591 7.35 20.9091 7.35H14.3227L15.3682 2.52V2.205C15.3682 1.785 15.1591 1.365 14.95 1.05L13.8 0ZM4.18182 8.4H0V21H4.18182V8.4Z" fill="black"></path>
  </symbol>
  <symbol fill="none" xmlns="http://www.w3.org/2000/svg" viewBox="0 0 185 96" id="logo">
    <path d="M185 0H0L79.8097 90.1011C86.8489 97.9663 98.2503 97.9663 105.289 90.1011L185 0Z" fill="#81B3D3"></path>
    <path d="M42.8296 0.696915L92.0043 58.8395L140.882 1.09515L42.8296 0.696915Z" fill="#23A9E1"></path>
    <path d="M120.954 17.2237C115.898 17.2237 110.941 17.3233 105.884 17.3233C111.833 10.4537 114.51 11.1506 120.954 17.2237Z" fill="white"></path>
    <path d="M80.1072 22.5999C88.9309 22.5999 97.7546 22.5999 106.578 22.5999C104.595 21.4052 99.9357 15.5312 97.358 17.7215C97.1597 17.9207 89.9223 8.86077 85.1635 13.2414C80.9995 17.0246 79.1158 12.7436 74.3569 15.7304C69.1024 19.3145 77.5295 21.4052 80.1072 22.5999Z" fill="white"></path>
    <path d="M92.3017 0H41.8382V22.4008L92.0043 83.6298L92.3017 83.2315L142.567 23.0977V0H92.3017ZM54.4293 1.79207H59.8821V18.9163L54.4293 12.4449V1.79207ZM53.6361 11.5489L48.679 5.67488V1.79207H53.6361V11.5489ZM72.7706 8.86077L67.1195 1.79207H72.7706V8.86077ZM66.2272 12.644L60.6752 1.79207H66.2272V12.644ZM60.5761 3.38501L66.0289 14.0379C63.2529 16.1286 61.3692 18.0202 60.5761 18.9163V3.38501V3.38501ZM67.0204 2.88722L72.5723 9.75681C71.4818 10.3542 70.3912 11.0511 69.4989 11.6484C68.6066 12.2458 67.8135 12.8431 67.0204 13.4405V2.88722ZM73.5638 2.6881L78.3226 6.86959C76.6372 7.5665 75.0509 8.36298 73.5638 9.15945V2.6881ZM79.1158 6.57091L73.7621 1.79207H79.7106V6.37179C79.4132 6.37179 79.314 6.47135 79.1158 6.57091ZM98.052 1.79207H103.009L98.052 4.18149V1.79207ZM92.3017 1.79207H96.664L92.3017 3.88281V1.79207ZM91.4094 3.78325L87.2454 1.79207H91.4094V3.78325ZM85.9566 4.28105L80.9003 1.79207H85.9566V4.28105ZM80.4046 2.38942L85.0643 4.67928C83.478 5.07752 81.8917 5.47576 80.4046 5.97355V2.38942ZM86.7497 2.38942L90.1206 3.98237C88.9309 4.08193 87.8403 4.18149 86.6506 4.38061V2.38942H86.7497ZM97.0606 2.48898V4.38061C95.97 4.18149 94.8794 4.08193 93.6897 3.98237L97.0606 2.48898ZM103.505 2.38942V6.07311C102.018 5.57532 100.431 5.07752 98.746 4.67928L103.505 2.38942ZM104.199 1.79207H110.048L104.695 6.57091C104.496 6.47135 104.397 6.47135 104.199 6.37179V1.79207ZM117.682 1.79207H123.234L117.682 12.644V1.79207ZM111.139 1.79207H116.79L111.139 8.76121V1.79207ZM110.346 2.6881V9.15945C108.859 8.36298 107.272 7.5665 105.587 6.86959L110.346 2.6881ZM116.889 2.88722V13.3409C116.195 12.8431 115.402 12.3453 114.609 11.748C113.617 11.0511 112.428 10.3542 111.238 9.65725L116.889 2.88722ZM123.234 3.38501V18.518C122.144 17.5224 120.359 15.8299 117.781 13.9383L123.234 3.38501ZM124.027 19.3145V1.79207H129.48V13.1418L124.027 19.3145C124.027 19.4141 124.126 19.4141 124.027 19.3145ZM130.273 1.79207H135.23V6.47135L130.273 12.2458V1.79207ZM47.985 1.79207V4.67928L45.5064 1.79207H47.985V1.79207ZM60.6752 19.9118L60.7744 20.0114C60.7744 20.0114 64.3435 16.1286 69.8955 12.4449C75.1501 8.96033 83.0815 4.8784 92.0043 4.97796C100.828 4.97796 108.958 9.15945 114.113 12.644C119.665 16.3277 123.333 20.111 123.432 20.2105L119.566 24.6907C112.725 25.5867 107.768 30.7638 101.125 29.6687C97.7545 29.0713 97.6554 27.1797 96.664 25.1885C95.97 23.6951 94.7803 23.8942 93.194 23.2969C91.806 22.6995 90.9137 21.6044 88.0386 22.2017C85.56 22.7991 85.2626 26.6819 82.09 26.4828C80.4046 26.3832 80.3055 23.9938 77.926 21.007C71.6801 13.4405 65.8307 14.5356 61.865 21.5048L91.9051 57.2466L60.6752 19.9118ZM135.924 5.47576V1.79207H139.097L135.924 5.47576Z" fill="#491213"></path>
    <path d="M87.9394 70.5875L92.0043 64.1161L95.97 70.5875L92.0043 77.0589L87.9394 70.5875Z" fill="#23A9E1"></path>
    <path d="M64.9384 32.1576C65.4341 32.755 65.8307 33.4519 65.7315 34.2484C65.6324 34.8457 64.8392 35.8413 65.4341 36.0404C66.1281 35.1444 66.9212 34.1488 67.6152 33.2528C67.0204 33.0537 62.2615 27.4783 62.2615 26.7814C61.171 27.3788 60.1795 27.9761 59.089 28.4739C59.2873 29.1709 60.3778 28.4739 60.9727 28.4739C61.7658 28.5735 62.3607 29.0713 62.9555 29.6687C61.2701 31.0625 57.1061 34.6466 56.6104 34.7462C56.4121 34.7462 55.5198 34.1488 55.5198 34.6466C55.5198 34.9453 56.4121 35.6422 56.5113 35.8413C57.2053 36.7374 57.9984 37.6334 58.6924 38.5294C59.2873 38.2307 58.5933 37.8325 58.8907 37.3347C59.1881 36.9365 63.7487 33.0537 64.9384 32.1576Z" fill="white"></path>
    <path d="M59.6838 25.1885C60.0804 25.0889 60.2787 25.5867 60.6752 25.0889C59.8821 24.0933 59.089 23.1973 58.2958 22.2017C57.8992 21.8035 57.5027 21.3057 57.6018 22.2017C57.701 22.7991 51.5541 27.8766 51.1576 27.9761C50.6618 28.1753 50.3644 27.5779 50.067 28.0757C50.761 28.9717 51.5541 29.7682 52.2481 30.6642C52.4464 30.9629 52.7438 31.2616 52.9421 31.5603C53.2395 31.859 53.1404 30.8634 53.1404 30.9629C53.0413 30.4651 53.6361 30.0669 54.0327 29.7682C55.5198 28.4739 59.2872 25.1885 59.6838 25.1885Z" fill="white"></path>
    <path d="M50.9593 24.2925C49.1747 24.7903 47.291 24.0933 46.7953 22.3013C46.2996 20.5092 47.3901 18.518 48.8773 17.5224C50.2653 16.5268 52.4464 16.5268 53.2396 18.3189C53.537 19.1154 53.4378 20.0114 53.1404 20.8079C52.9421 21.3057 52.5456 21.8035 53.2396 22.1022C54.1318 21.007 54.925 19.9118 55.8173 18.8167C54.7267 18.2193 54.3301 17.1242 53.537 16.2282C52.6447 15.133 51.455 14.1374 50.067 13.9383C47.1919 13.5401 44.515 16.5268 44.3167 19.1154C44.2176 20.6088 44.7133 21.903 45.5064 23.0977C46.2996 24.0933 47.3901 24.6907 47.8859 25.8854C48.1833 25.985 50.5627 24.8898 51.1576 24.5911C51.0584 24.4916 51.0584 24.392 50.9593 24.2925C50.9593 24.2925 50.2653 24.4916 50.9593 24.2925Z" fill="white"></path>
    <path d="M89.9223 60.532C88.7326 59.7355 85.9566 55.8527 85.3617 55.2554C85.2626 55.1558 85.1635 54.9567 85.0643 54.8571C85.0643 54.8571 84.7669 55.0563 84.866 55.0563C84.6677 55.1558 84.9652 55.6536 84.7669 55.9523C83.9737 57.147 79.0166 60.9303 78.8183 61.1294C78.2235 61.5276 77.6286 60.9303 77.3312 61.4281C78.0252 62.3241 80.1072 64.9126 80.3055 65.0122C80.8012 65.1117 80.4046 64.2157 80.5037 64.0166C80.6029 63.6184 83.0815 61.6272 83.9737 60.8307C84.2712 60.532 84.6677 61.2289 84.866 61.5276C85.1634 62.0254 85.3617 62.5232 85.1635 63.1206C85.0643 63.5188 84.4695 64.0166 84.866 64.3153C85.4609 63.6184 87.2454 61.5276 87.4437 61.3285C87.7412 61.0298 86.8489 61.3285 86.948 61.2289C86.5514 61.4281 86.254 61.4281 85.8574 61.2289C85.7583 61.1294 84.7669 60.1338 84.866 60.0342C85.2626 59.636 85.8574 59.0386 86.3532 58.9391C87.2454 58.74 87.9394 60.4325 88.0386 61.0298C88.1377 61.6272 88.1377 62.2245 87.9394 62.8219C87.8403 63.2201 87.4437 63.5188 87.9394 63.7179C88.6334 62.7223 89.3274 61.8263 90.0214 60.8307C90.2197 60.6316 90.0214 60.532 89.9223 60.532C90.1206 60.532 89.8231 60.4325 89.9223 60.532Z" fill="white"></path>
    <path d="M79.8098 56.3505C81.9909 54.4589 82.2883 51.273 80.6029 49.0827C78.7192 46.5937 75.2492 45.9964 72.8698 47.9876C70.6886 49.8792 70.3912 52.9655 72.0766 55.2554C74.0595 57.9435 77.2321 58.2422 79.8098 56.3505C79.7106 56.4501 80.9995 55.4545 79.8098 56.3505ZM79.314 51.6712C78.7192 53.1646 77.1329 54.7576 75.6458 55.3549C73.8612 56.0519 72.5724 54.5585 73.2664 52.7664C73.9603 51.273 75.4475 49.6801 76.9346 49.0827C78.8183 48.3858 80.008 49.9787 79.314 51.6712C79.4132 51.4721 78.9175 52.5673 79.314 51.6712Z" fill="white"></path>
    <path d="M73.4646 41.8149C73.9603 41.9144 74.3569 42.3127 74.7535 41.8149C74.0595 40.9188 73.2663 40.0228 72.5723 39.2263C71.9775 39.525 72.5724 39.7241 72.3741 40.2219C72.1758 40.6202 69.7964 41.0184 69.2015 41.118C69.3998 40.5206 70.0938 38.5294 70.3912 38.3303C70.8869 37.9321 71.2835 38.7285 71.6801 38.2307C70.7878 37.1356 69.8955 36.0404 69.0032 34.9453C68.7058 34.5471 68.4084 33.9497 68.0118 34.2484C68.0118 34.2484 68.0118 35.7418 67.9127 35.9409C67.8135 36.14 67.0204 39.525 66.0289 40.421C65.5332 40.8193 63.8478 42.3127 63.3521 42.5118C62.8564 42.7109 62.559 41.9144 62.1624 42.5118C62.9555 43.5074 63.8478 44.503 64.6409 45.4986C64.7401 45.5981 65.2358 46.3946 65.4341 46.3946C65.9298 46.4942 65.5332 45.4986 65.5332 45.2995C65.7315 44.9012 68.0118 42.6114 69.0032 42.4122C70.1929 42.2131 71.9775 41.7153 73.4646 41.8149C73.0681 41.8149 73.7621 41.9144 73.4646 41.8149Z" fill="white"></path>
    <path d="M67.2187 22.7991C63.253 22.5999 64.8392 18.8167 67.6152 18.0202C70.1929 17.2237 75.6458 19.7127 77.3312 21.4052C74.5552 22.3013 70.9861 22.1022 68.0118 22.3013C67.8135 19.1154 67.0204 20.2105 67.2187 22.7991Z" fill="#DC6243"></path>
    <path d="M76.6372 35.244C68.1109 35.1444 73.8612 22.0026 76.7363 22.7991C80.1072 23.8942 79.7106 35.3435 76.6372 35.244Z" fill="#DC6243"></path>
    <path d="M82.6849 30.9629C81.8918 33.4519 80.3055 33.9497 80.5038 30.8634C80.702 27.3788 82.9823 28.1753 85.3617 26.881C87.3446 25.7858 88.4352 21.7039 91.9052 24.0933C93.4914 25.1885 95.276 24.2925 95.7717 25.8854C95.7717 25.7858 91.3103 36.14 93.7889 36.14C88.8317 36.14 91.0129 30.266 92.8966 26.2836C91.112 27.1797 88.1377 32.9541 90.5172 33.8501C89.2283 35.5426 85.3617 37.733 83.3789 36.14C81.8917 35.0449 82.6849 32.9541 82.6849 30.9629Z" fill="#DC6243"></path>
    <path d="M86.7497 40.5206C83.2797 41.5162 78.7192 39.3259 84.2712 38.2307C87.7412 37.5338 91.4094 38.9277 86.7497 40.5206C86.6506 40.5206 86.8489 40.5206 86.7497 40.5206Z" fill="#DC6243"></path>
    <path d="M91.112 40.421C90.418 38.7285 91.7068 36.8369 93.7888 38.2307C95.5734 39.4255 92.8966 41.3171 91.112 40.421Z" fill="#DC6243"></path>
    <path d="M88.1377 45.0008C85.7583 44.3039 77.7278 44.4034 82.9823 42.2131C84.6677 41.6158 93.0949 42.4122 88.1377 45.0008Z" fill="#DC6243"></path>
    <path d="M98.5477 48.2862C97.1597 47.0915 95.6725 46.992 94.3837 48.2862C92.5991 45.0008 86.1549 46.0959 83.0815 45.5981C84.6677 49.6801 97.7545 50.4765 98.5477 48.2862Z" fill="#DC6243"></path>
    <path d="M96.664 50.7752C93.4914 50.6757 90.0214 50.1779 87.1463 50.8748C89.03 51.3726 93.4914 52.6668 89.3274 53.762C90.8146 55.9523 93.2931 55.7532 94.8794 53.8615C94.1854 53.5629 93.888 53.1646 93.2931 52.7664C94.8794 52.4677 96.4657 51.5717 96.664 50.7752Z" fill="#DC6243"></path>
    <path d="M100.233 46.8924C94.9786 43.8061 96.2674 41.5162 100.63 39.3259C102.91 38.2307 107.867 34.1488 109.949 35.4431C106.677 39.3259 103.406 43.1092 100.233 46.8924Z" fill="#DC6243"></path>
    <path d="M96.4657 39.6246C92.0043 35.0449 103.108 35.4431 104.893 33.8501C106.182 34.2484 115.6 25.5867 117.88 26.1841C116.195 28.0757 112.725 34.2484 110.147 34.2484C108.165 34.2484 106.182 33.9497 104.695 35.3435C102.513 37.4343 98.8451 38.4299 96.4657 39.6246Z" fill="#F49774"></path>
    <path d="M97.9529 34.0493C95.4743 35.3435 93.194 30.1664 97.4571 30.6642C100.233 30.9629 103.108 30.4651 105.686 30.8634C103.703 33.1532 101.026 34.4475 97.9529 34.0493Z" fill="#F4B1A4"></path>
    <path d="M110.445 52.2686C110.643 52.866 110.742 53.5629 110.643 54.2598C110.544 55.1558 109.652 57.147 108.462 56.5496C107.272 55.9523 106.281 54.8571 105.289 53.9611C106.083 53.0651 106.777 52.2686 108.165 52.6668C108.561 52.7664 108.859 52.6668 108.462 52.3682C108.065 52.169 105.389 50.377 105.19 50.5761C104.893 50.8748 105.686 51.4721 105.389 52.0695C105.19 52.4677 104.794 52.866 104.496 53.2642C103.802 52.6668 102.613 51.9699 103.406 50.9743C103.901 50.2774 104.695 49.7796 105.488 49.6801C106.083 49.5805 107.272 50.0783 107.471 49.4809C106.38 48.9831 105.289 48.4853 104.199 47.888C104.397 48.6845 100.927 52.3682 100.134 53.3638C100.035 53.4633 99.44 53.9611 99.44 54.1602C99.44 54.5585 100.035 54.2598 100.134 54.2598C100.63 54.0607 106.876 59.3373 107.074 59.7355C107.173 60.0342 106.876 60.3329 107.074 60.4325C107.074 60.4325 107.272 60.6316 107.371 60.6316C107.768 60.1338 111.833 54.658 112.725 54.4589C111.932 53.2642 111.139 52.0695 110.346 50.7752C109.751 51.0739 110.346 51.7708 110.445 52.2686Z" fill="white"></path>
    <path d="M104.298 58.9391C102.216 57.6448 98.746 60.2333 98.2503 60.4325C97.2588 60.9303 96.4657 59.9347 96.9614 58.9391C97.4571 58.1426 98.3494 57.7444 99.2417 57.6448C99.5391 57.6448 100.531 57.8439 100.729 57.6448C100.828 57.4457 100.927 57.4457 100.729 57.3461C99.8366 56.7488 99.0434 56.1514 98.1511 55.6536C97.9528 56.7488 96.7631 57.3461 96.0691 58.043C95.276 58.9391 94.582 59.9347 94.582 61.2289C94.582 62.3241 95.276 63.3197 96.2674 63.917C97.358 64.5144 98.5477 64.0166 99.5391 63.4192C100.134 63.021 100.828 62.5232 101.423 62.2245C102.414 61.7267 103.703 62.125 103.406 63.5188C103.108 64.6139 102.018 65.6095 101.026 65.8087C100.431 66.0078 99.7374 65.9082 99.1426 65.7091C98.746 65.6095 98.1511 65.0122 97.9528 65.6095C99.1426 66.406 100.233 67.302 101.423 68.0985C101.522 67.302 101.919 67.0034 102.513 66.5056C103.207 65.9082 103.901 65.2113 104.496 64.4148C105.686 62.7223 106.083 60.3329 104.298 58.9391Z" fill="white"></path>
    <path d="M104.298 58.9391C105.289 59.5364 103.703 58.4413 104.298 58.9391V58.9391Z" fill="white"></path>
    <path d="M140.683 19.5136C139.989 20.2105 132.355 17.2237 131.76 16.726C131.463 16.6264 131.463 15.4317 131.066 15.9295C130.67 16.4273 130.273 16.9251 129.877 17.4229C129.48 17.9207 129.084 18.4185 128.588 18.9163C128.29 19.2149 128.092 19.4141 128.588 19.6132C129.381 19.2149 133.942 26.881 133.545 28.0757C132.851 28.4739 126.704 22.9982 126.506 22.6995C126.407 22.5999 126.803 21.7039 126.308 21.8035C126.109 21.8035 125.614 22.6995 125.415 22.8986C125.118 23.2969 124.82 23.5955 124.523 23.9938C124.82 24.4916 125.019 23.9938 125.514 23.9938C125.911 24.0933 127.299 25.288 127.696 25.6863C127.002 25.6863 125.019 25.7858 124.82 25.7858C123.928 25.8854 124.424 25.0889 123.829 24.8898C123.036 25.7858 122.342 26.6819 121.549 27.6775C121.152 28.1753 120.656 28.7726 120.26 29.2704C120.161 29.37 120.26 29.2704 120.26 29.37C120.557 29.6687 120.359 29.5691 120.855 29.37C121.35 29.1709 127.398 34.2484 127.596 34.5471C127.993 34.9453 127.398 35.5426 127.993 35.7418C128.588 35.0449 129.183 34.2484 129.778 33.5515C129.877 33.4519 129.877 33.4519 129.778 33.3523C129.381 32.9541 129.282 33.5515 128.786 33.5515C128.29 33.4519 124.424 30.1664 122.937 28.9717C124.721 28.8722 130.174 28.6731 131.066 28.6731C131.364 28.6731 132.157 29.5691 132.157 29.8678C132.058 30.266 131.661 30.4651 132.256 30.6642C132.752 30.0669 133.248 29.5691 133.743 28.9717L133.942 28.6731C134.041 28.5735 134.041 28.5735 134.14 28.3744L134.338 28.1753C134.735 27.6775 136.123 26.1841 135.924 26.0845C135.429 25.6863 135.23 26.5823 134.636 25.985C134.338 25.7858 133.446 24.1929 133.248 23.7947C132.95 23.3964 133.842 22.8986 134.239 22.6995C135.032 22.2017 137.412 21.5048 137.709 22.9982C137.709 23.2969 137.412 23.496 137.61 23.6951C137.61 23.6951 137.808 23.8942 137.907 23.8942C138.106 23.6951 140.287 21.1066 141.179 19.9118C140.882 19.7127 140.782 19.6132 140.683 19.5136ZM133.347 21.7039C133.446 21.7039 133.545 21.6044 133.347 21.7039C133.049 21.903 132.653 22.2017 132.355 22.5004C131.86 21.6044 131.364 20.7083 130.769 19.8123C131.959 20.3101 133.148 20.8079 134.239 21.3057C134.041 21.4052 133.743 21.5048 133.347 21.7039Z" fill="white"></path>
    <path d="M123.73 32.8545C121.35 30.8634 118.178 31.4607 116.195 33.651C114.311 35.9409 114.51 39.3259 116.79 41.2175C119.07 43.1092 122.441 42.6114 124.325 40.4211C126.208 38.1312 126.109 34.7462 123.73 32.8545ZM123.432 39.4255C123.432 39.4255 123.432 39.525 123.432 39.4255C122.144 40.7197 120.062 39.525 118.971 38.7285C117.88 37.9321 115.898 36.14 117.087 34.6466C118.178 33.3523 120.161 34.4475 121.251 35.1444C122.441 35.9409 124.622 37.733 123.532 39.3259C123.631 39.2263 123.631 39.2263 123.432 39.4255Z" fill="white"></path>
    <path d="M123.73 32.8546C124.92 33.8501 123.432 32.6554 123.73 32.8546V32.8546Z" fill="white"></path>
    <path d="M123.432 39.5255C123.432 39.4255 123.432 39.4255 123.432 39.5255C123.532 39.4255 123.532 39.4255 123.532 39.4255C123.432 39.4255 123.432 39.5255 123.432 39.5255Z" fill="white"></path>
    <path d="M117.186 41.9144C117.286 42.014 117.484 42.2131 117.186 41.9144C114.311 39.7241 110.941 40.3215 108.759 43.0096C107.768 44.2043 106.777 45.399 105.785 46.5937C106.182 47.0915 106.578 46.4942 107.074 46.7928C107.471 47.0915 113.221 51.8704 113.32 52.169C113.518 52.6668 113.023 52.6668 113.419 53.0651C113.617 53.1646 117.88 47.888 118.277 46.8924C119.169 45.1003 118.574 43.2087 117.186 41.9144ZM115.898 48.6845C115.699 48.9832 115.898 48.784 115.204 49.3814C114.906 49.6801 108.859 44.7021 109.057 44.503C109.85 43.607 111.635 42.91 112.626 43.2087C114.807 43.7065 117.781 46.3946 115.898 48.6845Z" fill="white"></path>
  </symbol>
  <symbol fill="none" xmlns="http://www.w3.org/2000/svg" viewBox="0 0 16 12" id="mail.svg">
    <path d="M8 8C7.7 8 7.5 7.9 7 7.7L0 4V11C0 11.5 0.5 12 1 12H15C15.5 12 16 11.5 16 11V4L9 7.7C8.5 7.9 8.3 8 8 8ZM15 0H1C0.5 0 0 0.5 0 1V1.8L8 6L16 1.8V1C16 0.5 15.5 0 15 0Z" fill="black"></path>
  </symbol>
  <symbol fill="none" xmlns="http://www.w3.org/2000/svg" viewBox="0 0 18 18" id="phone">
    <path d="M3.6 7.8C5 10.6 7.4 12.9 10.2 14.4L12.4 12.2C12.7 11.9 13.1 11.8 13.4 12C14.5 12.4 15.7 12.6 17 12.6C17.6 12.6 18 13 18 13.6V17C18 17.6 17.6 18 17 18C7.6 18 0 10.4 0 1C0 0.4 0.4 0 1 0H4.5C5.1 0 5.5 0.4 5.5 1C5.5 2.2 5.7 3.4 6.1 4.6C6.2 4.9 6.1 5.3 5.9 5.6L3.6 7.8Z" fill="#010101"></path>
  </symbol>
  <symbol fill="none" xmlns="http://www.w3.org/2000/svg" viewBox="0 0 468 89" id="sedona">
    <g filter="url(#filter0_d_1335_41)">
      <path d="M48.5 22.5999C44.9 19.5999 40.4 17.5999 35.6 17.5999C32 17.5999 27.2999 19.6999 27.2999 23.8999C27.2999 28.2999 32.6 29.9999 35.9 30.9999L40.9 32.4999C51.3 35.5999 59.4 40.7999 59.4 52.8999C59.4 60.2999 57.6 67.9999 51.7 72.9999C45.8 77.9999 38 79.9999 30.5 79.9999C21.1 79.9999 11.8 76.7999 4.19995 71.4999L12.3 55.9999C17.2 60.2999 22.9 63.6999 29.6 63.6999C34.2 63.6999 39 61.3999 39 56.1999C39 50.6999 31.4 48.8999 27.2 47.6999C15 44.0999 6.99995 40.9999 6.99995 26.4999C6.99995 11.2999 17.7999 1.3999 32.7999 1.3999C40.2999 1.3999 49.6 3.79991 56.2 7.59991L48.5 22.5999Z" fill="white"></path>
      <path d="M95.7999 19.7999V32.2999H117.7V48.7999H95.7999V61.6999H119V78.1999H76.3999V3.3999H119V19.8999L95.7999 19.7999Z" fill="white"></path>
      <path d="M133.4 3.3999H161C181.8 3.3999 199 19.7999 199 40.7999C199 61.7999 181.7 78.1999 161 78.1999H133.4V3.3999ZM152.9 61.6999H157.3C168.9 61.6999 178.8 55.2999 178.8 40.7999C178.8 27.3999 170 19.8999 157.5 19.8999H152.9V61.6999Z" fill="white"></path>
      <path d="M290.9 39.3999C290.9 63.5999 273.5 80.6999 249.5 80.6999C225.5 80.6999 208.1 63.5999 208.1 39.3999C208.1 16.7999 228 0.899902 249.5 0.899902C271 0.899902 290.9 16.7999 290.9 39.3999ZM228.3 39.4999C228.3 52.3999 237.8 61.7999 249.4 61.7999C261 61.7999 270.5 52.3999 270.5 39.4999C270.5 29.1999 261 19.6999 249.4 19.6999C237.9 19.6999 228.3 29.1999 228.3 39.4999Z" fill="white"></path>
      <path d="M301.2 3.3999H320.7L356.3 49.1999H356.5V3.3999H376V78.1999H356.5L320.9 32.2999H320.7V78.1999H301.2V3.3999Z" fill="white"></path>
      <path d="M411.3 65.1999L406.1 78.1999H385.5L414.3 3.3999H435.5L463.7 78.1999H443L438.1 65.1999H411.3ZM424.9 26.4999H424.7L416.7 50.2999H432.9L424.9 26.4999Z" fill="white"></path>
    </g>
    <defs>
      <filter id="filter0_d_1335_41" x="0.199951" y="0.899902" width="467.5" height="87.8" filterUnits="userSpaceOnUse" color-interpolation-filters="sRGB">
        <feFlood flood-opacity="0" result="BackgroundImageFix"></feFlood>
        <feColorMatrix in="SourceAlpha" type="matrix" values="0 0 0 0 0 0 0 0 0 0 0 0 0 0 0 0 0 0 127 0" result="hardAlpha"></feColorMatrix>
        <feOffset dy="4"></feOffset>
        <feGaussianBlur stdDeviation="2"></feGaussianBlur>
        <feComposite in2="hardAlpha" operator="out"></feComposite>
        <feColorMatrix type="matrix" values="0 0 0 0 0 0 0 0 0 0 0 0 0 0 0 0 0 0 0.25 0"></feColorMatrix>
        <feBlend mode="normal" in2="BackgroundImageFix" result="effect1_dropShadow_1335_41"></feBlend>
        <feBlend mode="normal" in="SourceGraphic" in2="effect1_dropShadow_1335_41" result="shape"></feBlend>
      </filter>
    </defs>
  </symbol>
  <symbol fill="none" xmlns="http://www.w3.org/2000/svg" viewBox="0 0 48 48" id="tg">
    <rect width="48" height="48" fill="#81B3D2"></rect>
    <path d="M34.4393 16.6223L31.2705 31.566C31.0313 32.6205 30.408 32.883 29.5223 32.3865L24.6938 28.8285L22.3643 31.0695C22.1063 31.3275 21.891 31.5428 21.3938 31.5428L21.741 26.6258L30.6893 18.54C31.0785 18.1935 30.6045 18.0008 30.0848 18.348L19.0223 25.314L14.2598 23.823C13.224 23.4998 13.2053 22.7873 14.4758 22.29L33.1035 15.1133C33.966 14.79 34.7205 15.3053 34.4393 16.623V16.6223Z" fill="white"></path>
  </symbol>
  <symbol fill="none" xmlns="http://www.w3.org/2000/svg" viewBox="0 0 48 48" id="tg__after">
    <rect width="48" height="48" fill="#5496BD"></rect>
    <g opacity="0.3">
      <path d="M34.4392 16.6223L31.2705 31.566C31.0312 32.6205 30.408 32.883 29.5222 32.3865L24.6937 28.8285L22.3642 31.0695C22.1062 31.3275 21.891 31.5428 21.3937 31.5428L21.741 26.6258L30.6892 18.54C31.0785 18.1935 30.6045 18.0008 30.0847 18.348L19.0222 25.314L14.2597 23.823C13.224 23.4998 13.2052 22.7873 14.4757 22.29L33.1035 15.1133C33.966 14.79 34.7205 15.3053 34.4392 16.623V16.6223Z" fill="white"></path>
    </g>
  </symbol>
  <symbol fill="none" xmlns="http://www.w3.org/2000/svg" viewBox="0 0 48 48" id="tg__hover">
    <rect width="48" height="48" fill="#669EC0"></rect>
    <path d="M34.4392 16.6223L31.2705 31.566C31.0312 32.6205 30.408 32.883 29.5222 32.3865L24.6937 28.8285L22.3642 31.0695C22.1062 31.3275 21.891 31.5428 21.3937 31.5428L21.741 26.6258L30.6892 18.54C31.0785 18.1935 30.6045 18.0008 30.0847 18.348L19.0222 25.314L14.2597 23.823C13.224 23.4998 13.2052 22.7873 14.4757 22.29L33.1035 15.1133C33.966 14.79 34.7205 15.3053 34.4392 16.623V16.6223Z" fill="white"></path>
  </symbol>
  <symbol fill="none" xmlns="http://www.w3.org/2000/svg" viewBox="0 0 1200 57" id="triangles">
    <path d="M249.6 23.7L0 0V57H249.6H600L249.6 0V23.7Z" fill="white"></path>
    <path d="M950.4 23.7V0L600 57H950.4H1199.9V0L950.4 23.7Z" fill="white"></path>
  </symbol>
  <symbol fill="none" xmlns="http://www.w3.org/2000/svg" viewBox="0 0 30 3" id="Vector">
    <path d="M29.3 0.800049H0.400024V2.80005H29.3V0.800049Z" fill="#766458"></path>
  </symbol>
  <symbol fill="none" xmlns="http://www.w3.org/2000/svg" viewBox="0 0 30 3" id="Vector-1">
    <path d="M29.2999 0.800049H0.399902V2.80005H29.2999V0.800049Z" fill="#766458"></path>
  </symbol>
  <symbol fill="none" xmlns="http://www.w3.org/2000/svg" viewBox="0 0 48 48" id="vk">
    <rect width="48" height="48" fill="#81B3D2"></rect>
    <g clip-path="url(#clip0_35294_1007)">
      <path fill-rule="evenodd" clip-rule="evenodd" d="M35.45 17.948C35.616 17.402 35.45 17 34.655 17H32.03C31.362 17 31.054 17.347 30.887 17.73C30.887 17.73 29.552 20.926 27.661 23.002C27.049 23.604 26.771 23.795 26.437 23.795C26.27 23.795 26.019 23.604 26.019 23.057V17.948C26.019 17.292 25.835 17 25.279 17H21.151C20.734 17 20.483 17.304 20.483 17.593C20.483 18.214 21.429 18.358 21.526 20.106V23.904C21.526 24.737 21.373 24.888 21.039 24.888C20.149 24.888 17.984 21.677 16.699 18.003C16.45 17.288 16.198 17 15.527 17H12.9C12.15 17 12 17.347 12 17.73C12 18.412 12.89 21.8 16.145 26.281C18.315 29.341 21.37 31 24.153 31C25.822 31 26.028 30.632 26.028 29.997V27.684C26.028 26.947 26.186 26.8 26.715 26.8C27.105 26.8 27.772 26.992 29.33 28.467C31.11 30.216 31.403 31 32.405 31H35.03C35.78 31 36.156 30.632 35.94 29.904C35.702 29.18 34.852 28.129 33.725 26.882C33.113 26.172 32.195 25.407 31.916 25.024C31.527 24.533 31.638 24.314 31.916 23.877C31.916 23.877 35.116 19.451 35.449 17.948H35.45Z" fill="white"></path>
    </g>
    <defs>
      <clipPath id="clip0_35294_1007">
        <rect width="24" height="24" fill="white" transform="translate(12 12)"></rect>
      </clipPath>
    </defs>
  </symbol>
  <symbol fill="none" xmlns="http://www.w3.org/2000/svg" viewBox="0 0 48 48" id="vk__after">
    <rect width="48" height="48" fill="#5496BD"></rect>
    <g opacity="0.3" clip-path="url(#clip0_29549_1770)">
      <path fill-rule="evenodd" clip-rule="evenodd" d="M35.45 17.948C35.616 17.402 35.45 17 34.655 17H32.03C31.362 17 31.054 17.347 30.887 17.73C30.887 17.73 29.552 20.926 27.661 23.002C27.049 23.604 26.771 23.795 26.437 23.795C26.27 23.795 26.019 23.604 26.019 23.057V17.948C26.019 17.292 25.835 17 25.279 17H21.151C20.734 17 20.483 17.304 20.483 17.593C20.483 18.214 21.429 18.358 21.526 20.106V23.904C21.526 24.737 21.373 24.888 21.039 24.888C20.149 24.888 17.984 21.677 16.699 18.003C16.45 17.288 16.198 17 15.527 17H12.9C12.15 17 12 17.347 12 17.73C12 18.412 12.89 21.8 16.145 26.281C18.315 29.341 21.37 31 24.153 31C25.822 31 26.028 30.632 26.028 29.997V27.684C26.028 26.947 26.186 26.8 26.715 26.8C27.105 26.8 27.772 26.992 29.33 28.467C31.11 30.216 31.403 31 32.405 31H35.03C35.78 31 36.156 30.632 35.94 29.904C35.702 29.18 34.852 28.129 33.725 26.882C33.113 26.172 32.195 25.407 31.916 25.024C31.527 24.533 31.638 24.314 31.916 23.877C31.916 23.877 35.116 19.451 35.449 17.948H35.45Z" fill="white"></path>
    </g>
    <defs>
      <clipPath id="clip0_29549_1770">
        <rect width="24" height="24" fill="white" transform="translate(12 12)"></rect>
      </clipPath>
    </defs>
  </symbol>
  <symbol fill="none" xmlns="http://www.w3.org/2000/svg" viewBox="0 0 48 48" id="vk__hover">
    <rect width="48" height="48" fill="#669EC0"></rect>
    <g clip-path="url(#clip0_29549_1769)">
      <path fill-rule="evenodd" clip-rule="evenodd" d="M35.45 17.948C35.616 17.402 35.45 17 34.655 17H32.03C31.362 17 31.054 17.347 30.887 17.73C30.887 17.73 29.552 20.926 27.661 23.002C27.049 23.604 26.771 23.795 26.437 23.795C26.27 23.795 26.019 23.604 26.019 23.057V17.948C26.019 17.292 25.835 17 25.279 17H21.151C20.734 17 20.483 17.304 20.483 17.593C20.483 18.214 21.429 18.358 21.526 20.106V23.904C21.526 24.737 21.373 24.888 21.039 24.888C20.149 24.888 17.984 21.677 16.699 18.003C16.45 17.288 16.198 17 15.527 17H12.9C12.15 17 12 17.347 12 17.73C12 18.412 12.89 21.8 16.145 26.281C18.315 29.341 21.37 31 24.153 31C25.822 31 26.028 30.632 26.028 29.997V27.684C26.028 26.947 26.186 26.8 26.715 26.8C27.105 26.8 27.772 26.992 29.33 28.467C31.11 30.216 31.403 31 32.405 31H35.03C35.78 31 36.156 30.632 35.94 29.904C35.702 29.18 34.852 28.129 33.725 26.882C33.113 26.172 32.195 25.407 31.916 25.024C31.527 24.533 31.638 24.314 31.916 23.877C31.916 23.877 35.116 19.451 35.449 17.948H35.45Z" fill="white"></path>
    </g>
    <defs>
      <clipPath id="clip0_29549_1769">
        <rect width="24" height="24" fill="white" transform="translate(12 12)"></rect>
      </clipPath>
    </defs>
  </symbol>
  <symbol fill="none" xmlns="http://www.w3.org/2000/svg" viewBox="0 0 189 45" id="welcome">
    <path d="M28.2 0H35.9L34.7 44.9H20.2L18.2 26.4L16.2 44.9H1.60001L0.5 0H8.10001L8.7 37.2H9.5L14.4 0H22L26.9 37.2H27.7L28.2 0Z" fill="#81B3D3"></path>
    <path d="M60 37.2V45H39.1V0H60V7.7H46.7V18.5H57.3V26.2H46.7V37.1H60V37.2Z" fill="#81B3D3"></path>
    <path d="M81.4 37.2V45H63.1V0H70.7V37.2H81.4Z" fill="#81B3D3"></path>
    <path d="M97.6 28.4L105.3 26.6V40.2C105.3 42.8 103.1 44.9 100.6 44.9H89.1C86.5 44.9 84.4 42.7 84.4 40.2V4.7C84.4 2.1 86.5 0 89.1 0H100.6C103.1 0 105.3 2.1 105.3 4.7V13.8L97.6 15.6V7.6H92.1V37.1H97.6V28.4Z" fill="#81B3D3"></path>
    <path d="M126.1 0C128.6 0 130.8 2.1 130.8 4.7V40.1C130.8 42.7 128.6 44.8 126.1 44.8H114.6C112 44.8 109.9 42.6 109.9 40.1V4.7C109.9 2.1 112 0 114.6 0H126.1ZM123.1 7.7H117.6V37.2H123.1V7.7Z" fill="#81B3D3"></path>
    <path d="M155.8 0H163.4V44.9H155.8V22.8L152.7 34.2H145.2L142.2 22.8V44.9H134.6V0H142.2L149 21.7L155.8 0Z" fill="#81B3D3"></path>
    <path d="M188.1 37.2V45H167.2V0H188.1V7.7H174.8V18.5H185.4V26.2H174.8V37.1H188.1V37.2Z" fill="#81B3D3"></path>
  </symbol>
  <symbol fill="none" xmlns="http://www.w3.org/2000/svg" viewBox="0 0 320 37" id="white__triangle">
    <path fill-rule="evenodd" clip-rule="evenodd" d="M-225 0H159V37L-225 0Z" fill="white"></path>
    <path fill-rule="evenodd" clip-rule="evenodd" d="M543 0H159V37L543 0Z" fill="white"></path>
  </symbol>
  <symbol fill="none" xmlns="http://www.w3.org/2000/svg" viewBox="0 0 48 48" id="youtube">
    <rect width="48" height="48" fill="#81B3D2"></rect>
    <path d="M31.1813 17H16.8133C15.3062 17 14 18.3 14 19.8V28.1C14 29.7 15.3062 31 16.8133 31H31.1813C32.7889 31 33.9946 29.7 33.9946 28.2V19.8C34.095 18.3 32.7889 17 31.1813 17ZM21.0333 27.4V20.6L27.8656 24L21.0333 27.4Z" fill="white"></path>
  </symbol>
  <symbol fill="none" xmlns="http://www.w3.org/2000/svg" viewBox="0 0 48 48" id="youtube__after">
    <rect width="48" height="48" fill="#5496BD"></rect>
    <path d="M31.1813 17H16.8133C15.3062 17 14 18.3 14 19.8V28.1C14 29.7 15.3062 31 16.8133 31H31.1813C32.7889 31 33.9946 29.7 33.9946 28.2V19.8C34.095 18.3 32.7889 17 31.1813 17ZM21.0333 27.4V20.6L27.8656 24L21.0333 27.4Z" fill="white" fill-opacity="0.3"></path>
  </symbol>
  <symbol fill="none" xmlns="http://www.w3.org/2000/svg" viewBox="0 0 48 48" id="youtube__hoversvg">
    <rect width="48" height="48" fill="#669EC0"></rect>
    <path d="M31.1813 17H16.8133C15.3062 17 14 18.3 14 19.8V28.1C14 29.7 15.3062 31 16.8133 31H31.1813C32.7889 31 33.9946 29.7 33.9946 28.2V19.8C34.095 18.3 32.7889 17 31.1813 17ZM21.0333 27.4V20.6L27.8656 24L21.0333 27.4Z" fill="white"></path>
  </symbol>
  <symbol fill="none" xmlns="http://www.w3.org/2000/svg" viewBox="0 0 15 11" id="&#x27;&#x27;">
    <path d="M6.39998 7.59995C6.39998 7.89995 6.29997 8.19994 6.19997 8.49994C6.09997 8.79994 5.89997 9.09993 5.69997 9.29993C5.49997 9.49993 5.19998 9.69993 4.89998 9.89993C4.59998 9.99993 4.19998 10.0999 3.79998 10.0999C3.29998 10.0999 2.89998 9.99993 2.49998 9.79993C2.09998 9.59993 1.69998 9.39995 1.39998 9.09995C1.09998 8.79995 0.99998 8.49995 0.79998 8.09995C0.69998 7.69995 0.599976 7.29993 0.599976 6.79993C0.599976 5.89993 0.799976 5.19993 1.09998 4.39993C1.39998 3.69993 1.79998 2.99994 2.39998 2.49994C2.59998 2.29994 2.89997 1.99993 3.19997 1.79993C3.49997 1.59993 3.79998 1.39993 4.09998 1.29993C4.39998 1.19993 4.59998 0.999933 4.79998 0.899933C4.99998 0.799933 5.09997 0.799951 5.19997 0.699951L6.59998 2.69995C6.39998 2.79995 6.09998 2.89995 5.79998 3.09995C5.49998 3.19995 5.19998 3.39995 4.89998 3.59995C4.59998 3.79995 4.39997 4.09993 4.19997 4.39993C3.99997 4.69993 3.89998 4.99993 3.89998 5.39993C4.59998 5.39993 5.09998 5.59994 5.59998 5.99994C6.19998 6.29994 6.39998 6.89995 6.39998 7.59995ZM14.3 7.59995C14.3 7.89995 14.2 8.19994 14.1 8.49994C14 8.79994 13.8 9.09993 13.6 9.29993C13.4 9.49993 13.1 9.69993 12.8 9.89993C12.5 9.99993 12.1 10.0999 11.7 10.0999C11.2 10.0999 10.8 9.99993 10.4 9.79993C9.99998 9.59993 9.59998 9.39995 9.29998 9.09995C9.09998 8.79995 8.89997 8.49995 8.69997 8.09995C8.59997 7.69995 8.49998 7.29993 8.49998 6.79993C8.49998 5.89993 8.69998 5.19993 8.99998 4.39993C9.29998 3.69993 9.69998 2.99994 10.3 2.49994C10.5 2.29994 10.8 1.99993 11.1 1.79993C11.4 1.59993 11.7 1.39993 12 1.29993C12.3 1.19993 12.5 0.999933 12.7 0.899933C12.9 0.799933 13 0.799951 13.1 0.699951L14.5 2.69995C14.3 2.79995 14 2.89995 13.7 3.09995C13.4 3.19995 13.1 3.39995 12.8 3.59995C12.5 3.79995 12.3 4.09993 12.1 4.39993C11.9 4.69993 11.8 4.99993 11.8 5.39993C12.5 5.39993 13 5.59994 13.5 5.99994C14 6.29994 14.3 6.89995 14.3 7.59995Z" fill="white"></path>
  </symbol>
  <symbol fill="none" xmlns="http://www.w3.org/2000/svg" viewBox="0 0 15 10" id="back&#x27;&#x27;">
    <path d="M8.3999 2.5C8.3999 2.2 8.49991 1.90001 8.59991 1.60001C8.69991 1.30001 8.89991 0.999988 9.09991 0.799988C9.29991 0.599988 9.5999 0.400012 9.8999 0.200012C10.1999 0.100012 10.5999 0 10.9999 0C11.4999 0 11.8999 0.0999878 12.2999 0.299988C12.6999 0.499988 13.0999 0.7 13.3999 1C13.6999 1.3 13.7999 1.6 13.9999 2C14.0999 2.4 14.1999 2.79999 14.1999 3.29999C14.1999 4.19999 13.9999 4.90001 13.6999 5.70001C13.3999 6.40001 12.9999 7.10001 12.3999 7.60001C12.1999 7.80001 11.8999 8.09999 11.5999 8.29999C11.2999 8.49999 10.9999 8.69999 10.6999 8.79999C10.3999 8.89999 10.1999 9.10001 9.99991 9.20001C9.79991 9.30001 9.69991 9.29999 9.59991 9.39999L8.19992 7.39999C8.39992 7.29999 8.69991 7.2 8.99991 7C9.29991 6.9 9.5999 6.7 9.8999 6.5C10.1999 6.3 10.3999 6.00001 10.5999 5.70001C10.7999 5.40001 10.8999 5.10001 10.8999 4.70001C10.1999 4.70001 9.69992 4.50001 9.19992 4.10001C8.69992 3.80001 8.3999 3.2 8.3999 2.5ZM0.599915 2.5C0.599915 2.2 0.699896 1.90001 0.799896 1.60001C0.899896 1.30001 1.0999 0.999988 1.2999 0.799988C1.4999 0.599988 1.79991 0.400012 2.09991 0.200012C2.39991 0.100012 2.79992 0 3.19992 0C3.69992 0 4.09991 0.0999878 4.49991 0.299988C4.89991 0.499988 5.29991 0.7 5.59991 1C5.79991 1.3 5.99992 1.6 6.19992 2C6.29992 2.4 6.3999 2.79999 6.3999 3.29999C6.3999 4.19999 6.1999 4.90001 5.8999 5.70001C5.5999 6.40001 5.19991 7.10001 4.59991 7.60001C4.39991 7.80001 4.0999 8.09999 3.7999 8.29999C3.4999 8.49999 3.1999 8.69999 2.8999 8.79999C2.5999 8.89999 2.39992 9.10001 2.19992 9.20001C1.99992 9.30001 1.8999 9.29999 1.7999 9.39999L0.399902 7.39999C0.699902 7.29999 0.899921 7.2 1.19992 7C1.49992 6.9 1.79991 6.7 2.09991 6.5C2.39991 6.3 2.5999 6.00001 2.7999 5.70001C2.9999 5.40001 3.09991 5.10001 3.09991 4.70001C2.39991 4.70001 1.8999 4.50001 1.3999 4.10001C0.799902 3.80001 0.599915 3.2 0.599915 2.5Z" fill="white"></path>
  </symbol>
  <symbol fill="none" xmlns="http://www.w3.org/2000/svg" viewBox="0 0 283 75" id="because">
    <path d="M22.1 12.6999C29.8 10.0999 30.3 0.499908 22.8 0.499908C20.7 0.499908 18.2 1.9999 16.5 4.8999L6.30002 22.5999C5.80002 23.3999 5.40002 24.0999 4.80002 24.7999C2.20002 21.1999 2.90002 15.7999 6.60002 13.3999L5.10002 11.4999C-2.89998 16.5999 -0.499978 31.1999 12.8 31.1999C24.1 31.1999 29.4 17.5999 22.1 12.6999ZM12.7 28.2999C10.4 28.2999 8.70002 27.7999 7.20002 26.9999C7.90002 26.1999 8.50002 25.2999 9.10002 24.2999L15.5 13.1999L16.5 13.2999C25.4 15.1999 21.9 28.2999 12.7 28.2999ZM16.8 10.9999L19.9 5.69992C22.7 0.89992 26.2 3.6999 24.3 7.2999C22.8 10.0999 20.7 10.8999 16.8 10.9999Z" fill="white"></path>
    <path d="M54.2001 24.9999C53.6001 27.1999 54.8001 29.0999 57.3001 29.0999C58.8001 29.0999 60.7001 28.0999 62.6001 26.5999C62.8001 28.0999 64 29.0999 65.9 29.0999C67.9 29.0999 70.1001 27.6999 72.3001 25.6999C71.9001 27.6999 72.8001 29.0999 74.7001 29.0999C76.8001 29.0999 79.1 27.1999 80.9 25.4999C80.5 27.4999 81.7001 29.0999 84.1001 29.0999C87.2001 29.0999 90.8001 25.6999 94.0001 22.0999C94.0001 21.9999 93.9 21.9999 93.9 21.8999C96 19.4999 97.8001 16.8999 99.2001 15.0999C97.7001 18.9999 98.5 26.0999 94.9 26.0999C93.6 26.0999 93.1001 24.6999 93.1001 24.6999L90.7001 25.8999C90.7001 25.8999 91.4 28.9999 94.9 28.9999C95.3 28.9999 95.6001 28.9999 96.0001 28.8999H96.1001C98.9001 28.4999 101.6 26.7999 104 24.6999C104.1 27.1999 106 28.9999 109.1 28.9999C113.4 28.9999 117.7 25.5999 120.8 21.9999C120.5 21.4999 119.9 20.8999 119.4 20.6999L119.1 20.9999C116.4 24.1999 112.9 26.6999 110.2 26.6999C107.9 26.6999 106.5 25.1999 108.2 22.1999L108.6 21.4999C111 22.4999 115.6 21.9999 118.5 17.0999L119 16.1999C121 12.6999 119.1 10.0999 116 10.0999C112.9 10.0999 110.5 11.6999 108.9 14.4999L105.2 20.7999H105.1L104.8 21.0999C103.4 22.6999 101.7 24.1999 100.2 25.1999C101.4 21.5999 101.1 15.9999 103.5 11.1999L100.7 9.69992C99.1001 11.8999 95.7001 16.7999 92.3001 20.7999L92.4 20.8999L92.3001 21.0999C89.6001 24.2999 86.9001 26.7999 85.2001 26.7999C84.4001 26.7999 83.9001 26.1999 84.8001 24.6999L92.9 10.4999H89.1001L82.4 22.2999C79.5 24.8999 77.3001 26.3999 76.6001 26.0999C75.7001 25.6999 76.6001 24.2999 77.1001 23.4999L84.5001 10.5999H80.7001L74.7001 20.9999C74.6001 20.8999 74.5 20.8999 74.4 20.7999L74.1001 21.0999C71.4001 24.2999 68.7001 26.7999 67.0001 26.7999C66.2001 26.7999 65.7001 26.1999 66.6001 24.6999L72.7001 13.9999H70.5001C70.6001 12.3999 69.0001 10.1999 66.5001 10.1999C64.5001 10.1999 61.6001 11.7999 60.0001 14.5999L56.2001 21.1999C56.0001 20.9999 55.8001 20.8999 55.6001 20.7999L55.3001 21.0999C52.6001 24.2999 49.1 26.7999 46.4 26.7999C44.1 26.7999 42.7 25.2999 44.4 22.2999L48.3001 15.4999C50.5001 11.6999 54.4001 12.3999 52.1001 16.2999L51.6001 17.1999H54.7001L55.2001 16.2999C57.2001 12.7999 55.3001 10.1999 52.2001 10.1999C49.1001 10.1999 46.7001 11.7999 45.1001 14.5999L41.3001 21.0999C41.2001 20.9999 41.1001 20.9999 41.0001 20.8999L40.7001 21.1999C38.0001 24.3999 34.5001 26.8999 31.8001 26.8999C29.5001 26.8999 28.1001 25.3999 29.8001 22.3999L30.2001 21.6999C32.6001 22.6999 37.2001 22.1999 40.1001 17.2999L40.6001 16.3999C42.6001 12.8999 40.7001 10.2999 37.6001 10.2999C34.5001 10.2999 32.1001 11.8999 30.5001 14.6999L26.5001 21.4999C24.1001 25.4999 26.2001 29.2999 30.7001 29.2999C34.0001 29.2999 37.4001 27.2999 40.1001 24.6999C40.0001 27.2999 42.0001 29.2999 45.2001 29.2999C48.4001 29.0999 51.5001 27.2999 54.2001 24.9999ZM112.2 15.3999C114.4 11.5999 118.3 12.2999 116 16.1999L115.5 17.0999C113.7 20.1999 111.2 20.0999 109.8 19.5999L112.2 15.3999ZM58.0001 24.6999L63.3001 15.4999C65.3001 11.9999 69.4001 12.8999 67.5001 16.2999L64.5001 21.4999C62.2001 25.0999 59.9 26.7999 58.4 26.7999C57.6 26.6999 57.1001 26.1999 58.0001 24.6999ZM33.8001 15.3999C36.0001 11.5999 39.9001 12.2999 37.6001 16.1999L37.1001 17.0999C35.3001 20.1999 32.8001 20.0999 31.4001 19.5999L33.8001 15.3999Z" fill="white"></path>
    <path d="M162.4 29.0999C166.7 29.0999 171 25.6999 174.1 22.0999C173.8 21.5999 173.2 20.9999 172.7 20.7999L172.4 21.0999C169.7 24.2999 166.2 26.7999 163.5 26.7999C161.2 26.7999 159.8 25.2999 161.5 22.2999L161.9 21.5999C164.3 22.5999 168.9 22.0999 171.8 17.1999L172.3 16.2999C174.3 12.7999 172.4 10.1999 169.3 10.1999C166.2 10.1999 163.8 11.7999 162.2 14.5999L158.5 20.8999C158.5 20.8999 158.4 20.8999 158.4 20.7999L158.1 21.0999C155.4 24.2999 152.7 26.7999 151 26.7999C150.2 26.7999 149.7 26.1999 150.6 24.6999L156.1 15.0999C157.7 12.1999 156.2 10.0999 154.1 10.0999C152.5 10.0999 150.7 10.9999 148.8 12.9999L154.9 2.49991H151L140.3 20.9999C140.2 20.8999 140 20.7999 139.9 20.6999L139.6 20.9999C136.9 24.1999 134.2 26.6999 132.5 26.6999C131.7 26.6999 131.2 26.0999 132.1 24.5999L140.2 10.3999H143.3L144.4 8.59991H141.3L144.9 2.3999H141.1L137.5 8.59991H134.1L133 10.3999H136.5L128.9 23.5999C127.3 26.3999 128.4 28.9999 131.5 28.9999C133.4 28.9999 135.4 27.7999 137.5 25.9999L136 28.5999H139.8L145.6 18.5999C151.4 11.2999 154 12.1999 152.4 14.9999L147.5 23.5999C145.9 26.3999 147 28.9999 150.1 28.9999C152.4 28.9999 155 27.1999 157.4 24.7999C157.4 27.2999 159.3 29.0999 162.4 29.0999ZM165.5 15.3999C167.7 11.5999 171.6 12.2999 169.3 16.1999L168.8 17.0999C167 20.1999 164.5 20.0999 163.1 19.5999L165.5 15.3999Z" fill="white"></path>
    <path d="M277.4 20.7999L277.1 21.0999C274.4 24.2999 271.7 26.7999 270 26.7999C269.2 26.7999 268.7 26.1999 269.6 24.6999L282.4 2.49991H278.6L273 12.0999C272.3 10.9999 271.1 10.0999 269.5 10.0999C267.5 10.0999 264.6 11.6999 263 14.4999L259.3 20.8999C259.2 20.8999 259.1 20.7999 259.1 20.7999L258.8 21.0999C256.1 24.2999 253.4 26.7999 251.7 26.7999C250.9 26.7999 250.4 26.1999 251.3 24.6999L256.8 15.0999C258.4 12.1999 256.9 10.0999 254.8 10.0999C253.2 10.0999 251.4 10.9999 249.5 12.8999L250.9 10.3999H247.1L241 20.8999C240.9 20.7999 240.8 20.6999 240.6 20.6999L240.3 20.9999C237.6 24.1999 234.9 26.6999 233.2 26.6999C232.4 26.6999 231.9 26.0999 232.8 24.5999L238.9 13.8999H237C237.1 12.2999 235.5 10.0999 233 10.0999C231 10.0999 228.1 11.6999 226.5 14.4999L222.8 20.7999L222.6 20.9999C219.9 24.1999 217.2 26.6999 215.5 26.6999C214.7 26.6999 214.2 26.0999 215.1 24.5999L218.9 17.9999C220.2 15.6999 219.6 14.3999 218.4 12.8999L216.3 10.2999C215.8 9.5999 215.8 8.79991 216.5 8.09991L214.5 5.8999C212.3 7.7999 212.2 9.99992 213.5 11.6999L213.8 12.0999C212.1 14.4999 209.9 17.6999 207.4 20.5999C207.5 20.6999 207.6 20.7999 207.7 20.8999C204.6 24.4999 201.9 26.7999 198.9 28.0999L203.7 19.8999H200L199.6 20.5999C197.6 24.0999 195.3 26.6999 192.3 26.6999C189.7 26.6999 189.2 24.0999 191.5 20.1999L192.6 18.2999C193.3 18.3999 194 18.4999 194.8 18.4999C208.3 18.4999 214.8 0.399902 202.9 0.399902C200.8 0.399902 198.3 1.8999 196.6 4.7999L190.7 14.9999C188.5 13.7999 187.3 11.6999 187.3 9.59991C187.3 7.79991 188.1 6.0999 189.7 4.7999L188.5 2.59991C185.8 4.49991 184.6 7.09992 184.6 9.69992C184.6 12.6999 186.3 15.5999 189.4 17.1999L188.3 19.1999C185.6 23.7999 186.1 28.8999 191.5 28.8999C193.1 28.8999 194.5 28.3999 195.6 27.6999L194.6 29.3999C189.5 30.9999 186.3 32.9999 186.3 35.8999C186.3 39.4999 191.9 40.2999 194.6 35.5999L197.5 30.5999C201.4 29.3999 205.3 26.6999 209.5 21.7999C209.4 21.6999 209.4 21.5999 209.3 21.3999C211 19.3999 212.4 17.4999 215.3 13.5999L215.8 14.1999C216.3 14.7999 216.5 15.5999 216 16.3999L212 23.3999C210.4 26.1999 211.5 28.7999 214.6 28.7999C216.5 28.7999 218.6 27.5999 220.6 25.7999C220.6 27.4999 221.7 28.7999 223.9 28.7999C225.4 28.7999 227.3 27.7999 229.2 26.2999C229.4 27.7999 230.6 28.7999 232.5 28.7999C234.3 28.7999 236.3 27.6999 238.2 25.9999L236.8 28.3999H240.6L246.4 18.2999C252.2 10.9999 254.8 11.9999 253.1 14.7999L248.2 23.3999C246.6 26.1999 247.7 28.7999 250.8 28.7999C252.8 28.7999 255 27.3999 257.2 25.4999C257 27.3999 258.2 28.7999 260.5 28.7999C262 28.7999 263.9 27.7999 265.8 26.2999C266 27.7999 267.2 28.7999 269.1 28.7999C272.2 28.7999 275.8 25.3999 279 21.7999C278.6 21.5999 277.9 20.9999 277.4 20.7999ZM199.5 6.59991C200.6 4.69991 201.9 3.7999 202.9 3.7999C208.9 3.7999 204.7 16.0999 194.8 16.0999H194L199.5 6.59991ZM191.4 35.1999C190.6 36.5999 189.3 36.3999 189.3 35.3999C189.3 34.3999 190.2 33.2999 193.1 32.1999L191.4 35.1999ZM231.1 21.3999C228.8 24.9999 226.5 26.6999 225 26.6999C224.2 26.6999 223.7 26.0999 224.6 24.5999L229.9 15.3999C231.9 11.8999 236 12.7999 234.1 16.1999L231.1 21.3999ZM267.8 21.1999C265.5 24.9999 263.2 26.6999 261.6 26.6999C260.8 26.6999 260.3 26.0999 261.2 24.5999L266.5 15.3999C268.5 11.8999 272.6 12.7999 270.7 16.1999L267.8 21.1999Z" fill="white"></path>
    <path d="M150.7 56.7999L150.4 57.0999C147.7 60.2999 145 62.7999 143.3 62.7999C142.5 62.7999 142 62.1999 142.9 60.6999L148.4 51.0999C150 48.1999 148.5 46.0999 146.4 46.0999C144.8 46.0999 143 46.9999 141.1 48.8999L142.5 46.3999H138.7L132.6 56.9999C132.4 56.8999 132.3 56.7999 132.1 56.6999L131.8 56.9999C130.1 58.8999 128 59.7999 126.1 59.7999L129.7 53.5999C132 49.5999 129.9 45.8999 126.3 45.8999C123.4 45.8999 121.1 47.0999 118.9 50.8999L117 54.0999L115.4 56.8999C115.3 56.7999 115.2 56.7999 115.1 56.6999L114.8 56.9999C111.7 60.5999 109 62.8999 106 64.1999L116.4 46.3999H112.6L105.9 58.0999C103 60.7999 100.7 62.2999 100 61.9999C99.1001 61.5999 100 60.1999 100.5 59.3999L107.9 46.4999H104.1L98.0001 56.9999C97.9001 56.8999 97.8001 56.8999 97.7001 56.7999L97.4001 57.0999C94.7001 60.2999 92.0001 62.7999 90.3001 62.7999C89.5001 62.7999 89.0001 62.1999 89.9001 60.6999L95.4001 51.0999C97.0001 48.1999 95.5001 46.0999 93.4001 46.0999C91.8001 46.0999 90.0001 46.9999 88.1001 48.8999L89.5001 46.3999H85.7001L79.6001 56.8999C79.5001 56.7999 79.4001 56.6999 79.2001 56.6999L78.9001 56.9999C76.2001 60.1999 73.5001 62.6999 71.8001 62.6999C71.0001 62.6999 70.5001 62.0999 71.4001 60.5999L77.5001 49.8999H75.3001C75.4001 48.2999 73.8001 46.0999 71.3001 46.0999C69.3001 46.0999 66.4001 47.6999 64.8001 50.4999L60.9001 57.2999C60.6001 57.0999 60.3001 56.8999 60.1001 56.7999L59.8001 57.0999C57.1001 60.2999 53.7001 62.7999 50.0001 62.7999C47.4001 62.7999 45.8001 60.1999 48.1001 56.2999L49.2001 54.3999C49.9001 54.4999 50.6001 54.5999 51.4001 54.5999C55.4001 54.5999 60.0001 52.4999 63.0001 47.2999C64.1001 45.3999 64.5001 43.6999 64.5001 42.1999C64.5001 38.7999 62.3001 36.4999 59.5001 36.4999C57.4001 36.4999 54.9001 37.9999 53.2001 40.8999L47.3001 51.0999C45.1001 49.8999 43.9001 47.7999 43.9001 45.6999C43.9001 43.8999 44.7001 42.1999 46.3001 40.8999L45.1001 38.6999C42.4001 40.5999 41.2001 43.1999 41.2001 45.7999C41.2001 48.7999 42.9001 51.6999 46.0001 53.2999L44.9001 55.2999C42.2001 59.8999 43.8001 64.9999 49.2001 64.9999C53.4001 64.9999 56.6001 63.0999 59.2001 60.5999C58.4001 62.9999 59.6001 64.9999 62.3001 64.9999C63.8001 64.9999 65.7001 63.9999 67.6001 62.4999C67.8001 63.9999 69.0001 64.9999 70.9001 64.9999C72.7001 64.9999 74.7001 63.8999 76.6001 62.1999L75.2001 64.5999H79.0001L84.8001 54.4999C90.6001 47.1999 93.2001 48.1999 91.5001 50.9999L86.6001 59.5999C85.0001 62.3999 86.1001 64.9999 89.2001 64.9999C91.2001 64.9999 93.5001 63.5999 95.7001 61.5999C95.2001 63.6999 96.2001 64.9999 98.1001 64.9999C99.9001 64.9999 102 63.4999 103.7 61.8999L101.6 65.4999C96.5001 66.9999 93.2001 69.0999 93.2001 71.9999C93.2001 75.5999 98.8001 76.3999 101.5 71.6999L104.4 66.6999C107.6 65.6999 110.7 63.6999 114 60.4999C113.5 65.7999 120.5 66.9999 124.8 61.5999H125.6C127 61.5999 128.9 61.0999 130.6 60.0999L128.1 64.4999H131.9L137.7 54.3999C143.5 47.0999 146.1 48.0999 144.4 50.8999L139.5 59.4999C137.9 62.2999 139 64.8999 142.1 64.8999C145.2 64.8999 148.8 61.4999 152 57.8999C151.9 57.5999 151.2 56.9999 150.7 56.7999ZM56.3001 42.5999C57.4001 40.6999 58.7001 39.7999 59.7001 39.7999C61.1001 39.7999 61.8001 40.6999 61.8001 42.0999C61.8001 45.5999 57.5001 51.9999 51.6001 51.9999H50.8001L56.3001 42.5999ZM69.7001 57.3999C67.4001 60.9999 65.1001 62.6999 63.6001 62.6999C62.8001 62.6999 62.3001 62.0999 63.2001 60.5999L68.5001 51.3999C70.5001 47.8999 74.6001 48.7999 72.7001 52.1999L69.7001 57.3999ZM98.5001 71.1999C97.7001 72.5999 96.4001 72.3999 96.4001 71.3999C96.4001 70.3999 97.3001 69.2999 100.2 68.1999L98.5001 71.1999ZM124.1 56.9999H123.9C122.7 56.9999 121.7 57.9999 121.7 59.2999C121.7 59.7999 121.8 60.1999 122.1 60.5999V60.6999C120.3 63.7999 116 63.1999 118.2 59.1999L121.1 54.1999L122.9 51.0999C125.6 46.5999 129.2 48.3999 126.9 52.2999L124.1 56.9999Z" fill="white"></path>
    <path d="M238.6 58.0999C238.4 57.4999 237.7 56.8999 237.2 56.7999L236.9 57.0999C235.5 58.6999 233.8 60.1999 232.3 61.1999C233.5 57.5999 233.2 51.9999 235.6 47.1999L232.8 45.6999C231.2 47.8999 227.8 52.7999 224.4 56.7999L224.1 57.0999C221.4 60.2999 218.7 62.7999 217 62.7999C216.2 62.7999 215.4 61.9999 215.4 60.1999V58.5999C218.1 58.8999 220.9 57.1999 222.7 54.0999L223.7 52.2999C227.2 46.1999 221.5 44.1999 217.6 47.7999L223 38.3999H219.2L208.4 57.1999C208.2 56.9999 207.9 56.7999 207.7 56.6999L207.4 56.9999C204.7 60.1999 201.2 62.6999 198.5 62.6999C196.2 62.6999 194.8 61.1999 196.5 58.1999L200.4 51.3999C202.6 47.5999 206.5 48.2999 204.2 52.1999L203.7 53.0999H206.8L207.3 52.1999C209.3 48.6999 207.4 46.0999 204.3 46.0999C201.2 46.0999 198.8 47.6999 197.2 50.4999L193.5 56.8999C193.4 56.8999 193.3 56.7999 193.3 56.7999L193 57.0999C190.3 60.2999 187.6 62.7999 185.9 62.7999C185.1 62.7999 184.6 62.1999 185.5 60.6999L193.6 46.4999H189.8L183.1 58.2999C180.2 60.8999 178 62.3999 177.3 62.0999C176.4 61.6999 177.3 60.2999 177.8 59.4999L185.2 46.5999H181.4L174 59.2999C173.2 59.9999 172.3 60.6999 171.6 61.2999C172.8 57.6999 172.5 52.0999 174.9 47.2999L172.1 45.7999C170.5 47.9999 161.8 59.5999 158.3 63.5999C158.6 64.0999 159.2 64.4999 159.7 64.8999C161.9 62.3999 169.1 53.0999 170.4 51.2999C168.9 55.1999 169.7 62.2999 166.1 62.2999C164.8 62.2999 164.3 60.8999 164.3 60.8999L161.9 62.0999C161.9 62.0999 162.6 65.1999 166.1 65.1999C166.5 65.1999 166.8 65.1999 167.2 65.0999H167.3C169.2 64.7999 171.1 63.9999 172.9 62.6999C172.9 64.1999 173.8 65.1999 175.4 65.1999C177.5 65.1999 179.8 63.2999 181.6 61.5999C181.2 63.5999 182.4 65.1999 184.8 65.1999C187.2 65.1999 189.8 63.2999 192.3 60.7999C192.3 63.2999 194.3 65.1999 197.4 65.1999C200.5 65.1999 203.5 63.4999 206.2 61.1999L204.1 64.8999H207.9L212.2 57.3999V60.3999C212.2 63.5999 212.8 65.2999 215.9 65.2999C219 65.2999 222.6 61.8999 225.8 58.2999C228 55.7999 229.8 53.1999 231.2 51.3999C229.7 55.2999 230.5 62.3999 226.9 62.3999C225.6 62.3999 225.1 60.9999 225.1 60.9999L222.7 62.1999C222.7 62.1999 223.4 65.2999 226.9 65.2999C227.3 65.2999 227.6 65.2999 228 65.1999H228.1C231.9 64.4999 235.8 61.3999 238.6 58.0999ZM213.4 55.0999L214.5 53.1999C218.9 47.0999 221.9 48.7999 220.5 51.0999L218.7 54.1999C217.6 56.1999 214.3 57.5999 213.4 55.0999Z" fill="white"></path>
    <path d="M238.5 60.6999C237.3 60.6999 236.3 61.6999 236.3 62.8999C236.3 64.0999 237.2 65.0999 238.5 65.0999C239.7 65.0999 240.7 64.1999 240.7 62.8999C240.7 61.6999 239.7 60.6999 238.5 60.6999Z" fill="white"></path>
    <path d="M238.7 59.1999H242.5L254.4 38.4999H250.6L238.7 59.1999Z" fill="white"></path>
  </symbol>
  <symbol fill="none" xmlns="http://www.w3.org/2000/svg" viewBox="0 0 176 30" id="gorgeus">
    <path d="M23.4 15.0001L23.2 15.2001C21.8 16.7001 20.2 17.4001 18.7 17.4001L21.5 12.5001C23.3 9.4001 21.6 6.4001 18.8 6.4001C16.5 6.4001 14.7 7.3001 13 10.3001L11.5 12.9001L10.3 15.0001L10.1 15.2001C7.90002 17.7001 5.80002 19.7001 4.50002 19.7001C3.80002 19.7001 3.50001 19.2001 4.20001 18.1001L10.6 6.9001H13L13.9 5.5001H11.4L14.2 0.600098H11.2L8.40001 5.5001H5.70001L4.80002 6.9001H7.50002L1.50002 17.3001C0.200017 19.5001 1.10002 21.6001 3.50002 21.6001C5.20002 21.6001 7.20002 20.3001 9.00002 18.5001C9.00002 22.3001 14.3 23.1001 17.5 19.0001H18.2C20 19.0001 22.8 17.9001 24.3 16.1001C24.3 15.6001 23.8 15.2001 23.4 15.0001ZM17 15.2001H16.9C15.9 15.2001 15.1 16.0001 15.1 17.0001C15.1 17.4001 15.2 17.7001 15.4 18.0001V18.1001C14 20.5001 10.6 20.1001 12.3 16.9001L14.6 13.0001L16 10.6001C18.1 7.0001 21 8.4001 19.2 11.5001L17 15.2001Z" fill="#766458"></path>
    <path d="M64.9001 15.0001L64.7001 15.2001C62.5001 17.7001 59.8001 19.7001 57.7001 19.7001C55.9001 19.7001 54.8001 18.5001 56.1001 16.1001L56.4001 15.6001C58.3001 16.4001 62.0001 16.0001 64.2001 12.1001L64.6001 11.4001C66.2001 8.6001 64.7001 6.6001 62.2001 6.6001C59.8001 6.6001 57.9001 7.9001 56.6001 10.1001L53.7001 15.1001L53.5001 15.3001C51.3001 17.8001 49.2001 19.8001 47.9001 19.8001C47.2001 19.8001 46.9001 19.3001 47.6001 18.2001L51.9001 10.6001C53.2001 8.3001 52.0001 6.7001 50.3001 6.7001C49.0001 6.7001 47.6001 7.4001 46.1001 9.0001L50.9001 0.7001H47.9001L39.6001 15.0001L39.4001 15.2001C37.2001 17.7001 35.1001 19.7001 33.8001 19.7001C33.1001 19.7001 32.8001 19.2001 33.5001 18.1001L39.9001 6.9001H42.3001L43.2001 5.5001H40.7001L43.5001 0.600098H40.5001L37.7001 5.5001H35.0001L34.1001 6.9001H36.8001L30.8001 17.3001C29.5001 19.5001 30.4001 21.6001 32.8001 21.6001C34.0001 21.6001 35.3001 21.0001 36.6001 20.0001L35.8001 21.3001H38.8001L43.3001 13.4001C47.9001 7.6001 49.9001 8.4001 48.7001 10.6001L44.8001 17.4001C43.5001 19.6001 44.4001 21.7001 46.8001 21.7001C48.6001 21.7001 50.6001 20.3001 52.4001 18.5001C52.5001 20.4001 54.1001 21.7001 56.5001 21.7001C59.9001 21.7001 63.3001 19.1001 65.7001 16.2001C65.8001 15.6001 65.3001 15.2001 64.9001 15.0001ZM59.2001 10.8001C60.9001 7.8001 64.0001 8.3001 62.2001 11.4001L61.8001 12.1001C60.4001 14.5001 58.4001 14.5001 57.3001 14.1001L59.2001 10.8001Z" fill="#766458"></path>
    <path d="M174 15.0001L173.8 15.2001C172.7 16.5001 171.4 17.6001 170.2 18.5001C171.2 15.6001 170.9 11.3001 172.8 7.40009L170.6 6.20009C169.4 7.90009 166.7 11.8001 163.9 15.0001L163.7 15.2001C161.5 17.7001 159.4 19.7001 158.1 19.7001C157.4 19.7001 157.1 19.2001 157.8 18.1001L164.2 6.90009H161.2L155.9 16.2001C153.6 18.3001 151.9 19.4001 151.3 19.2001C150.6 18.9001 151.3 17.8001 151.7 17.1001L157.5 6.90009H154.5L149.8 15.0001L149.6 15.2001C148.2 16.7001 146.6 17.4001 145.1 17.4001L147.9 12.5001C149.7 9.40009 148 6.40009 145.2 6.40009C142.9 6.40009 141.1 7.30009 139.4 10.3001L137.9 12.9001L136.7 15.0001L136.5 15.2001C134.3 17.7001 131.6 19.7001 129.5 19.7001C127.7 19.7001 126.6 18.5001 127.9 16.1001L128.2 15.6001C130.1 16.4001 133.8 16.0001 136 12.1001L136.4 11.4001C138 8.60009 136.5 6.60009 134 6.60009C131.6 6.60009 129.7 7.90009 128.4 10.1001L125.5 15.1001L125.3 15.3001C122.8 18.2001 120.7 20.0001 118.3 21.0001L125 9.50009H123.2C123.2 8.30009 121.9 6.60009 120.1 6.60009C118.5 6.60009 116.2 7.90009 115 10.1001L112.1 15.1001L111.9 15.3001C109.7 17.8001 107.6 19.8001 106.3 19.8001C105.6 19.8001 105.3 19.3001 106 18.2001L109 13.0001C110 11.2001 109.5 10.1001 108.6 8.90009L106.9 6.90009C106.5 6.40009 106.5 5.70009 107.1 5.20009L105.5 3.50009C103.8 5.00009 103.7 6.70009 104.7 8.10009L105 8.40009C103.7 10.3001 101.9 12.8001 99.9 15.1001L99.7 15.3001C98.3 16.8001 96.7 17.5001 95.2 17.5001L98 12.6001C99.8 9.50009 98.1 6.50009 95.3 6.50009C93 6.50009 91.2 7.40009 89.5 10.4001L88 13.0001L86.8 15.1001L86.6 15.3001C84.1 18.2001 82 20.0001 79.6 21.0001L86.3 9.50009H84.5C84.5 8.30009 83.2 6.60009 81.4 6.60009C79.8 6.60009 77.5 7.90009 76.3 10.1001L72.1 17.4001C70.8 19.6001 71.7 21.7001 74.1 21.7001C74.9 21.7001 75.9 21.3001 77 20.7001L76.2 22.1001C72.2 23.3001 69.6 25.0001 69.6 27.2001C69.6 30.1001 74 30.7001 76.2 27.0001L78.5 23.1001C80.9 22.4001 83.2 20.9001 85.7 18.6001C85.7 22.4001 91 23.2001 94.2 19.1001H94.9C96.7 19.1001 99.5 18.0001 101 16.2001C102.4 14.5001 103.6 13.0001 106 9.80009L106.4 10.3001C106.8 10.8001 106.9 11.4001 106.6 12.0001L103.4 17.5001C102.1 19.7001 103 21.8001 105.4 21.8001C106.9 21.8001 108.6 20.8001 110.2 19.4001C110.2 20.8001 111.1 21.8001 112.8 21.8001C113.6 21.8001 114.6 21.4001 115.7 20.8001L115 22.0001C111 23.2001 108.4 24.9001 108.4 27.1001C108.4 30.0001 112.8 30.6001 115 26.9001L117.3 23.0001C119.7 22.2001 122.1 20.8001 124.6 18.4001C124.7 20.3001 126.2 21.6001 128.7 21.6001C131.1 21.6001 133.6 20.2001 135.6 18.4001C135.5 22.3001 140.9 23.1001 144.1 19.0001H144.8C145.7 19.0001 147 18.7001 148.1 18.1001C147.3 20.2001 148 21.6001 149.7 21.6001C151.3 21.6001 153.2 20.1001 154.6 18.7001C154.3 20.3001 155.3 21.6001 157.2 21.6001C159.7 21.6001 162.5 19.0001 165 16.1001C166.7 14.1001 168.2 12.0001 169.3 10.6001C168.1 13.7001 168.8 19.3001 165.9 19.3001C164.9 19.3001 164.5 18.2001 164.5 18.2001L162.6 19.2001C162.6 19.2001 163.1 21.6001 165.9 21.6001C166.2 21.6001 166.4 21.6001 166.7 21.5001H166.8C169.9 21.1001 172.9 18.7001 175.1 16.1001C175 15.6001 174.5 15.1001 174 15.0001ZM131.1 10.8001C132.8 7.80009 135.9 8.30009 134.1 11.4001L133.7 12.1001C132.3 14.5001 130.3 14.5001 129.2 14.1001L131.1 10.8001ZM73.9 26.4001C73.3 27.5001 72.3 27.4001 72.3 26.5001C72.3 25.7001 73 24.8001 75.3 23.9001L73.9 26.4001ZM75.3 19.7001C74.6 19.7001 74.3 19.2001 75 18.1001L79.2 10.8001C80.8 8.00009 84 8.70009 82.5 11.4001L80.2 15.4001C78.4 18.3001 76.5 19.7001 75.3 19.7001ZM93.7 15.2001H93.6C92.6 15.2001 91.8 16.0001 91.8 17.0001C91.8 17.4001 91.9 17.7001 92.1 18.0001V18.1001C90.7 20.5001 87.3 20.1001 89 16.9001L91.3 13.0001L92.7 10.6001C94.8 7.00009 97.7 8.40009 95.9 11.5001L93.7 15.2001ZM112.5 26.4001C111.9 27.5001 110.9 27.4001 110.9 26.5001C110.9 25.7001 111.6 24.8001 113.9 23.9001L112.5 26.4001ZM113.9 19.7001C113.2 19.7001 112.9 19.2001 113.6 18.1001L117.8 10.8001C119.4 8.00009 122.6 8.70009 121.1 11.4001L118.8 15.4001C117 18.3001 115.1 19.7001 113.9 19.7001ZM143.4 15.2001H143.3C142.3 15.2001 141.5 16.0001 141.5 17.0001C141.5 17.4001 141.6 17.7001 141.8 18.0001V18.1001C140.4 20.5001 137 20.1001 138.7 16.9001L141 13.0001L142.4 10.6001C144.5 7.00009 147.4 8.40009 145.6 11.5001L143.4 15.2001Z" fill="#766458"></path>
  </symbol>
  <symbol xmlns="http://www.w3.org/2000/svg" viewBox="0 0 60 60" id="htmlacademy">
    <path fill="#000000" d="M30.2 5h-.2l-19.7 2.1v36.2l19.7 11.7 19.7-11.7v-36.2l-19.5-2.1zm17 36.8l-17.2 10.2-17.2-10.2v-14.8l17.1 10.2v1.8l-11.7-7v1.8l11.8 7.1v1.9l-11.8-7v1.8l11.8 7 11.9-7.1v-7.6l5.3-3.2v15.1zm-.1-17l-4.7 2.8-2.2 1.3-10.3-6.1v1.8l8.8 5.3h-.1l-.2.1-1.3.7-7.3-4.3v1.8l5.8 3.4-1.4.9-4.3-2.6v1.8l2.9 1.7-2.9 1.7-17-10.1 17-10.2 17.2 10zm.1-1.8l-17.3-10.2-17.1 10.2v-13.6l17.2-1.8 17.2 1.8v13.6z"></path>
  </symbol>
  <symbol fill="none" xmlns="http://www.w3.org/2000/svg" viewBox="0 0 36 36" id="htmlacademy__after">
    <path d="M18.1506 2.25H18.0502L4.5 3.58944V27.221L18.0502 34.875L31.5 27.221V3.58944L18.1506 2.25ZM29.5929 13.8266L18.0502 7.32075V7.22507H17.9498L17.8494 7.1294V7.22507L6.40706 13.8266V5.21591L17.9498 4.06782L29.5929 5.21591V13.8266ZM17.9498 8.75587L29.4926 15.1661L24.9758 17.6536L17.8494 13.6353V14.9747L23.7714 18.3233L22.868 18.8017L17.8494 15.9315V17.2709L21.6636 19.4714L20.8606 19.9498L17.8494 18.2276V19.5671L19.7565 20.6195L17.9498 21.6719L6.50743 15.2617L17.9498 8.75587ZM6.40706 16.6968L17.8494 23.2027V24.1595L9.92007 19.6628V21.0022L17.9498 25.5946V26.647L9.92007 22.1503V23.4897L17.9498 28.0821L26.0799 23.3941V18.419L29.4926 16.5055V26.0729L17.9498 32.6745L6.40706 26.1686V16.6968Z" fill="#B3B3B3"></path>
  </symbol>
  <symbol fill="none" xmlns="http://www.w3.org/2000/svg" viewBox="0 0 28 33" id="htmlacademy__hover">
    <path d="M14.1506 0.25H14.0502L0.5 1.58944V25.221L14.0502 32.875L27.5 25.221V1.58944L14.1506 0.25ZM25.5929 11.8266L14.0502 5.32075V5.22507H13.9498L13.8494 5.1294V5.22507L2.40706 11.8266V3.21591L13.9498 2.06782L25.5929 3.21591V11.8266ZM13.9498 6.75587L25.4926 13.1661L20.9758 15.6536L13.8494 11.6353V12.9747L19.7714 16.3233L18.868 16.8017L13.8494 13.9315V15.2709L17.6636 17.4714L16.8606 17.9498L13.8494 16.2276V17.5671L15.7565 18.6195L13.9498 19.6719L2.50743 13.2617L13.9498 6.75587ZM2.40706 14.6968L13.8494 21.2027V22.1595L5.92007 17.6628V19.0022L13.9498 23.5946V24.647L5.92007 20.1503V21.4897L13.9498 26.0821L22.0799 21.3941V16.419L25.4926 14.5055V24.0729L13.9498 30.6745L2.40706 24.1686V14.6968Z" fill="#81B3D2"></path>
  </symbol>
  <symbol fill="none" xmlns="http://www.w3.org/2000/svg" viewBox="0 0 76 68" id="icon-burger">
    <path d="M71.7113 45.3324H4.28871C1.89501 45.3324 0 47.3034 0 49.57V53.0192C0 55.2858 1.89501 57.1582 4.28871 57.1582H5.28609V58.1437C5.28609 63.5639 9.77428 67.9 15.1601 67.9H60.8399C66.3255 67.9 70.7139 63.4653 70.7139 58.1437V57.1582H71.7113C74.0053 57.1582 76 55.2858 76 52.9206V49.4714C76 47.3034 74.105 45.3324 71.7113 45.3324ZM67.8215 58.1437C67.8215 61.8886 64.7297 64.9436 60.9396 64.9436H15.0604C11.2703 64.9436 8.17848 61.8886 8.17848 58.1437V57.1582H67.8215V58.1437ZM73.0079 52.9206C73.0079 53.6105 72.4095 54.2018 71.7113 54.2018H4.28871C3.59055 54.2018 2.99213 53.6105 2.99213 52.9206V49.4714C2.99213 48.8801 3.59055 48.2889 4.28871 48.2889H71.811C72.5092 48.2889 73.1076 48.8801 73.1076 49.57V52.9206H73.0079Z" fill="#81B3D2"></path>
    <path d="M16.1575 37.3496L21.5434 41.2915L27.0289 37.3496L32.5145 41.2915L38 37.3496L43.3859 41.2915L48.8714 37.3496L54.357 41.2915L59.8426 37.3496L65.3281 41.2915L71.6116 36.6597L69.9161 34.2946L65.3281 37.5467L59.8426 33.6047L54.357 37.5467L48.8714 33.6047L43.3859 37.5467L38 33.6047L32.5145 37.5467L27.0289 33.6047L21.5434 37.5467L16.1575 33.6047L10.672 37.5467L6.08403 34.2946L4.28876 36.6597L10.672 41.2915L16.1575 37.3496Z" fill="#81B3D2"></path>
    <path d="M70.7138 30.6486C70.7138 30.0573 70.8136 28.0864 70.7138 27.6922C70.0157 12.3186 55.6535 0 37.9999 0C20.3464 0 5.88444 12.3186 5.18628 27.6922C5.18628 28.0864 5.18628 30.0573 5.18628 30.6486H70.7138ZM37.9999 2.95646C53.9579 2.95646 67.1233 13.9939 67.7217 27.6922H8.17841C8.87657 13.9939 22.0419 2.95646 37.9999 2.95646Z" fill="#81B3D2"></path>
    <path d="M38 16.7532C39.1017 16.7532 39.9948 15.8708 39.9948 14.7823C39.9948 13.6937 39.1017 12.8113 38 12.8113C36.8983 12.8113 36.0052 13.6937 36.0052 14.7823C36.0052 15.8708 36.8983 16.7532 38 16.7532Z" fill="#81B3D2"></path>
    <path d="M30.021 11.924C31.1227 11.924 32.0157 11.0416 32.0157 9.95303C32.0157 8.86449 31.1227 7.98206 30.021 7.98206C28.9193 7.98206 28.0262 8.86449 28.0262 9.95303C28.0262 11.0416 28.9193 11.924 30.021 11.924Z" fill="#81B3D2"></path>
    <path d="M45.979 11.924C47.0807 11.924 47.9738 11.0416 47.9738 9.95303C47.9738 8.86449 47.0807 7.98206 45.979 7.98206C44.8773 7.98206 43.9843 8.86449 43.9843 9.95303C43.9843 11.0416 44.8773 11.924 45.979 11.924Z" fill="#81B3D2"></path>
  </symbol>
  <symbol fill="none" xmlns="http://www.w3.org/2000/svg" viewBox="0 0 23 23" id="icon-cross">
    <path d="M22.2 2.8L19.4 0L11.1 8.3L2.8 0L0 2.8L8.3 11.1L0 19.4L2.8 22.2L11.1 13.9L19.4 22.2L22.2 19.4L13.9 11.1L22.2 2.8Z" fill="white"></path>
  </symbol>
  <symbol fill="none" xmlns="http://www.w3.org/2000/svg" viewBox="0 0 64 75" id="icon-gift">
    <path d="M61.1556 22.1167H61.054H36.3683C50.1841 15.3189 51.3016 11.0202 50.7937 8.62098C49.6762 4.72221 45.1048 1.72316 40.8381 3.32266C35.2508 5.42199 33.727 13.6194 32.2032 19.5175C30.273 13.5194 28.4444 5.92183 24.0762 2.02307C22.8571 0.923414 21.0286 -0.176239 18.2857 0.0236982C14.2222 0.423572 8.43175 5.32202 10.8698 10.8203C13.1048 16.1186 20.5206 19.5175 25.4984 22.2167H2.84444C1.21905 22.2167 0 23.5163 0 25.0158V36.2123C0 37.8118 1.32063 39.0114 2.84444 39.0114H3.14921V75H61.054V39.0114H61.1556C62.781 39.0114 64 37.7118 64 36.2123V25.0158C64 23.4163 62.6794 22.1167 61.1556 22.1167ZM42.4635 5.82187C44.5968 5.52196 47.4413 7.12146 47.746 9.02085C48.1524 11.72 44.3937 14.2192 42.6667 15.3189C40.127 17.0183 37.6889 17.918 35.3524 19.3176C36.1651 15.6188 37.8921 6.42168 42.4635 5.82187ZM19.5048 15.6188C17.2698 14.1192 13.0032 11.2202 13.1048 7.9212C13.2063 4.32234 18.8952 1.42326 21.9429 4.1224C25.8032 7.42136 27.6317 15.1189 29.054 20.5172C25.8032 18.9177 22.7556 17.7181 19.5048 15.6188ZM25.4984 72.0009H6.09524V39.0114H25.4984V72.0009ZM25.4984 36.0123H3.04762V25.1158H25.4984V36.0123ZM35.6571 72.0009H28.4444V25.1158H35.6571V72.0009ZM58.0064 72.0009H38.7048V39.0114H58.1079V72.0009H58.0064ZM60.9524 36.0123H38.7048V25.1158H60.9524V36.0123Z" fill="#81B3D2"></path>
  </symbol>
</svg>
