<svg width="34" height="37" viewBox="0 0 34 37" fill="none" xmlns="http://www.w3.org/2000/svg">
<path d="M10.4015 33.2194H18.7549V21.0613H10.4015V33.2194ZM17.2408 31.7441H11.9155V22.5365H17.1886V31.7441H17.2408Z" fill="#81B3D2"/>
<path d="M32.9036 20.0431L34 18.9748L28.8313 13.9386V0.203483H21.6265V6.91843L14.4739 0L-5 19.0257L-3.90361 20.094L0.168674 16.126V35.3552H-1.86747V36.8305H31.494V35.3552H28.8313V16.0752L32.9036 20.0431ZM23.1406 1.72961H27.2651V12.4633L23.1406 8.44455V1.72961ZM27.3173 35.3043H1.73494V14.5999L14.4739 2.13657L27.2651 14.5999V35.3043H27.3173Z" fill="#81B3D2"/>
<path d="M10.5582 13.8369C10.5582 16.0243 12.3855 17.8048 14.5783 17.8048C16.8233 17.8048 18.6506 16.0243 18.6506 13.8369C18.6506 11.6494 16.8233 9.9198 14.5783 9.9198C12.3333 9.9198 10.5582 11.6494 10.5582 13.8369ZM14.5783 11.2933C15.9879 11.2933 17.1888 12.4125 17.1888 13.8369C17.1888 15.2104 16.0402 16.3804 14.5783 16.3804C13.1687 16.3804 11.9679 15.2612 11.9679 13.8369C11.9679 12.4633 13.1687 11.2933 14.5783 11.2933Z" fill="#81B3D2"/>
<path d="M5.38951 21.0613H3.82324V23.0452H5.38951V21.0613Z" fill="#81B3D2"/>
<path d="M8.46983 21.0613H6.90356V23.0452H8.46983V21.0613Z" fill="#81B3D2"/>
<path d="M5.38951 24.1128H3.82324V26.0968H5.38951V24.1128Z" fill="#81B3D2"/>
<path d="M8.46983 24.1128H6.90356V26.0968H8.46983V24.1128Z" fill="#81B3D2"/>
<path d="M22.0443 21.0613H20.478V23.0452H22.0443V21.0613Z" fill="#81B3D2"/>
<path d="M25.1769 21.0613H23.6106V23.0452H25.1769V21.0613Z" fill="#81B3D2"/>
<path d="M22.0443 24.1128H20.478V26.0968H22.0443V24.1128Z" fill="#81B3D2"/>
<path d="M25.1769 24.1128H23.6106V26.0968H25.1769V24.1128Z" fill="#81B3D2"/>
</svg>
